<?xml version="1.0" standalone="no"?>
<!DOCTYPE svg PUBLIC "-//W3C//DTD SVG 1.1//EN" "http://www.w3.org/Graphics/SVG/1.1/DTD/svg11.dtd" >
<svg>
<metadata>
Created by FontForge 20120731 at Mon Oct 28 21:59:15 2019
 By www
Copyright (c) The Font Bureau, Inc., 2008. All rights reserved.
</metadata>
<defs>
<font id="BentonSans-BookItalic" horiz-adv-x="1331" >
  <font-face 
    font-family="BentonSans Book Italic"
    font-weight="390"
    font-style="italic"
    font-stretch="normal"
    units-per-em="2048"
    panose-1="2 0 5 3 0 0 0 9 0 4"
    ascent="1612"
    descent="-436"
    x-height="1079"
    cap-height="1516"
    bbox="-256 -485 2628 2205"
    underline-thickness="50"
    underline-position="-100"
    slope="-10"
    unicode-range="U+0020-FB04"
  />
<missing-glyph horiz-adv-x="1024" 
d="M0 1434h1024v-1434h-1024v1434zM102 102h820v1229h-820v-1229z" />
    <glyph glyph-name="f_f" unicode="ff" horiz-adv-x="1284" 
d="M279 963h-187l21 116h186l33 183q22 137 99 196.5t196 59.5q8 0 25.5 -1t35 -3.5t32.5 -4.5t21 -4l-22 -112q-14 4 -38 6t-46 2q-72 0 -110 -32t-54 -120l-31 -170h486l30 183q23 137 98.5 196.5t205.5 59.5q8 0 25.5 -1t35.5 -3.5t34.5 -4.5t22.5 -4l-22 -114
q-15 4 -41.5 7t-50.5 3q-72 0 -112 -32t-54 -120l-31 -170h221l-22 -116h-219l-170 -963h-142l170 963h-485l-170 -963h-141z" />
    <glyph glyph-name="f_i" unicode="fi" horiz-adv-x="1133" 
d="M109 0l170 958h-189l23 121h186l33 183q22 137 98 196.5t195 59.5q10 0 27.5 -1t34.5 -4l32 -4q14 -2 20 -4l-22 -116q-15 4 -39.5 7t-46.5 3q-72 0 -108 -31t-52 -119l-31 -170h213l-22 -121h-211l-170 -958h-141zM682 0l190 1079h142l-191 -1079h-141zM911 1329l27 152
h149l-26 -152h-150z" />
    <glyph glyph-name="f_l" unicode="fl" horiz-adv-x="1133" 
d="M109 0l170 958h-189l23 121h186l33 183q22 137 98 196.5t195 59.5q10 0 27.5 -1t34.5 -4l32 -4q14 -2 20 -4l-22 -116q-15 4 -39.5 7t-46.5 3q-72 0 -108 -31t-52 -119l-31 -170h213l-22 -121h-211l-170 -958h-141zM682 0l266 1516h142l-267 -1516h-141z" />
    <glyph glyph-name="f_f_i" unicode="ffi" horiz-adv-x="1757" 
d="M279 963h-187l21 116h186l33 183q22 137 99 196.5t196 59.5q8 0 25.5 -1t35 -3.5t32.5 -4.5t21 -4l-22 -112q-14 4 -38 6t-46 2q-72 0 -110 -32t-54 -120l-31 -170h486l30 183q23 137 98.5 196.5t194.5 59.5q13 0 30 -1t34.5 -3.5t32 -4.5t20.5 -4l-23 -112
q-14 4 -38.5 6t-47.5 2q-71 0 -108 -32t-51 -120l-31 -170h211l-21 -116h-210l-170 -963h-142l170 963h-485l-170 -963h-141zM1499 1079h141l-190 -1079h-141zM1565 1481h149l-26 -152h-150z" />
    <glyph glyph-name="f_f_l" unicode="ffl" horiz-adv-x="1757" 
d="M317 963h-188l23 116h186l33 183q22 137 99 196.5t194 59.5q10 0 27.5 -1t34.5 -3.5t32.5 -4.5t21.5 -4l-22 -112q-15 4 -39.5 6t-46.5 2q-72 0 -109 -32t-53 -120l-31 -170h486l30 183q23 137 98.5 196.5t194.5 59.5q10 0 27.5 -1t35 -3.5t33 -4.5t21.5 -4l-23 -112
q-14 4 -38.5 6t-47.5 2q-71 0 -108 -32t-51 -120l-31 -170h211l-21 -116h-213l-168 -963h-141l168 963h-483l-170 -963h-142zM1614 1516h141l-268 -1516h-141z" />
    <glyph glyph-name="f_j" unicode="fj" horiz-adv-x="1133" 
d="M279 963h-187l21 116h186l33 183q22 137 98 196.5t195 59.5q22 0 62 -4.5t54 -8.5l-22 -112q-17 4 -40.5 6t-45.5 2q-72 0 -109 -32t-53 -120l-31 -170h213l-22 -116h-211l-170 -963h-141zM563 -412q-47 0 -73.5 2t-40.5 4l18 113q16 -4 38.5 -5t41.5 -1q45 0 68.5 26.5
t33.5 90.5l223 1261h142l-228 -1286q-20 -110 -72 -157.5t-151 -47.5zM940 1481h147l-26 -152h-150z" />
    <glyph glyph-name=".notdef" horiz-adv-x="1024" 
d="M0 1434h1024v-1434h-1024v1434zM102 102h820v1229h-820v-1229z" />
    <glyph glyph-name=".null" horiz-adv-x="0" 
 />
    <glyph glyph-name="nonmarkingreturn" horiz-adv-x="682" 
 />
    <glyph glyph-name="space" unicode=" " horiz-adv-x="463" 
 />
    <glyph glyph-name="space" unicode="&#xa0;" horiz-adv-x="463" 
 />
    <glyph glyph-name="exclam" unicode="!" horiz-adv-x="643" 
d="M133 190h178l-32 -190h-179zM367 1516h176l-240 -1102h-84z" />
    <glyph glyph-name="quotedbl" unicode="&#x22;" horiz-adv-x="829" 
d="M598 1001l35 402l18 113h144l-21 -113l-104 -402h-72zM246 1001l35 402l20 113h141l-18 -113l-105 -402h-73z" />
    <glyph glyph-name="numbersign" unicode="#" horiz-adv-x="1450" 
d="M203 0l92 444h-238v117h262l82 393h-256v117h281l94 445h131l-94 -445h393l94 445h132l-95 -445h246v-117h-270l-82 -393h264v-117h-289l-92 -444h-131l92 444h-393l-92 -444h-131zM451 561h393l82 393h-394z" />
    <glyph glyph-name="dollar" unicode="$" horiz-adv-x="1305" 
d="M571 -10l-30 -180h-111l33 188q-86 12 -154.5 42t-121 73t-89.5 96t-63 113l127 51q12 -33 36.5 -73t63.5 -77t94.5 -66.5t130.5 -41.5l111 626q-70 29 -136.5 61t-117.5 75t-83 99t-32 136q0 127 51.5 208t125 127t155.5 63.5t146 17.5h24l27 149h110l-30 -161
q135 -23 226 -95.5t136 -197.5l-131 -43q-29 75 -87 132.5t-171 80.5l-96 -555q73 -31 145 -65t129.5 -81t93 -111.5t35.5 -154.5q0 -143 -60.5 -229t-145.5 -132.5t-175 -60.5t-151 -14h-15zM975 410q0 57 -22.5 102t-61.5 79t-91 61.5t-110 52.5l-104 -596
q192 2 290.5 77.5t98.5 223.5zM686 1405q-154 0 -233.5 -77t-79.5 -187q0 -49 19.5 -88t53 -71t78.5 -56.5t97 -46.5l94 524q-8 0 -14.5 1t-14.5 1z" />
    <glyph glyph-name="percent" unicode="%" horiz-adv-x="1964" 
d="M334 0l1155 1516h139l-1153 -1516h-141zM1393 92q57 0 107 36t85 97.5t55.5 142.5t20.5 171q0 106 -39 171.5t-131 65.5q-59 0 -108.5 -37t-85 -98t-56 -142t-20.5 -169q0 -105 42 -171.5t130 -66.5zM1384 -20q-75 0 -130.5 26.5t-92.5 72.5t-54 109.5t-17 139.5
q0 137 35.5 241.5t94 175t132 107.5t149.5 37q150 0 220.5 -97.5t70.5 -254.5q0 -127 -33 -230.5t-89 -176.5t-130 -111.5t-156 -38.5zM473 741q59 0 108.5 36t85 97.5t56 142.5t20.5 171q0 104 -38.5 169.5t-131.5 65.5q-59 0 -108 -36.5t-85 -98t-56.5 -142.5t-20.5 -169
q0 -105 42 -170.5t128 -65.5zM467 627q-76 0 -131 26.5t-92 72.5t-55.5 109.5t-18.5 139.5q0 137 36 241.5t94 176t132 108.5t150 37q149 0 220.5 -98.5t71.5 -253.5q0 -129 -33.5 -232.5t-90 -176t-130 -111.5t-153.5 -39z" />
    <glyph glyph-name="ampersand" unicode="&#x26;" horiz-adv-x="1456" 
d="M504 -29q-129 0 -223.5 30t-154.5 82t-89 122.5t-29 150.5q0 111 37 191t97.5 138t139 98t162.5 75q-45 133 -45 266q0 93 27 169.5t76 132t119.5 87t158.5 31.5q82 0 138.5 -22.5t91 -59.5t51 -85t16.5 -101q0 -102 -40 -175t-105.5 -126t-149.5 -92t-170 -74
q23 -47 48.5 -97t58.5 -102q65 -104 119.5 -180t101.5 -133q92 104 147.5 228t83.5 233h134q-35 -135 -102.5 -281.5t-178.5 -267.5q59 -51 122.5 -73.5t145.5 -24.5l-24 -131q-99 0 -178.5 29.5t-165.5 107.5q-86 -66 -189.5 -106t-230.5 -40zM598 547q-35 55 -63.5 107.5
t-51.5 101.5q-67 -31 -127.5 -66t-104.5 -80t-70.5 -103t-26.5 -136q0 -60 19.5 -110t62.5 -87t109.5 -58.5t158.5 -21.5q102 0 184 30t150 79q-54 63 -113 148t-127 196zM942 1268q0 30 -8 58t-26.5 49.5t-50.5 34.5t-81 13q-110 0 -171.5 -78.5t-61.5 -216.5
q0 -106 32 -219q74 29 140.5 60.5t117 73.5t80 96.5t29.5 128.5z" />
    <glyph glyph-name="quotesingle" unicode="'" horiz-adv-x="477" 
d="M246 1001l35 402l20 113h141l-18 -113l-105 -402h-73z" />
    <glyph glyph-name="parenleft" unicode="(" horiz-adv-x="813" 
d="M432 -418q-174 176 -265 381t-91 434q0 185 47 340.5t137 293.5t220 261t296 244l51 -74q-131 -100 -240.5 -219t-188.5 -254t-123 -286.5t-44 -317.5q0 -215 75 -404.5t204 -330.5z" />
    <glyph glyph-name="parenright" unicode=")" horiz-adv-x="813" 
d="M-86 -346q131 100 241.5 220t190.5 256t124 287.5t44 317.5q0 213 -73.5 400.5t-202.5 330.5l73 68q176 -174 267.5 -378t91.5 -433q0 -184 -47.5 -340t-138.5 -294t-221 -263t-296 -244z" />
    <glyph glyph-name="asterisk" unicode="*" horiz-adv-x="1040" 
d="M674 700l-101 363l-221 -307l-90 78l266 266l-374 41l18 110l367 -90l-158 340l111 41l100 -362l221 307l90 -78l-266 -266l375 -41l-19 -111l-366 90l157 -340z" />
    <glyph glyph-name="plus" unicode="+" horiz-adv-x="1303" 
d="M573 154v458h-454v123h454v459h125v-459h455v-123h-455v-458h-125z" />
    <glyph glyph-name="comma" unicode="," horiz-adv-x="549" 
d="M35 -207l86 207h-68l33 193h178l-31 -175l-133 -225h-65z" />
    <glyph glyph-name="hyphen" unicode="-" horiz-adv-x="731" 
d="M104 582l23 123h461l-23 -123h-461z" />
    <glyph glyph-name="period" unicode="." horiz-adv-x="549" 
d="M53 0l33 193h178l-35 -193h-176z" />
    <glyph glyph-name="slash" unicode="/" horiz-adv-x="1126" 
d="M-86 0l1147 1516h151l-1146 -1516h-152z" />
    <glyph glyph-name="zero" unicode="0" horiz-adv-x="1317" 
d="M563 98q125 0 222.5 73t163 192.5t99 276.5t33.5 323q0 217 -81.5 334.5t-243.5 117.5q-125 0 -222.5 -70.5t-163 -189.5t-100 -273.5t-34.5 -320.5q0 -219 82.5 -341t244.5 -122zM557 -29q-121 0 -208 43t-144.5 122t-85 187.5t-27.5 239.5q0 197 45 375t131 312
t211 214t285 80q119 0 207 -43t144 -119.5t84 -184t28 -236.5q0 -197 -45 -376t-131 -315.5t-211 -217.5t-283 -81z" />
    <glyph glyph-name="one" unicode="1" horiz-adv-x="885" 
d="M-10 0l22 131h287l215 1227q-31 -15 -67.5 -28t-76.5 -22.5t-79 -14.5t-72 -5l25 129q88 4 166.5 27.5t138.5 71.5h135l-244 -1385h258l-22 -131h-686z" />
    <glyph glyph-name="two" unicode="2" horiz-adv-x="1182" 
d="M-35 0l4 33q17 137 70 237.5t127 174t163 128t179 100.5t174 90t149.5 99.5t105.5 127t40 171.5q0 109 -66.5 181.5t-212.5 72.5q-104 0 -199.5 -51t-189.5 -182l-104 69q108 158 238 225.5t270 67.5q104 0 181 -28.5t127 -79t75.5 -118t25.5 -142.5q0 -113 -39 -197
t-103.5 -148.5t-147 -115.5t-171 -97.5t-175.5 -92.5t-159.5 -102t-123.5 -127t-68 -165h809l-24 -131h-955z" />
    <glyph glyph-name="three" unicode="3" horiz-adv-x="1190" 
d="M481 -29q-106 0 -188 22.5t-144.5 63.5t-106.5 98.5t-75 127.5l125 57q53 -123 150.5 -181.5t240.5 -58.5q86 0 156 20.5t121 64.5t78.5 113t27.5 165q0 67 -20.5 119.5t-68.5 87.5t-127 53t-195 18h-56l21 125h65q258 0 370 79t112 241q0 51 -15.5 93t-51.5 72.5t-93 47
t-141 16.5q-91 0 -180 -32.5t-173 -122.5l-90 86q84 92 199 145t258 53q121 0 204 -27.5t133 -75.5t72.5 -109.5t22.5 -129.5q0 -90 -27.5 -158.5t-77 -119t-115 -81t-138.5 -44.5q131 -29 195.5 -118t64.5 -220q0 -119 -40 -210t-111.5 -153.5t-169 -94.5t-212.5 -32z" />
    <glyph glyph-name="four" unicode="4" horiz-adv-x="1219" 
d="M643 0l66 367h-711l18 108l856 1041h175l-179 -1020h256l-22 -129h-256l-66 -367h-137zM188 496h541l150 841h-5z" />
    <glyph glyph-name="five" unicode="5" horiz-adv-x="1171" 
d="M487 -29q-110 0 -192 23.5t-141.5 63.5t-99.5 93.5t-68 112.5l120 68q23 -49 55 -92t78 -75t108.5 -49.5t146.5 -17.5q94 0 169.5 36t128 97.5t80 146.5t27.5 183q0 148 -78 229.5t-229 81.5q-105 0 -192 -53t-148 -137l-102 41l196 793h782l-34 -134h-648l-135 -526
q51 57 129 99t183 42q196 0 310 -115.5t114 -318.5q0 -147 -47.5 -257.5t-125 -184.5t-178 -112t-209.5 -38z" />
    <glyph glyph-name="six" unicode="6" horiz-adv-x="1231" 
d="M549 -29q-215 0 -338 145.5t-123 426.5q0 219 54.5 402t148.5 316.5t218 208t265 74.5q135 0 233.5 -30.5t151.5 -77.5l-78 -109q-55 39 -125.5 64.5t-179.5 25.5q-92 0 -179 -45t-159.5 -132t-125 -212t-72.5 -285q28 29 71 65t99.5 66.5t125 52t148.5 21.5
q111 0 189.5 -30.5t129 -84t74 -126t23.5 -156.5q0 -135 -43 -242.5t-118 -182.5t-175 -115t-215 -40zM227 541q0 -117 26 -201t70 -138.5t105 -80t133 -25.5q80 0 151.5 27t126 82t86 138t31.5 196q0 61 -16 112t-52 90t-94.5 60.5t-142.5 21.5q-71 0 -133.5 -19.5
t-116 -50t-96.5 -67.5t-76 -74q-2 -16 -2 -35v-36z" />
    <glyph glyph-name="seven" unicode="7" horiz-adv-x="1104" 
d="M109 0l864 1382h-760l23 134h911l-21 -125l-868 -1391h-149z" />
    <glyph glyph-name="eight" unicode="8" horiz-adv-x="1243" 
d="M543 -29q-135 0 -234.5 33t-166 87t-98.5 125t-32 144q0 93 36 162.5t99.5 123.5t150.5 95t189 74q-53 31 -101 65.5t-84 75.5t-56.5 90.5t-20.5 108.5q0 86 38 156.5t103.5 123t153.5 81t189 28.5q120 0 208.5 -30.5t144.5 -82t82.5 -115t26.5 -126.5
q0 -90 -34.5 -152.5t-92 -107.5t-128 -76t-142.5 -55q62 -35 121 -74t104 -87t73 -106.5t28 -132.5q0 -98 -42 -177t-117 -135t-177 -86t-221 -30zM160 369q0 -56 25.5 -106t74.5 -88t121 -60.5t164 -22.5q78 0 152.5 18.5t132 56.5t92 95t34.5 133q0 64 -29.5 114t-78.5 91
t-111.5 77t-128.5 71q-102 -31 -185 -67t-141.5 -81t-90 -101.5t-31.5 -129.5zM1028 1182q0 43 -17.5 86t-56.5 77.5t-101 56t-151 21.5q-73 0 -135.5 -20.5t-106.5 -55t-68.5 -81.5t-24.5 -99q0 -53 23.5 -95t63.5 -79t92 -68.5t111 -62.5q88 29 157 59.5t117 67.5t72.5 84
t24.5 109z" />
    <glyph glyph-name="nine" unicode="9" horiz-adv-x="1231" 
d="M459 -29q-135 0 -231.5 31t-155.5 80l84 106q51 -41 121.5 -65.5t181.5 -24.5q92 0 178 45t158.5 132t124 212t73.5 285q-28 -31 -71 -66.5t-99.5 -66.5t-124 -51.5t-147.5 -20.5q-111 0 -189.5 31t-130 84t-75 126t-23.5 157q0 135 43 242.5t118 182t175 114.5t215 40
q217 0 340 -145.5t123 -425.5q0 -219 -54.5 -402.5t-147.5 -316.5t-219 -208t-267 -75zM1008 975q0 117 -26 199.5t-70 137t-105.5 80t-132.5 25.5q-80 0 -151.5 -26.5t-126 -81t-86 -137t-31.5 -195.5q0 -62 15 -113t51 -90t93.5 -60.5t141.5 -21.5q71 0 134.5 19.5
t117 50.5t97.5 68.5t77 74.5q2 17 2 34v36z" />
    <glyph glyph-name="colon" unicode=":" horiz-adv-x="555" 
d="M211 887l35 192h178l-35 -192h-178zM55 0l35 193h176l-33 -193h-178z" />
    <glyph glyph-name="semicolon" unicode=";" horiz-adv-x="555" 
d="M211 887l35 192h178l-35 -192h-178zM37 -207l86 207h-68l35 193h176l-30 -173l-134 -227h-65z" />
    <glyph glyph-name="less" unicode="&#x3c;" horiz-adv-x="1303" 
d="M88 612v103l1083 465v-133l-919 -383l919 -383v-134z" />
    <glyph glyph-name="equal" unicode="=" horiz-adv-x="1303" 
d="M117 838v120h1034v-120h-1034zM117 371v121h1034v-121h-1034z" />
    <glyph glyph-name="greater" unicode="&#x3e;" horiz-adv-x="1303" 
d="M100 147v134l920 383l-920 383v133l1084 -465v-103z" />
    <glyph glyph-name="question" unicode="?" horiz-adv-x="1083" 
d="M262 0l35 190h176l-33 -190h-178zM367 412q4 61 10 107t16 87q15 60 39.5 102t61 73.5t86 59t114.5 60.5q43 21 83 44.5t70 55t47 75.5t17 108q0 100 -70.5 165.5t-224.5 65.5q-104 0 -187 -40t-169 -134l-90 82q96 111 214 166t247 55q106 0 187 -27.5t133.5 -74.5
t79 -110.5t26.5 -133.5q0 -92 -25.5 -153.5t-67.5 -104.5t-94.5 -73.5t-107.5 -59.5q-86 -45 -135 -78t-77 -73t-41 -96t-28 -148h-114z" />
    <glyph glyph-name="at" unicode="@" horiz-adv-x="1778" 
d="M764 426q80 0 148.5 29.5t144.5 101.5l63 428q-53 64 -113.5 91.5t-142.5 27.5q-67 0 -123.5 -36t-96.5 -95.5t-61.5 -140t-21.5 -168.5q0 -127 55.5 -182.5t147.5 -55.5zM881 -29q-172 0 -316.5 57.5t-249 161t-163 248t-58.5 320.5t59.5 320.5t166 248t251 160.5
t314.5 57t314 -56t249.5 -157.5t165 -243t59.5 -309.5q0 -108 -26.5 -193t-72.5 -144.5t-108.5 -90.5t-136.5 -31q-100 0 -159.5 45.5t-82.5 110.5q-73 -67 -156 -108t-183 -41q-68 0 -124.5 19.5t-97.5 60t-63.5 102t-22.5 145.5q0 117 32 217.5t88 176t135 118.5t173 43
q93 0 155 -31.5t112 -80.5l14 94h119l-90 -602q-11 -78 31 -130t130 -52q52 0 96 22.5t77.5 67.5t53 114.5t19.5 165.5q0 152 -52 278t-145.5 217t-222.5 141t-280 50q-152 0 -281 -51t-222 -144t-145.5 -223.5t-52.5 -285.5q0 -156 52.5 -286t145.5 -223t221 -145.5
t280 -52.5q123 0 221 27.5t194 81.5l39 -70q-98 -53 -212.5 -86t-243.5 -33z" />
    <glyph glyph-name="A" unicode="A" horiz-adv-x="1358" 
d="M-59 0l794 1522h158l258 -1522h-145l-76 473h-596l-244 -473h-149zM397 600h512l-121 750h-4z" />
    <glyph glyph-name="B" unicode="B" horiz-adv-x="1382" 
d="M354 840h367q88 0 165 15t133 51t88 95.5t32 149.5q0 115 -88 174t-291 59h-311zM227 129h447q88 0 159.5 18.5t124 56.5t81 98t28.5 147q0 135 -105.5 201.5t-310.5 66.5h-319zM61 0l267 1516h450q131 0 227.5 -25t159 -70t92 -108.5t29.5 -141.5q0 -96 -30.5 -164.5
t-80 -114.5t-113 -72.5t-128.5 -41.5l-2 -4q123 -24 200.5 -105t77.5 -223q0 -108 -38.5 -191t-110.5 -139.5t-172.5 -86t-222.5 -29.5h-605z" />
    <glyph glyph-name="C" unicode="C" horiz-adv-x="1411" 
d="M643 -29q-131 0 -232.5 46t-170 129t-103.5 199t-35 255q0 211 59.5 384t159 298t230.5 193.5t276 68.5q129 0 221.5 -32.5t153 -94t93 -150.5t40.5 -200l-143 -12q-6 88 -28.5 154.5t-66.5 111.5t-113 67.5t-167 22.5q-110 0 -213.5 -56.5t-182.5 -162t-126 -256
t-47 -338.5q0 -227 103.5 -361.5t297.5 -134.5q82 0 150.5 20.5t126 67t106.5 119t92 176.5l127 -47q-92 -229 -241.5 -348t-366.5 -119z" />
    <glyph glyph-name="D" unicode="D" horiz-adv-x="1432" 
d="M229 127h263q331 0 511.5 192.5t180.5 571.5q0 235 -130 365t-409 130h-194zM61 0l267 1516h319q342 0 513 -164t171 -451q0 -440 -223 -670.5t-641 -230.5h-406z" />
    <glyph glyph-name="E" unicode="E" horiz-adv-x="1217" 
d="M61 0l267 1516h884l-24 -136h-739l-91 -514h547l-22 -131h-547l-107 -602h783l-23 -133h-928z" />
    <glyph glyph-name="F" unicode="F" horiz-adv-x="1137" 
d="M61 0l267 1516h866l-23 -136h-722l-93 -522h531l-23 -131h-530l-127 -727h-146z" />
    <glyph glyph-name="G" unicode="G" horiz-adv-x="1462" 
d="M635 -29q-135 0 -234.5 47.5t-165 129t-98.5 194.5t-33 244q0 227 64.5 405t168 301t236 187.5t267.5 64.5q247 0 365 -122t136 -343l-141 -12q-14 180 -102 262t-269 82q-106 0 -209.5 -52t-185.5 -155.5t-132 -256t-50 -351.5q0 -113 25.5 -205t77 -156.5t126 -99.5
t172.5 -35q183 0 308.5 128t164.5 360h-358l23 127h499l-125 -715h-131l39 231h-4q-31 -51 -74 -98t-97 -83t-120.5 -57.5t-142.5 -21.5z" />
    <glyph glyph-name="H" unicode="H" horiz-adv-x="1479" 
d="M61 0l267 1516h145l-115 -650h801l115 650h145l-266 -1516h-145l129 733h-801l-129 -733h-146z" />
    <glyph glyph-name="I" unicode="I" horiz-adv-x="575" 
d="M82 0l266 1516h146l-267 -1516h-145z" />
    <glyph glyph-name="J" unicode="J" horiz-adv-x="1004" 
d="M332 -29q-80 0 -140.5 18.5t-105.5 48.5t-78 69.5t-57 82.5l112 76q48 -80 110.5 -122t154.5 -42q55 0 101 13.5t82 47.5t61.5 89t39.5 141l199 1123h145l-198 -1137q-39 -215 -144.5 -311.5t-281.5 -96.5z" />
    <glyph glyph-name="K" unicode="K" horiz-adv-x="1348" 
d="M1014 0l-385 844l-328 -305l-94 -539h-146l267 1516h145l-139 -793l848 793h174l-619 -576l428 -940h-151z" />
    <glyph glyph-name="L" unicode="L" horiz-adv-x="1137" 
d="M61 0l267 1516h145l-244 -1383h721l-24 -133h-865z" />
    <glyph glyph-name="M" unicode="M" horiz-adv-x="1763" 
d="M61 0l267 1516h188l264 -1328h4l729 1328h191l-266 -1516h-146l226 1278h-5q-22 -53 -60 -127t-77 -145l-563 -1006h-131l-205 1006q-14 73 -26.5 134.5t-22.5 143.5h-4l-227 -1284h-136z" />
    <glyph glyph-name="N" unicode="N" horiz-adv-x="1501" 
d="M61 0l267 1516h155l594 -1260h4l222 1260h137l-266 -1516h-130l-614 1298h-4l-227 -1298h-138z" />
    <glyph glyph-name="O" unicode="O" horiz-adv-x="1499" 
d="M653 102q113 0 220.5 50.5t191.5 152t135 252t51 352.5q0 115 -27.5 208t-79.5 158.5t-127 100.5t-171 35q-109 0 -215.5 -50t-191.5 -149.5t-138 -250t-53 -353.5q0 -116 27.5 -209.5t80 -159t127 -101.5t170.5 -36zM643 -29q-127 0 -227.5 47.5t-170 132.5
t-106.5 202.5t-37 256.5q0 221 64.5 395.5t171 294t243 182t281.5 62.5q125 0 224.5 -47t168 -131t105.5 -200.5t37 -258.5q0 -221 -62.5 -395t-167 -294t-240.5 -183.5t-284 -63.5z" />
    <glyph glyph-name="P" unicode="P" horiz-adv-x="1296" 
d="M328 1516h436q258 0 387 -96.5t129 -272.5q0 -137 -48 -228.5t-127 -146.5t-181.5 -77.5t-210.5 -22.5h-389l-117 -672h-146zM729 801q82 0 155.5 13t128 50t86 102.5t31.5 170.5q0 123 -92 184t-290 61h-299l-103 -581h383z" />
    <glyph glyph-name="Q" unicode="Q" horiz-adv-x="1499" 
d="M920 -381q-205 0 -306.5 92t-74.5 275q-105 18 -186 70.5t-136 134t-85 188t-30 231.5q0 221 64.5 395.5t171 294t243 182t281.5 62.5q125 0 224.5 -47t168 -131t105.5 -200.5t37 -258.5q0 -215 -60.5 -384t-160 -286.5t-229.5 -183t-269 -73.5q-14 -134 56.5 -182
t221.5 -48h95l-23 -131h-108zM655 102q109 0 215.5 50.5t190.5 152t136 252t52 352.5q0 115 -26.5 208t-78.5 158.5t-127 100.5t-171 35q-109 0 -215.5 -50t-191.5 -149.5t-138 -250t-53 -353.5q0 -116 27.5 -209.5t80 -159t128 -101.5t171.5 -36z" />
    <glyph glyph-name="R" unicode="R" horiz-adv-x="1354" 
d="M61 0l267 1516h440q242 0 377 -92.5t135 -276.5q0 -72 -20.5 -147.5t-69.5 -140t-132 -111t-208 -58.5l246 -690h-148l-241 680h-383l-119 -680h-144zM348 809h383q80 0 152.5 11t128 47t87 99.5t31.5 168.5q0 122 -92 184.5t-286 62.5h-303z" />
    <glyph glyph-name="S" unicode="S" horiz-adv-x="1309" 
d="M582 -29q-129 0 -223.5 28t-159 80t-101.5 127t-49 171l139 26q23 -159 119 -231t287 -72q80 0 149.5 18.5t122 55.5t82 95.5t29.5 138.5q0 96 -55.5 154.5t-139.5 100.5t-180 75.5t-180 79.5t-139.5 113.5t-55.5 178.5q0 102 39 183t105.5 136.5t154.5 85t187 29.5
q123 0 211 -25.5t147 -70.5t93 -109.5t53 -140.5l-138 -37q-28 142 -123.5 197t-253.5 55q-145 0 -236 -76.5t-91 -206.5q0 -86 55 -140t139 -93t180.5 -74t180.5 -84t139 -121.5t55 -187.5q0 -119 -45 -206t-120.5 -143t-173 -83t-203.5 -27z" />
    <glyph glyph-name="T" unicode="T" horiz-adv-x="1243" 
d="M416 0l241 1380h-477l23 136h1104l-25 -136h-479l-242 -1380h-145z" />
    <glyph glyph-name="U" unicode="U" horiz-adv-x="1444" 
d="M629 -29q-158 0 -260.5 48.5t-158.5 129t-69.5 187t6.5 223.5l166 957h146l-166 -963q-17 -92 -9.5 -174t46.5 -143.5t111.5 -96.5t187.5 -35q196 0 302.5 95.5t139.5 285.5l180 1031h146l-187 -1057q-41 -236 -188.5 -362t-392.5 -126z" />
    <glyph glyph-name="V" unicode="V" horiz-adv-x="1329" 
d="M461 -6l-254 1522h143l211 -1323h4l676 1323h148l-791 -1522h-137z" />
    <glyph glyph-name="W" unicode="W" horiz-adv-x="1874" 
d="M342 0l-127 1516h143l66 -920q8 -104 14 -203.5t11 -177.5h4q28 78 70 176t85 203l385 922h156l65 -930q9 -105 14 -195t7 -176h4q37 92 73 177t79 188l393 936h141l-657 -1516h-138l-94 1315h-4l-553 -1315h-137z" />
    <glyph glyph-name="X" unicode="X" horiz-adv-x="1325" 
d="M975 0l-330 702l-563 -702h-158l666 823l-324 693h148l276 -592l475 592h158l-575 -713l376 -803h-149z" />
    <glyph glyph-name="Y" unicode="Y" horiz-adv-x="1245" 
d="M416 0l116 668l-348 848h150l291 -723l540 723h162l-649 -848l-117 -668h-145z" />
    <glyph glyph-name="Z" unicode="Z" horiz-adv-x="1255" 
d="M-47 0l20 111l1108 1275h-823l21 130h1005l-18 -111l-1104 -1278h880l-24 -127h-1065z" />
    <glyph glyph-name="bracketleft" unicode="[" horiz-adv-x="793" 
d="M-25 -410l338 1926h516l-18 -109h-373l-301 -1708h375l-20 -109h-517z" />
    <glyph glyph-name="backslash" unicode="\" horiz-adv-x="1110" 
d="M793 0l-615 1516h139l615 -1516h-139z" />
    <glyph glyph-name="bracketright" unicode="]" horiz-adv-x="793" 
d="M-109 -410l19 109h375l299 1706h-373l18 111h516l-337 -1926h-517z" />
    <glyph glyph-name="asciicircum" unicode="^" horiz-adv-x="1303" 
d="M600 1516h105l462 -824h-131l-383 678l-385 -678h-131z" />
    <glyph glyph-name="underscore" unicode="_" horiz-adv-x="1006" 
d="M-178 -258l20 115h1006l-21 -115h-1005z" />
    <glyph glyph-name="grave" unicode="`" horiz-adv-x="1024" 
d="M557 1194l-278 319h186l184 -319h-92z" />
    <glyph glyph-name="a" unicode="a" horiz-adv-x="1118" 
d="M340 98q98 0 199.5 45t199.5 125l58 328q-197 -21 -322 -55.5t-197.5 -80.5t-100 -100.5t-27.5 -111.5q0 -70 48 -110t142 -40zM299 -18q-143 0 -218 66.5t-75 172.5q0 90 43 170t138.5 141.5t250 104.5t377.5 59l10 56q23 110 -25 169.5t-179 59.5q-56 0 -111 -13.5
t-106.5 -34t-95.5 -48t-75 -54.5l-71 93q39 32 89 64t109.5 56.5t129 40t149.5 15.5q104 0 173 -26.5t106.5 -76t48 -117t-3.5 -147.5l-82 -467q-9 -45 -14 -78.5t-7 -64.5t-1 -59.5t5 -63.5h-147q-4 41 -4 76t8 78q-109 -86 -216.5 -129t-205.5 -43z" />
    <glyph glyph-name="b" unicode="b" horiz-adv-x="1194" 
d="M528 100q70 0 140.5 31t127 97.5t91.5 169t35 247.5q0 156 -75 245t-204 89q-49 0 -97 -16.5t-91 -42t-79 -56t-63 -61.5l-98 -551q121 -152 313 -152zM539 -18q-115 0 -195 42t-149 113l-23 -137h-141l266 1516h141l-104 -590q22 26 57 56t80 56.5t98.5 44t112.5 17.5
q180 0 281.5 -117t101.5 -319q0 -172 -45 -300t-119 -213t-168 -127t-194 -42z" />
    <glyph glyph-name="c" unicode="c" horiz-adv-x="1067" 
d="M455 -23q-93 0 -166.5 33t-126.5 93.5t-82 146.5t-29 192q0 181 54.5 305.5t135.5 203.5t177 114t182 35q96 0 162.5 -23.5t111 -64.5t70 -95.5t41.5 -117.5l-129 -29q-29 111 -89 161t-177 50q-78 0 -149.5 -35t-127 -102.5t-88 -169t-32.5 -234.5q0 -159 71.5 -251.5
t202.5 -92.5q55 0 99 12.5t82 40t72 70.5t71 105l108 -52q-68 -137 -171 -216t-273 -79z" />
    <glyph glyph-name="d" unicode="d" horiz-adv-x="1194" 
d="M473 100q86 0 167 44t165 130l98 551q-55 68 -132 111t-183 43q-62 0 -131.5 -27.5t-128 -92t-96 -170t-37.5 -259.5q0 -162 76.5 -246t201.5 -84zM438 -18q-86 0 -156.5 27.5t-121.5 82.5t-80 136t-29 188q0 184 49.5 314t126 212t169.5 120t184 38q61 0 114.5 -14.5
t96.5 -38t75.5 -50t57.5 -51.5l98 570h141l-219 -1250q-16 -90 -21 -146.5t7 -119.5h-150q-4 35 -4 75t8 81q-59 -72 -151 -123t-195 -51z" />
    <glyph glyph-name="e" unicode="e" horiz-adv-x="1098" 
d="M459 -23q-90 0 -166 32t-129 90.5t-83 142.5t-30 190q0 184 56.5 311t139.5 207t177 115t172 35q119 0 198.5 -44t123 -121t52.5 -178.5t-12 -217.5l-4 -27h-761q-3 -18 -3 -38v-40q0 -96 28 -161.5t70 -104.5t92 -55.5t97 -16.5q123 0 202 55.5t138 143.5l101 -68
q-78 -114 -189 -182t-270 -68zM836 625q8 69 0.5 133.5t-37 114t-81.5 79t-134 29.5q-60 0 -117 -22.5t-106.5 -66.5t-89.5 -111.5t-60 -155.5h625z" />
    <glyph glyph-name="f" unicode="f" horiz-adv-x="657" 
d="M109 0l170 958h-189l23 121h186l33 183q22 137 97 196.5t204 59.5q8 0 25.5 -1t36 -3.5t34.5 -4.5t23 -4l-23 -116q-14 4 -40.5 7t-51.5 3q-72 0 -111 -31t-55 -119l-31 -170h222l-23 -121h-219l-170 -958h-141z" />
    <glyph glyph-name="g" unicode="g" horiz-adv-x="1139" 
d="M489 328q-116 0 -202 43q-90 -33 -90 -86q0 -29 17 -46.5t55 -29.5t97.5 -23.5t141.5 -23.5q80 -12 150.5 -30.5t124 -47.5t84 -74t30.5 -112q0 -86 -41 -145.5t-108.5 -96.5t-153.5 -53.5t-176 -16.5q-146 0 -247 21.5t-165.5 59.5t-94.5 87t-30 105q0 61 25.5 107
t63.5 79t82 53.5t81 32.5q-74 39 -74 113q0 53 36 99t116 79q-53 47 -81 110.5t-28 141.5q0 104 40 183t105.5 133t148.5 82t167 28q99 0 173.5 -32t123.5 -87q60 39 133.5 67.5t147.5 38.5l-25 -133q-41 -2 -98 -9t-113 -27q41 -78 41 -173q0 -106 -40 -184t-104.5 -130
t-146.5 -77.5t-166 -25.5zM498 436q65 0 122.5 19.5t100.5 58.5t67.5 97.5t24.5 138.5q0 104 -62.5 170.5t-195.5 66.5q-66 0 -123 -20.5t-100 -60.5t-68.5 -99t-25.5 -135q0 -105 65.5 -170.5t194.5 -65.5zM27 -119q0 -39 20.5 -72.5t68.5 -58t125.5 -39t194.5 -14.5
q66 0 124 9t102.5 30.5t70 55.5t25.5 81q0 43 -20.5 70.5t-58.5 47t-90 33t-116 23.5q-65 10 -125.5 20.5t-109.5 24.5q-43 -12 -81 -30.5t-67 -45t-46 -60.5t-17 -75z" />
    <glyph glyph-name="h" unicode="h" horiz-adv-x="1169" 
d="M31 0l266 1516h141l-106 -609q35 37 82 71t100 61.5t109.5 44t109.5 16.5q88 0 149.5 -24.5t95.5 -69.5t43 -107.5t-3 -138.5l-133 -760h-142l129 743q23 115 -20 175.5t-172 60.5q-90 0 -183.5 -51t-185.5 -135l-139 -793h-141z" />
    <glyph glyph-name="i" unicode="i" horiz-adv-x="492" 
d="M272 1329l27 152h150l-27 -152h-150zM43 0l190 1079h142l-191 -1079h-141z" />
    <glyph glyph-name="j" unicode="j" horiz-adv-x="492" 
d="M272 1329l27 152h150l-27 -152h-150zM-76 -412q-47 0 -73.5 2t-43.5 4l21 113q14 -4 36.5 -5t43.5 -1q45 0 68.5 26.5t33.5 90.5l223 1261h142l-228 -1286q-20 -110 -72 -157.5t-151 -47.5z" />
    <glyph glyph-name="k" unicode="k" horiz-adv-x="1065" 
d="M31 0l266 1516h141l-172 -984l590 547h166l-420 -385l272 -694h-143l-235 600l-260 -235l-64 -365h-141z" />
    <glyph glyph-name="l" unicode="l" horiz-adv-x="492" 
d="M43 0l266 1516h142l-267 -1516h-141z" />
    <glyph glyph-name="m" unicode="m" horiz-adv-x="1849" 
d="M31 0l190 1079h141l-30 -172q35 37 79 71t94 61.5t104.5 44t107.5 16.5q137 0 205.5 -56.5t81.5 -148.5q98 96 201.5 150.5t207.5 54.5q88 0 149.5 -24.5t95.5 -69.5t43 -107.5t-3 -138.5l-135 -760h-142l131 743q21 115 -22 175.5t-170 60.5q-86 0 -173 -50t-181 -134
l-138 -795h-141l129 743q23 115 -20 175.5t-172 60.5q-89 0 -175 -51t-178 -135l-139 -793h-141z" />
    <glyph glyph-name="n" unicode="n" horiz-adv-x="1169" 
d="M31 0l190 1079h141l-30 -172q35 37 82 71t100 61.5t109.5 44t109.5 16.5q88 0 149.5 -24.5t95.5 -69.5t43 -107.5t-3 -138.5l-133 -760h-142l129 743q23 115 -20 175.5t-172 60.5q-90 0 -183.5 -51t-185.5 -135l-139 -793h-141z" />
    <glyph glyph-name="o" unicode="o" horiz-adv-x="1161" 
d="M483 96q82 0 156 38t130 107.5t89 169t33 222.5q0 69 -16.5 132.5t-52.5 112t-91 76t-131 27.5q-84 0 -157.5 -38t-129 -108.5t-87 -170t-31.5 -222.5q0 -71 16 -133.5t51 -109.5t89.5 -75t131.5 -28zM473 -23q-96 0 -174 33t-133 93.5t-85 145.5t-30 191q0 168 51.5 292
t131 206t179 122t197.5 40q95 0 172.5 -33t133 -93.5t86 -145.5t30.5 -191q0 -166 -50 -290t-130 -206t-180.5 -123t-198.5 -41z" />
    <glyph glyph-name="p" unicode="p" horiz-adv-x="1194" 
d="M528 100q62 0 131.5 28t128 91.5t96.5 168t38 255.5q0 164 -78 250t-201 86q-88 0 -177 -51t-153 -125l-98 -551q64 -72 134.5 -112t178.5 -40zM-41 -410l262 1489h141l-28 -153q26 32 65 64t84 56.5t95.5 39t99.5 14.5q178 0 282.5 -113t104.5 -323q0 -181 -48 -310
t-124 -212t-170 -121.5t-186 -38.5q-109 0 -192 43t-148 112l-97 -547h-141z" />
    <glyph glyph-name="q" unicode="q" horiz-adv-x="1194" 
d="M473 100q86 0 167 44t165 130l98 551q-55 68 -132 111t-183 43q-62 0 -131.5 -27.5t-128 -92t-96 -170t-37.5 -259.5q0 -162 76.5 -246t201.5 -84zM684 -410l100 566q-59 -72 -152 -123t-194 -51q-176 0 -281.5 111.5t-105.5 322.5q0 184 49.5 314t126 212t169.5 120
t184 38q63 0 116.5 -14.5t96.5 -38t75.5 -50t55.5 -51.5l22 133h141l-262 -1489h-141z" />
    <glyph glyph-name="r" unicode="r" horiz-adv-x="791" 
d="M31 0l190 1079h141l-38 -213h4q37 45 84 87t103 75t123 52.5t142 19.5h17l-25 -129q-27 0 -35 1t-12 1q-53 0 -110.5 -18.5t-115 -53.5t-109.5 -85t-95 -114l-123 -702h-141z" />
    <glyph glyph-name="s" unicode="s" horiz-adv-x="1016" 
d="M410 -18q-177 0 -275 56t-153 152l112 68q41 -68 118 -114t206 -48q123 0 201.5 46t78.5 155q0 61 -42 99t-105.5 64.5t-136 50.5t-136 57.5t-105.5 85t-42 132.5q0 144 100.5 229t268.5 85q82 0 146.5 -13.5t113.5 -37t85 -54t62 -65.5l-102 -84q-47 65 -124 101
t-185 36q-113 0 -168.5 -50t-55.5 -124q0 -64 42 -101.5t104.5 -64.5t136.5 -49.5t136.5 -55t104.5 -84t42 -135.5q0 -96 -36 -160.5t-96.5 -103.5t-137 -56t-158.5 -17z" />
    <glyph glyph-name="t" unicode="t" horiz-adv-x="729" 
d="M387 -14q-84 0 -136 19.5t-78 56t-30 91t9 123.5l120 682h-186l20 121h189l65 387h142l-66 -387h262l-22 -121h-262l-119 -669q-8 -47 -9 -82t12 -57.5t43 -34t83 -11.5q51 0 98 13l8 -117q-26 -6 -69 -10t-74 -4z" />
    <glyph glyph-name="u" unicode="u" horiz-adv-x="1165" 
d="M360 -23q-176 0 -242.5 94.5t-39.5 245.5l133 762h141l-131 -745q-20 -115 23 -175.5t170 -60.5q90 0 181 51.5t183 135.5l140 794h141l-191 -1079h-141l31 172q-35 -37 -81 -71.5t-98.5 -62.5t-107.5 -44.5t-111 -16.5z" />
    <glyph glyph-name="v" unicode="v" horiz-adv-x="1022" 
d="M305 -6l-194 1085h145l147 -911h5l469 911h151l-582 -1085h-141z" />
    <glyph glyph-name="w" unicode="w" horiz-adv-x="1509" 
d="M244 0l-129 1079h141l51 -534q8 -90 18.5 -177t16.5 -190h4q25 58 44.5 103t37.5 87t36.5 84t41.5 93l242 534h131l53 -544l33 -357h4q22 53 41.5 97t38 84t36 81t39.5 90l248 549h139l-512 -1079h-131l-90 887h-4l-401 -887h-129z" />
    <glyph glyph-name="x" unicode="x" horiz-adv-x="1026" 
d="M-70 0l471 565l-251 514h147l203 -415l342 415h151l-438 -526l272 -553h-147l-225 457l-375 -457h-150z" />
    <glyph glyph-name="y" unicode="y" horiz-adv-x="1059" 
d="M43 -414q-57 0 -104.5 10.5t-81.5 26.5l49 117q26 -10 64 -21.5t75 -11.5q72 0 119 42t84 110l76 135l-211 1085h147l164 -911h4l485 911h150l-701 -1261q-32 -62 -65 -105t-70 -71.5t-82 -42t-102 -13.5z" />
    <glyph glyph-name="z" unicode="z" horiz-adv-x="1016" 
d="M-49 0l16 90l785 871h-580l23 118h763l-16 -92l-788 -870h661l-20 -117h-844z" />
    <glyph glyph-name="braceleft" unicode="{" horiz-adv-x="776" 
d="M383 -410q-158 0 -212 72t-32 186l72 406q12 76 10 123t-23.5 74.5t-63.5 38t-107 10.5l18 106q68 0 114 10.5t76.5 38t49 74.5t30.5 123l74 414q23 135 100.5 192.5t208.5 57.5h123l-18 -109h-86q-84 0 -129 -40t-60 -118l-71 -403q-13 -76 -33.5 -125t-48 -82
t-63.5 -51.5t-79 -32.5l-2 -4q39 -14 68 -32.5t46 -51.5t19.5 -82t-10.5 -125l-71 -403q-29 -158 133 -158h88l-21 -109h-100z" />
    <glyph glyph-name="bar" unicode="|" horiz-adv-x="707" 
d="M268 -410v1926h138v-1926h-138z" />
    <glyph glyph-name="braceright" unicode="}" horiz-adv-x="776" 
d="M-119 -410l19 109h88q84 0 128 40t58 118l74 409q12 76 32.5 124t48 80t63.5 49.5t79 31.5l2 4q-39 14 -68.5 31.5t-46 49.5t-19.5 80t9 124l72 409q14 78 -16.5 118t-114.5 40h-88l18 109h107q159 0 210.5 -69t30.5 -183l-73 -412q-13 -76 -11 -123t23.5 -74.5t63.5 -38
t108 -10.5l-19 -106q-67 0 -113 -10.5t-77 -38t-49.5 -74.5t-30.5 -123l-76 -420q-22 -135 -97 -189.5t-204 -54.5h-131z" />
    <glyph glyph-name="asciitilde" unicode="~" horiz-adv-x="1303" 
d="M934 549q-49 2 -132 25.5t-170 49t-164 48t-112 26.5q-47 4 -76.5 -16t-35.5 -80l-97 12q11 117 70 166t152 43q32 -2 80.5 -13t104.5 -27.5t115.5 -35t113 -34t96.5 -26.5t65 -13q47 -4 79 16.5t36 79.5l98 -8q-12 -117 -71.5 -168t-151.5 -45z" />
    <glyph glyph-name="exclamdown" unicode="&#xa1;" horiz-adv-x="641" 
d="M330 1325l35 191h176l-33 -191h-178zM98 0l240 1104h84l-148 -1104h-176z" />
    <glyph glyph-name="cent" unicode="&#xa2;" horiz-adv-x="1079" 
d="M453 -20q-82 0 -146 24l-123 -268h-98l139 309q-84 59 -129 159.5t-45 237.5q0 181 54.5 305.5t135.5 203.5t177 114t182 35q57 0 96 -8l99 215h98l-109 -240q90 -37 134.5 -107.5t66.5 -160.5l-127 -29q-18 72 -49 118t-82 68l-377 -839q56 -23 119 -23q98 0 174 56.5
t148 179.5l108 -51q-70 -136 -181.5 -217.5t-264.5 -81.5zM588 983q-78 0 -149.5 -35t-127 -103.5t-89.5 -170t-34 -234.5q0 -188 97 -278l368 817q-16 2 -32.5 3t-32.5 1z" />
    <glyph glyph-name="sterling" unicode="&#xa3;" horiz-adv-x="1227" 
d="M182 -29q-98 0 -161.5 52.5t-63.5 138.5q0 119 71.5 180t182.5 61q74 0 130 -32.5t108 -79.5q10 41 17 89t7 103q0 70 -12 133.5t-29 124.5h-256l19 113h202q-22 70 -37.5 136.5t-15.5 137.5q0 101 33 178.5t90 131t132 80t159 26.5q116 0 190 -32.5t115 -86t53 -123
t6 -143.5l-137 -10q6 55 -1 104.5t-33.5 86t-74 58t-120.5 21.5q-56 0 -105 -17.5t-86 -53t-58.5 -91t-21.5 -131.5q0 -65 17.5 -132.5t40.5 -139.5h334l-19 -113h-283q15 -57 24 -117.5t9 -125.5q0 -84 -15 -160t-48 -139q47 -43 98 -74t115 -31q90 0 146.5 63.5
t72.5 215.5h129q-10 -86 -33.5 -160t-65.5 -128t-102.5 -84t-144.5 -30q-92 0 -158.5 38t-120.5 91q-53 -59 -126.5 -94t-172.5 -35zM205 301q-55 0 -94 -31.5t-39 -99.5q0 -43 31.5 -70.5t86.5 -27.5q64 0 117 27.5t92 84.5q-47 47 -93 82t-101 35z" />
    <glyph glyph-name="yen" unicode="&#xa5;" horiz-adv-x="1241" 
d="M414 0l45 258h-381l20 115h381l35 196h-381l21 113h376l-344 834h152l287 -723l536 723h160l-637 -834h381l-21 -113h-385l-34 -196h385l-21 -115h-385l-45 -258h-145z" />
    <glyph glyph-name="brokenbar" unicode="&#xa6;" horiz-adv-x="707" 
d="M268 678v838h138v-838h-138zM268 -410v838h138v-838h-138z" />
    <glyph glyph-name="section" unicode="&#xa7;" horiz-adv-x="1067" 
d="M362 -410q-116 0 -187 30t-109.5 77t-52 105.5t-19.5 115.5l129 12q4 -53 15.5 -94t38 -70.5t70.5 -45t115 -15.5q121 0 176.5 57.5t55.5 139.5q0 65 -38 117.5t-95.5 100.5t-125 95t-124.5 100.5t-95 116t-38 141.5q0 74 29.5 132.5t76.5 102.5t106.5 77t119.5 55
q-66 57 -109 122.5t-43 151.5q0 70 25.5 129.5t75 104.5t119 70.5t159.5 25.5q108 0 179 -26.5t114 -70.5t62.5 -103.5t23.5 -124.5l-127 -11q-2 47 -15.5 87t-43 70t-77.5 46t-118 16q-119 0 -177.5 -57t-58.5 -139q0 -66 39 -118t96.5 -99t126 -94.5t126 -100.5
t96.5 -115.5t39 -142.5q0 -74 -29 -133t-76 -105.5t-106.5 -80t-118.5 -56.5q61 -55 102 -119.5t41 -146.5q0 -70 -24.5 -130t-72.5 -104t-117.5 -70t-158.5 -26zM788 541q0 49 -25.5 92t-66.5 83t-93 76.5t-103 75.5q-148 -55 -218.5 -119.5t-70.5 -154.5q0 -53 26.5 -97
t68.5 -84t94.5 -79t105.5 -78q145 53 213.5 124t68.5 161z" />
    <glyph glyph-name="dieresis" unicode="&#xa8;" horiz-adv-x="1018" 
d="M678 1194l29 168h159l-28 -168h-160zM336 1194l29 168h157l-28 -168h-158z" />
    <glyph glyph-name="copyright" unicode="&#xa9;" horiz-adv-x="1767" 
d="M885 -29q-164 0 -306.5 61.5t-248 168t-166 250t-60.5 307.5t60.5 307t167 249.5t249 168t306.5 61.5q162 0 304 -61.5t248.5 -168t167 -249.5t60.5 -307t-60.5 -307.5t-167 -250t-248.5 -168t-306 -61.5zM887 55q145 0 271 55.5t219 150.5t146.5 223t53.5 274
q0 145 -53.5 273t-147.5 223.5t-220 150.5t-271 55q-146 0 -272 -55t-219 -150.5t-146 -223.5t-53 -273q0 -146 53 -274t146 -223t220 -150.5t273 -55.5zM881 319q-82 0 -147.5 33t-112 92.5t-72 142.5t-25.5 185q0 96 25.5 178t72 141.5t113 93.5t148.5 34q131 0 207.5 -73
t111.5 -202l-94 -24q-31 104 -82 155t-143 51q-60 0 -107 -25.5t-79.5 -71.5t-51 -110.5t-18.5 -144.5q0 -172 68.5 -267t189.5 -95q178 0 233 217l94 -25q-34 -135 -117 -210t-214 -75z" />
    <glyph glyph-name="ordfeminine" unicode="&#xaa;" horiz-adv-x="834" 
d="M377 850q61 0 127.5 32.5t132.5 86.5l37 207q-127 -13 -209 -33.5t-129 -50t-65.5 -65.5t-18.5 -77q0 -43 29.5 -71.5t95.5 -28.5zM346 756q-106 0 -159.5 52t-51.5 130q2 63 31 115.5t92.5 93.5t168.5 68.5t261 44.5l8 40q15 72 -13 111t-118 39q-73 0 -136.5 -25.5
t-133.5 -81.5l-55 70q84 68 164.5 98.5t173.5 30.5q75 0 124.5 -20.5t75 -55t30.5 -83t-5 -105.5l-55 -315q-11 -60 -14 -102t7 -89h-116q-4 27 -5.5 51.5t3.5 50.5q-72 -55 -144.5 -86.5t-132.5 -31.5z" />
    <glyph glyph-name="guillemotleft" unicode="&#xab;" horiz-adv-x="1069" 
d="M670 0l-211 541l401 538h146l-396 -538l205 -541h-145zM262 0l-209 541l402 538h145l-393 -538l203 -541h-148z" />
    <glyph glyph-name="logicalnot" unicode="&#xac;" horiz-adv-x="1292" 
d="M1157 164h-121v461h-901v116h1022v-577z" />
    <glyph glyph-name="registered" unicode="&#xae;" horiz-adv-x="920" 
d="M528 892q-69 0 -129 25.5t-104.5 69.5t-69.5 104.5t-25 129.5t25.5 128.5t70 103.5t104.5 69.5t130 25.5q69 0 128.5 -25t103.5 -69t69 -103.5t25 -128.5t-25.5 -129.5t-69.5 -105t-104 -70t-129 -25.5zM530 943q57 0 106.5 21.5t86.5 59t58 88.5t21 109t-21.5 108.5
t-58.5 88t-87 59t-107 21.5q-58 0 -108.5 -21.5t-87.5 -59t-58 -87.5t-21 -108t21 -109t58.5 -88.5t88 -59.5t109.5 -22zM407 1405h134q66 0 101 -27.5t35 -81.5q0 -45 -23.5 -71t-63.5 -37q10 -15 22 -35t25 -42t25 -42t22 -35h-69l-89 147h-58v-147h-61v371zM537 1234
q37 0 58.5 14t21.5 46q0 55 -78 55h-71v-115h69z" />
    <glyph glyph-name="macron" unicode="&#xaf;" horiz-adv-x="1006" 
d="M332 1194l20 121h502l-20 -121h-502z" />
    <glyph glyph-name="degree" unicode="&#xb0;" horiz-adv-x="807" 
d="M469 1063q37 0 74 15.5t66.5 44t47 69.5t17.5 94q0 72 -43 119t-115 47q-39 0 -76 -14.5t-65.5 -43t-46 -70.5t-17.5 -95q0 -72 43 -119t115 -47zM465 971q-121 0 -189.5 73.5t-68.5 180.5q0 75 28.5 134.5t72.5 100.5t100.5 62.5t111.5 21.5q60 0 108 -19.5t81.5 -54
t52 -81t18.5 -97.5q0 -75 -28.5 -134.5t-73.5 -101.5t-101.5 -63.5t-111.5 -21.5z" />
    <glyph glyph-name="plusminus" unicode="&#xb1;" horiz-adv-x="1305" 
d="M135 221h457v445h-457v120h457v461h125v-461h454v-120h-454v-445h454v-119h-1036v119z" />
    <glyph glyph-name="two.sups" unicode="&#xb2;" horiz-adv-x="913" 
d="M115 610q18 113 71.5 186.5t122 125t143 87t136 73.5t101.5 85t40 121q0 58 -37 97.5t-110 39.5q-68 0 -126.5 -30.5t-117.5 -116.5l-88 61q72 109 162 153t184 44q129 0 194.5 -68.5t65.5 -171.5q0 -88 -38 -146t-96 -102t-129 -79t-136.5 -74t-119.5 -88t-77 -123h490
l-17 -113h-624z" />
    <glyph glyph-name="three.sups" unicode="&#xb3;" horiz-adv-x="913" 
d="M438 553q-239 0 -321 199l98 57q37 -86 96.5 -115.5t137.5 -29.5q98 0 160.5 51t62.5 143q2 76 -50.5 121t-172.5 45h-74l16 98h82q123 0 190.5 38t67.5 134q0 54 -37 92.5t-127 38.5q-123 0 -227 -102l-68 74q74 73 153 106t165 33q72 0 123 -19.5t82.5 -50t47 -70.5
t15.5 -83q0 -92 -52 -153.5t-149 -90.5q74 -25 109 -77t35 -120q0 -71 -26.5 -130.5t-75 -101.5t-115 -64.5t-146.5 -22.5z" />
    <glyph glyph-name="acute" unicode="&#xb4;" horiz-adv-x="1006" 
d="M442 1194l232 319h186l-325 -319h-93z" />
    <glyph glyph-name="mu" unicode="&#xb5;" horiz-adv-x="1174" 
d="M-41 -410l260 1489h141l-131 -745q-20 -115 23 -175.5t170 -60.5q90 0 181 51.5t183 135.5l140 794h141l-190 -1079h-142l31 172q-35 -35 -79 -69.5t-95 -61.5t-104.5 -43t-106.5 -16q-70 0 -123 22.5t-72 69.5l-86 -484h-141z" />
    <glyph glyph-name="paragraph" unicode="&#xb6;" horiz-adv-x="1251" 
d="M414 -410l192 1100q-196 12 -314 107.5t-118 259.5q0 106 38 192t105.5 144.5t161.5 90.5t205 32h506l-338 -1926h-123l320 1805h-195l-319 -1805h-121z" />
    <glyph glyph-name="periodcentered" unicode="&#xb7;" horiz-adv-x="551" 
d="M150 555l34 193h181l-35 -193h-180z" />
    <glyph glyph-name="cedilla" unicode="&#xb8;" horiz-adv-x="1006" 
d="M328 -399q-86 0 -146.5 20.5t-107.5 54.5l49 60q41 -31 85 -46.5t109 -15.5q144 0 144 107q0 29 -18.5 46t-55.5 17q-22 0 -49 -11t-49 -30l-51 27l81 170h87l-52 -113q37 31 97 31q53 0 88.5 -34t35.5 -91t-22.5 -95t-58 -59.5t-79.5 -29.5t-87 -8z" />
    <glyph glyph-name="one.sups" unicode="&#xb9;" horiz-adv-x="715" 
d="M150 678h174l125 708q-39 -16 -85.5 -25t-91.5 -9l17 104q63 2 110 15.5t82 44.5h113l-145 -838h155l-18 -109h-455z" />
    <glyph glyph-name="ordmasculine" unicode="&#xba;" horiz-adv-x="862" 
d="M467 850q55 0 104.5 26.5t86 73.5t58 115t21.5 152q0 47 -11 89t-35.5 74.5t-62.5 51t-93 18.5q-56 0 -105 -26.5t-86 -75t-58.5 -115t-21.5 -148.5q0 -47 11.5 -90t36 -75.5t62.5 -51t93 -18.5zM463 756q-144 0 -227.5 87t-83.5 234q0 121 36.5 209t93 144.5t124 84
t131.5 27.5q145 0 230 -87t85 -236q0 -121 -37 -208t-94 -143.5t-126 -84t-132 -27.5z" />
    <glyph glyph-name="guillemotright" unicode="&#xbb;" horiz-adv-x="1069" 
d="M393 0l391 541l-200 538h147l207 -538l-399 -541h-146zM-14 0l395 541l-203 538h146l208 -538l-399 -541h-147z" />
    <glyph glyph-name="onequarter" unicode="&#xbc;" horiz-adv-x="1915" 
d="M166 569l18 111h172l125 696q-39 -14 -84 -22t-92 -8l21 110q65 2 111 15.5t81 44.5h111l-148 -836h156l-19 -111h-452zM326 0l1173 1516h139l-1173 -1516h-139zM1147 338h291l78 442zM1376 0l41 227h-436l14 82l535 639h133l-107 -610h154l-18 -111h-154l-41 -227h-121z
" />
    <glyph glyph-name="onehalf" unicode="&#xbd;" horiz-adv-x="1995" 
d="M166 569l18 111h172l125 696q-39 -14 -84 -22t-92 -8l21 110q65 2 111 15.5t81 44.5h111l-148 -836h156l-19 -111h-452zM326 0l1173 1516h139l-1173 -1516h-139zM1083 0l7 41q18 109 70 180.5t121 120.5t143.5 84t137 74t103.5 87t41 124q0 59 -39 101t-123 42
q-57 0 -116.5 -36t-114.5 -113l-90 61q75 104 164.5 151.5t175.5 47.5q135 0 201.5 -71t66.5 -171q0 -94 -39 -156.5t-98.5 -108.5t-130 -81t-136 -72t-116.5 -82t-70 -110h485l-18 -113h-625z" />
    <glyph glyph-name="threequarters" unicode="&#xbe;" horiz-adv-x="1970" 
d="M1202 338h291l84 442zM383 0l1173 1516h140l-1174 -1516h-139zM453 553q-72 0 -126.5 19.5t-95.5 51t-69.5 73.5t-48.5 87l102 47q41 -86 98.5 -126.5t143.5 -40.5q92 0 152.5 50t60.5 148q0 74 -53.5 118t-174.5 44h-69l16 98h96q111 0 177.5 37t66.5 135q0 54 -39 92.5
t-133 38.5q-49 0 -107.5 -23.5t-115.5 -78.5l-74 72q76 75 157 108t158 33q76 0 129.5 -18.5t87 -50t49 -71.5t15.5 -83q0 -99 -52 -157t-149 -87q74 -25 109 -77t35 -120q0 -73 -28 -132.5t-76 -100.5t-110.5 -63.5t-131.5 -22.5zM1432 0l41 227h-439l17 82l534 639h133
l-106 -610h153l-18 -111h-154l-41 -227h-120z" />
    <glyph glyph-name="questiondown" unicode="&#xbf;" horiz-adv-x="1083" 
d="M612 1325l33 191h176l-33 -191h-176zM455 -29q-109 0 -189 28t-132 75t-78.5 109.5t-26.5 133.5q0 93 25.5 154t66.5 104t93 74t108 60q86 45 136 77.5t77.5 72.5t41 96.5t27.5 148.5h115q-4 -62 -10.5 -108t-16.5 -87q-14 -59 -38.5 -101t-61.5 -74t-87 -59.5
t-114 -60.5q-43 -22 -83 -44.5t-69.5 -54.5t-47 -76t-17.5 -107q0 -101 69.5 -166.5t223.5 -65.5q104 0 188 40t170 134l90 -81q-96 -111 -213.5 -166.5t-246.5 -55.5z" />
    <glyph glyph-name="Agrave" unicode="&#xc0;" horiz-adv-x="1358" 
d="M-59 0l794 1522h158l258 -1522h-145l-76 473h-596l-244 -473h-149zM397 600h512l-121 750h-4zM788 1618l-278 319h186l185 -319h-93z" />
    <glyph glyph-name="Aacute" unicode="&#xc1;" horiz-adv-x="1358" 
d="M-59 0l794 1522h158l258 -1522h-145l-76 473h-596l-244 -473h-149zM397 600h512l-121 750h-4zM768 1618l231 319h187l-326 -319h-92z" />
    <glyph glyph-name="Acircumflex" unicode="&#xc2;" horiz-adv-x="1358" 
d="M-59 0l794 1522h158l258 -1522h-145l-76 473h-596l-244 -473h-149zM397 600h512l-121 750h-4zM516 1612l313 325h107l199 -325h-91l-186 200l-256 -200h-86z" />
    <glyph glyph-name="Atilde" unicode="&#xc3;" horiz-adv-x="1358" 
d="M-59 0l794 1522h158l258 -1522h-145l-76 473h-596l-244 -473h-149zM397 600h512l-121 750h-4zM985 1612q-39 0 -77 17.5t-73.5 39t-67.5 39.5t-58 18q-45 0 -69 -25.5t-34 -84.5h-96q16 117 65.5 171t135.5 54q41 0 79.5 -18.5t73.5 -40t66 -39t55 -17.5q47 0 70.5 26
t34.5 85h98q-39 -225 -203 -225z" />
    <glyph glyph-name="Adieresis" unicode="&#xc4;" horiz-adv-x="1358" 
d="M-59 0l794 1522h158l258 -1522h-145l-76 473h-596l-244 -473h-149zM397 600h512l-121 750h-4zM918 1618l28 168h160l-29 -168h-159zM575 1618l29 168h158l-29 -168h-158z" />
    <glyph glyph-name="Aring" unicode="&#xc5;" horiz-adv-x="1358" 
d="M-59 0l774 1487q-31 20 -46.5 55t-15.5 76q0 47 16.5 86t44 65.5t64.5 41t76 14.5q80 0 122 -48t42 -114q0 -72 -35 -119t-82 -69l250 -1475h-143l-78 477h-594l-246 -477h-149zM397 596h514l-123 754h-4zM821 1524q47 0 82 34.5t35 98.5q0 41 -22.5 68.5t-67.5 27.5
q-47 0 -81 -36t-34 -97q0 -41 21.5 -68.5t66.5 -27.5z" />
    <glyph glyph-name="AE" unicode="&#xc6;" horiz-adv-x="2019" 
d="M528 614h445l139 785h-2zM-84 0l1128 1516h971l-24 -136h-740l-90 -514h547l-22 -131h-547l-107 -602h785l-25 -133h-928l86 487h-516l-364 -487h-154z" />
    <glyph glyph-name="Ccedilla" unicode="&#xc7;" horiz-adv-x="1411" 
d="M528 -399q-86 0 -146 20.5t-108 54.5l50 60q41 -31 85 -46.5t109 -15.5q144 0 144 107q0 29 -18.5 46t-55.5 17q-23 0 -49.5 -11t-49.5 -30l-51 27l74 156q-100 20 -176 73.5t-128 133t-79 183t-27 224.5q0 211 59.5 384t159 298t230.5 193.5t276 68.5q129 0 221.5 -32.5
t153 -94t93 -150.5t40.5 -200l-143 -12q-6 88 -28.5 154.5t-66.5 111.5t-113 67.5t-167 22.5q-110 0 -213.5 -56.5t-182.5 -162t-126 -256t-47 -338.5q0 -227 103.5 -361.5t297.5 -134.5q82 0 150.5 20.5t126 67t106.5 119t92 176.5l127 -47q-92 -229 -241.5 -348
t-366.5 -119q-12 0 -24.5 1t-24.5 1l-39 -86q37 31 96 31q54 0 89.5 -34t35.5 -91t-22.5 -95t-58.5 -59.5t-80 -29.5t-87 -8z" />
    <glyph glyph-name="Egrave" unicode="&#xc8;" horiz-adv-x="1217" 
d="M61 0l267 1516h884l-24 -136h-739l-91 -514h547l-22 -131h-547l-107 -602h783l-23 -133h-928zM723 1618l-279 319h187l184 -319h-92z" />
    <glyph glyph-name="Eacute" unicode="&#xc9;" horiz-adv-x="1217" 
d="M618 1618l232 319h186l-325 -319h-93zM61 0l267 1516h884l-24 -136h-739l-91 -514h547l-22 -131h-547l-107 -602h783l-23 -133h-928z" />
    <glyph glyph-name="Ecircumflex" unicode="&#xca;" horiz-adv-x="1217" 
d="M449 1612l313 325h106l199 -325h-90l-186 200l-256 -200h-86zM61 0l267 1516h884l-24 -136h-739l-91 -514h547l-22 -131h-547l-107 -602h783l-23 -133h-928z" />
    <glyph glyph-name="Edieresis" unicode="&#xcb;" horiz-adv-x="1217" 
d="M850 1618l29 168h159l-28 -168h-160zM508 1618l29 168h157l-28 -168h-158zM61 0l267 1516h884l-24 -136h-739l-91 -514h547l-22 -131h-547l-107 -602h783l-23 -133h-928z" />
    <glyph glyph-name="Igrave" unicode="&#xcc;" horiz-adv-x="575" 
d="M82 0l266 1516h146l-267 -1516h-145zM403 1618l-278 319h186l185 -319h-93z" />
    <glyph glyph-name="Iacute" unicode="&#xcd;" horiz-adv-x="575" 
d="M82 0l266 1516h146l-267 -1516h-145zM371 1618l231 319h186l-325 -319h-92z" />
    <glyph glyph-name="Icircumflex" unicode="&#xce;" horiz-adv-x="575" 
d="M82 0l266 1516h146l-267 -1516h-145zM129 1612l313 325h107l199 -325h-91l-186 200l-256 -200h-86z" />
    <glyph glyph-name="Idieresis" unicode="&#xcf;" horiz-adv-x="575" 
d="M82 0l266 1516h146l-267 -1516h-145zM530 1618l29 168h160l-29 -168h-160zM188 1618l29 168h158l-29 -168h-158z" />
    <glyph glyph-name="Eth" unicode="&#xd0;" horiz-adv-x="1432" 
d="M61 0l129 737h-170l23 123h168l117 656h317q344 0 515 -164t171 -451q0 -440 -223 -670.5t-641 -230.5h-406zM229 131h265q331 0 510.5 190.5t179.5 569.5q0 237 -133 363t-408 126h-194l-93 -520h328l-20 -123h-328z" />
    <glyph glyph-name="Ntilde" unicode="&#xd1;" horiz-adv-x="1501" 
d="M61 0l267 1516h155l594 -1260h4l222 1260h137l-266 -1516h-130l-614 1298h-4l-227 -1298h-138zM1057 1612q-39 0 -77 17.5t-74 39t-67.5 39.5t-58.5 18q-45 0 -68.5 -25.5t-33.5 -84.5h-96q16 117 65 171t135 54q41 0 80 -18.5t74 -40t65.5 -39t55.5 -17.5q47 0 70.5 26
t33.5 85h99q-39 -225 -203 -225z" />
    <glyph glyph-name="Ograve" unicode="&#xd2;" horiz-adv-x="1499" 
d="M653 102q113 0 220.5 50.5t191.5 152t135 252t51 352.5q0 115 -27.5 208t-79.5 158.5t-127 100.5t-171 35q-109 0 -215.5 -50t-191.5 -149.5t-138 -250t-53 -353.5q0 -116 27.5 -209.5t80 -159t127 -101.5t170.5 -36zM643 -29q-127 0 -227.5 47.5t-170 132.5
t-106.5 202.5t-37 256.5q0 221 64.5 395.5t171 294t243 182t281.5 62.5q125 0 224.5 -47t168 -131t105.5 -200.5t37 -258.5q0 -221 -62.5 -395t-167 -294t-240.5 -183.5t-284 -63.5zM864 1618l-278 319h186l184 -319h-92z" />
    <glyph glyph-name="Oacute" unicode="&#xd3;" horiz-adv-x="1499" 
d="M760 1618l231 319h187l-326 -319h-92zM653 102q113 0 220.5 50.5t191.5 152t135 252t51 352.5q0 115 -27.5 208t-79.5 158.5t-127 100.5t-171 35q-109 0 -215.5 -50t-191.5 -149.5t-138 -250t-53 -353.5q0 -116 27.5 -209.5t80 -159t127 -101.5t170.5 -36zM643 -29
q-127 0 -227.5 47.5t-170 132.5t-106.5 202.5t-37 256.5q0 221 64.5 395.5t171 294t243 182t281.5 62.5q125 0 224.5 -47t168 -131t105.5 -200.5t37 -258.5q0 -221 -62.5 -395t-167 -294t-240.5 -183.5t-284 -63.5z" />
    <glyph glyph-name="Ocircumflex" unicode="&#xd4;" horiz-adv-x="1499" 
d="M588 1612l313 325h107l198 -325h-90l-186 200l-256 -200h-86zM653 102q113 0 220.5 50.5t191.5 152t135 252t51 352.5q0 115 -27.5 208t-79.5 158.5t-127 100.5t-171 35q-109 0 -215.5 -50t-191.5 -149.5t-138 -250t-53 -353.5q0 -116 27.5 -209.5t80 -159t127 -101.5
t170.5 -36zM643 -29q-127 0 -227.5 47.5t-170 132.5t-106.5 202.5t-37 256.5q0 221 64.5 395.5t171 294t243 182t281.5 62.5q125 0 224.5 -47t168 -131t105.5 -200.5t37 -258.5q0 -221 -62.5 -395t-167 -294t-240.5 -183.5t-284 -63.5z" />
    <glyph glyph-name="Otilde" unicode="&#xd5;" horiz-adv-x="1499" 
d="M653 102q113 0 220.5 50.5t191.5 152t135 252t51 352.5q0 115 -27.5 208t-79.5 158.5t-127 100.5t-171 35q-109 0 -215.5 -50t-191.5 -149.5t-138 -250t-53 -353.5q0 -116 27.5 -209.5t80 -159t127 -101.5t170.5 -36zM643 -29q-127 0 -227.5 47.5t-170 132.5
t-106.5 202.5t-37 256.5q0 221 64.5 395.5t171 294t243 182t281.5 62.5q125 0 224.5 -47t168 -131t105.5 -200.5t37 -258.5q0 -221 -62.5 -395t-167 -294t-240.5 -183.5t-284 -63.5zM1057 1612q-39 0 -77 17.5t-74 39t-67.5 39.5t-58.5 18q-45 0 -68.5 -25.5t-33.5 -84.5
h-96q16 117 65 171t135 54q41 0 80 -18.5t74 -40t65.5 -39t55.5 -17.5q47 0 70.5 26t33.5 85h99q-39 -225 -203 -225z" />
    <glyph glyph-name="Odieresis" unicode="&#xd6;" horiz-adv-x="1499" 
d="M989 1618l29 168h160l-29 -168h-160zM647 1618l29 168h158l-29 -168h-158zM653 102q113 0 220.5 50.5t191.5 152t135 252t51 352.5q0 115 -27.5 208t-79.5 158.5t-127 100.5t-171 35q-109 0 -215.5 -50t-191.5 -149.5t-138 -250t-53 -353.5q0 -116 27.5 -209.5t80 -159
t127 -101.5t170.5 -36zM643 -29q-127 0 -227.5 47.5t-170 132.5t-106.5 202.5t-37 256.5q0 221 64.5 395.5t171 294t243 182t281.5 62.5q125 0 224.5 -47t168 -131t105.5 -200.5t37 -258.5q0 -221 -62.5 -395t-167 -294t-240.5 -183.5t-284 -63.5z" />
    <glyph glyph-name="multiply" unicode="&#xd7;" horiz-adv-x="1303" 
d="M283 213l-84 84l350 350l-350 354l84 84l352 -354l352 354l84 -84l-352 -352l352 -352l-84 -84l-352 352z" />
    <glyph glyph-name="Oslash" unicode="&#xd8;" horiz-adv-x="1499" 
d="M643 -29q-127 0 -225.5 46t-169.5 130l-172 -184l-76 62l193 204q-91 158 -91 381q0 221 64.5 395.5t171 294t243 182t281.5 62.5q123 0 221.5 -46t167.5 -130l172 184l74 -59l-190 -205q90 -155 90 -381q0 -221 -63.5 -395t-169 -294t-242 -183.5t-279.5 -63.5zM655 100
q109 0 215.5 50.5t191.5 151.5t137 253t52 354q0 78 -13 146.5t-36 126.5l-862 -928q53 -74 132 -114t183 -40zM846 1415q-109 0 -215.5 -50t-191.5 -151.5t-138 -252t-53 -353.5q0 -164 49 -276l860 932q-53 71 -130 111t-181 40z" />
    <glyph glyph-name="Ugrave" unicode="&#xd9;" horiz-adv-x="1444" 
d="M629 -29q-158 0 -260.5 48.5t-158.5 129t-69.5 187t6.5 223.5l166 957h146l-166 -963q-17 -92 -9.5 -174t46.5 -143.5t111.5 -96.5t187.5 -35q196 0 302.5 95.5t139.5 285.5l180 1031h146l-187 -1057q-41 -236 -188.5 -362t-392.5 -126zM838 1618l-279 319h186l185 -319
h-92z" />
    <glyph glyph-name="Uacute" unicode="&#xda;" horiz-adv-x="1444" 
d="M733 1618l232 319h186l-326 -319h-92zM629 -29q-158 0 -260.5 48.5t-158.5 129t-69.5 187t6.5 223.5l166 957h146l-166 -963q-17 -92 -9.5 -174t46.5 -143.5t111.5 -96.5t187.5 -35q196 0 302.5 95.5t139.5 285.5l180 1031h146l-187 -1057q-41 -236 -188.5 -362
t-392.5 -126z" />
    <glyph glyph-name="Ucircumflex" unicode="&#xdb;" horiz-adv-x="1444" 
d="M559 1612l313 325h107l199 -325h-91l-186 200l-256 -200h-86zM629 -29q-158 0 -260.5 48.5t-158.5 129t-69.5 187t6.5 223.5l166 957h146l-166 -963q-17 -92 -9.5 -174t46.5 -143.5t111.5 -96.5t187.5 -35q196 0 302.5 95.5t139.5 285.5l180 1031h146l-187 -1057
q-41 -236 -188.5 -362t-392.5 -126z" />
    <glyph glyph-name="Udieresis" unicode="&#xdc;" horiz-adv-x="1444" 
d="M963 1618l28 168h160l-29 -168h-159zM621 1618l28 168h158l-29 -168h-157zM629 -29q-158 0 -260.5 48.5t-158.5 129t-69.5 187t6.5 223.5l166 957h146l-166 -963q-17 -92 -9.5 -174t46.5 -143.5t111.5 -96.5t187.5 -35q196 0 302.5 95.5t139.5 285.5l180 1031h146
l-187 -1057q-41 -236 -188.5 -362t-392.5 -126z" />
    <glyph glyph-name="Yacute" unicode="&#xdd;" horiz-adv-x="1245" 
d="M416 0l116 668l-348 848h150l291 -723l540 723h162l-649 -848l-117 -668h-145zM633 1618l231 319h187l-326 -319h-92z" />
    <glyph glyph-name="Thorn" unicode="&#xde;" horiz-adv-x="1305" 
d="M297 512h371q82 0 156.5 13.5t131 50t89 101t32.5 167.5q0 123 -98 186.5t-309 63.5h-271zM61 0l267 1516h145l-49 -287h272q265 0 399 -101.5t134 -275.5q0 -139 -50.5 -229.5t-131 -144.5t-182 -75.5t-203.5 -21.5h-388l-67 -381h-146z" />
    <glyph glyph-name="germandbls" unicode="&#xdf;" horiz-adv-x="1235" 
d="M645 -23q-119 0 -195.5 31t-130.5 80l82 92q48 -41 104 -63.5t142 -22.5q135 0 215 88t80 254q0 68 -23.5 130.5t-72.5 110.5t-125 76.5t-180 30.5l18 111q199 4 288 81t89 208q0 94 -63.5 152.5t-194.5 58.5q-127 0 -207 -78t-113 -252l-186 -1065h-141l190 1081
q39 228 163 331.5t300 103.5q193 0 293 -87.5t100 -228.5q0 -147 -81 -232t-230 -122q70 -12 128 -48t100 -89.5t65.5 -122t23.5 -148.5q0 -121 -36.5 -208t-98 -143t-140.5 -83t-163 -27z" />
    <glyph glyph-name="agrave" unicode="&#xe0;" horiz-adv-x="1118" 
d="M340 98q98 0 199.5 45t199.5 125l58 328q-197 -21 -322 -55.5t-197.5 -80.5t-100 -100.5t-27.5 -111.5q0 -70 48 -110t142 -40zM299 -18q-143 0 -218 66.5t-75 172.5q0 90 43 170t138.5 141.5t250 104.5t377.5 59l10 56q23 110 -25 169.5t-179 59.5q-56 0 -111 -13.5
t-106.5 -34t-95.5 -48t-75 -54.5l-71 93q39 32 89 64t109.5 56.5t129 40t149.5 15.5q104 0 173 -26.5t106.5 -76t48 -117t-3.5 -147.5l-82 -467q-9 -45 -14 -78.5t-7 -64.5t-1 -59.5t5 -63.5h-147q-4 41 -4 76t8 78q-109 -86 -216.5 -129t-205.5 -43zM602 1194l-278 319h186
l184 -319h-92z" />
    <glyph glyph-name="aacute" unicode="&#xe1;" horiz-adv-x="1118" 
d="M340 98q98 0 199.5 45t199.5 125l58 328q-197 -21 -322 -55.5t-197.5 -80.5t-100 -100.5t-27.5 -111.5q0 -70 48 -110t142 -40zM299 -18q-143 0 -218 66.5t-75 172.5q0 90 43 170t138.5 141.5t250 104.5t377.5 59l10 56q23 110 -25 169.5t-179 59.5q-56 0 -111 -13.5
t-106.5 -34t-95.5 -48t-75 -54.5l-71 93q39 32 89 64t109.5 56.5t129 40t149.5 15.5q104 0 173 -26.5t106.5 -76t48 -117t-3.5 -147.5l-82 -467q-9 -45 -14 -78.5t-7 -64.5t-1 -59.5t5 -63.5h-147q-4 41 -4 76t8 78q-109 -86 -216.5 -129t-205.5 -43zM496 1194l231 319h186
l-325 -319h-92z" />
    <glyph glyph-name="acircumflex" unicode="&#xe2;" horiz-adv-x="1118" 
d="M340 98q98 0 199.5 45t199.5 125l58 328q-197 -21 -322 -55.5t-197.5 -80.5t-100 -100.5t-27.5 -111.5q0 -70 48 -110t142 -40zM299 -18q-143 0 -218 66.5t-75 172.5q0 90 43 170t138.5 141.5t250 104.5t377.5 59l10 56q23 110 -25 169.5t-179 59.5q-56 0 -111 -13.5
t-106.5 -34t-95.5 -48t-75 -54.5l-71 93q39 32 89 64t109.5 56.5t129 40t149.5 15.5q104 0 173 -26.5t106.5 -76t48 -117t-3.5 -147.5l-82 -467q-9 -45 -14 -78.5t-7 -64.5t-1 -59.5t5 -63.5h-147q-4 41 -4 76t8 78q-109 -86 -216.5 -129t-205.5 -43zM324 1188l313 325h106
l199 -325h-90l-186 201l-256 -201h-86z" />
    <glyph glyph-name="atilde" unicode="&#xe3;" horiz-adv-x="1118" 
d="M340 98q98 0 199.5 45t199.5 125l58 328q-197 -21 -322 -55.5t-197.5 -80.5t-100 -100.5t-27.5 -111.5q0 -70 48 -110t142 -40zM299 -18q-143 0 -218 66.5t-75 172.5q0 90 43 170t138.5 141.5t250 104.5t377.5 59l10 56q23 110 -25 169.5t-179 59.5q-56 0 -111 -13.5
t-106.5 -34t-95.5 -48t-75 -54.5l-71 93q39 32 89 64t109.5 56.5t129 40t149.5 15.5q104 0 173 -26.5t106.5 -76t48 -117t-3.5 -147.5l-82 -467q-9 -45 -14 -78.5t-7 -64.5t-1 -59.5t5 -63.5h-147q-4 41 -4 76t8 78q-109 -86 -216.5 -129t-205.5 -43zM793 1188
q-39 0 -77 17.5t-74 39t-67.5 40t-58.5 18.5q-45 0 -68.5 -26t-33.5 -85h-97q17 117 66 171t135 54q41 0 80 -18.5t74 -40t65.5 -38.5t55.5 -17q47 0 70.5 25.5t33.5 84.5h98q-39 -225 -202 -225z" />
    <glyph glyph-name="adieresis" unicode="&#xe4;" horiz-adv-x="1118" 
d="M340 98q98 0 199.5 45t199.5 125l58 328q-197 -21 -322 -55.5t-197.5 -80.5t-100 -100.5t-27.5 -111.5q0 -70 48 -110t142 -40zM299 -18q-143 0 -218 66.5t-75 172.5q0 90 43 170t138.5 141.5t250 104.5t377.5 59l10 56q23 110 -25 169.5t-179 59.5q-56 0 -111 -13.5
t-106.5 -34t-95.5 -48t-75 -54.5l-71 93q39 32 89 64t109.5 56.5t129 40t149.5 15.5q104 0 173 -26.5t106.5 -76t48 -117t-3.5 -147.5l-82 -467q-9 -45 -14 -78.5t-7 -64.5t-1 -59.5t5 -63.5h-147q-4 41 -4 76t8 78q-109 -86 -216.5 -129t-205.5 -43zM727 1194l29 168h159
l-28 -168h-160zM385 1194l29 168h157l-28 -168h-158z" />
    <glyph glyph-name="aring" unicode="&#xe5;" horiz-adv-x="1118" 
d="M340 98q98 0 199.5 45t199.5 125l58 328q-197 -21 -322 -55.5t-197.5 -80.5t-100 -100.5t-27.5 -111.5q0 -70 48 -110t142 -40zM299 -18q-143 0 -218 66.5t-75 172.5q0 90 43 170t138.5 141.5t250 104.5t377.5 59l10 56q23 110 -25 169.5t-179 59.5q-56 0 -111 -13.5
t-106.5 -34t-95.5 -48t-75 -54.5l-71 93q39 32 89 64t109.5 56.5t129 40t149.5 15.5q104 0 173 -26.5t106.5 -76t48 -117t-3.5 -147.5l-82 -467q-9 -45 -14 -78.5t-7 -64.5t-1 -59.5t5 -63.5h-147q-4 41 -4 76t8 78q-109 -86 -216.5 -129t-205.5 -43zM651 1251q47 0 82 35
t35 98q0 41 -22.5 69t-67.5 28q-47 0 -81 -36t-34 -97q0 -41 21.5 -69t66.5 -28zM647 1180q-80 0 -122 48t-42 118q0 47 16.5 85.5t44 65.5t64.5 41t76 14q80 0 122 -48t42 -113q0 -50 -17.5 -88.5t-45 -66.5t-64.5 -42t-74 -14z" />
    <glyph glyph-name="ae" unicode="&#xe6;" horiz-adv-x="1825" 
d="M299 -18q-143 0 -218 66.5t-75 172.5q0 90 43 170t138.5 141.5t250 104.5t377.5 59l10 56q23 110 -24 169.5t-180 59.5q-56 0 -111 -13.5t-106.5 -34t-95.5 -48t-75 -54.5l-71 93q39 32 89 64t109.5 56.5t129 40t149.5 15.5q143 0 214 -51.5t89 -137.5q86 99 190.5 144
t190.5 45q119 0 199 -44t123 -121t51 -178.5t-13 -217.5l-4 -27h-761q-3 -18 -3 -38v-40q0 -96 28 -161.5t70 -104.5t92 -55.5t97 -16.5q123 0 202 55.5t138 143.5l100 -68q-77 -114 -188 -182t-268 -68q-129 0 -222.5 60.5t-140.5 173.5q-47 -39 -108.5 -80t-130 -73.5
t-142 -54t-143.5 -21.5zM784 432q0 86 13 164q-193 -18 -318 -54t-198.5 -82t-102 -100.5t-28.5 -111.5q0 -70 48 -110t142 -40q47 0 104.5 15.5t117 43t119.5 66.5t114 86q-4 29 -7.5 58.5t-3.5 64.5zM1561 625q8 69 1.5 133.5t-35 114t-81.5 79t-135 29.5
q-60 0 -117 -22.5t-107.5 -66.5t-90.5 -111.5t-60 -155.5h625z" />
    <glyph glyph-name="ccedilla" unicode="&#xe7;" horiz-adv-x="1067" 
d="M356 -399q-86 0 -146 20.5t-108 54.5l50 60q41 -31 85 -46.5t109 -15.5q143 0 143 107q0 29 -18 46t-55 17q-23 0 -49.5 -11t-49.5 -30l-51 27l78 162q-135 35 -214 152.5t-79 297.5q0 181 54.5 305.5t135.5 203.5t177 114t182 35q96 0 162.5 -23.5t111 -64.5t70 -95.5
t41.5 -117.5l-129 -29q-29 111 -89 161t-177 50q-78 0 -149.5 -35t-127 -102.5t-88 -169t-32.5 -234.5q0 -159 71.5 -251.5t202.5 -92.5q55 0 99 12.5t82 40t72 70.5t71 105l108 -52q-68 -137 -171 -216t-273 -79q-21 0 -31 3l-41 -93q37 31 96 31q53 0 89 -34t36 -91
t-22.5 -95t-58.5 -59.5t-80 -29.5t-87 -8z" />
    <glyph glyph-name="egrave" unicode="&#xe8;" horiz-adv-x="1098" 
d="M459 -23q-90 0 -166 32t-129 90.5t-83 142.5t-30 190q0 184 56.5 311t139.5 207t177 115t172 35q119 0 198.5 -44t123 -121t52.5 -178.5t-12 -217.5l-4 -27h-761q-3 -18 -3 -38v-40q0 -96 28 -161.5t70 -104.5t92 -55.5t97 -16.5q123 0 202 55.5t138 143.5l101 -68
q-78 -114 -189 -182t-270 -68zM836 625q8 69 0.5 133.5t-37 114t-81.5 79t-134 29.5q-60 0 -117 -22.5t-106.5 -66.5t-89.5 -111.5t-60 -155.5h625zM592 1194l-279 319h187l184 -319h-92z" />
    <glyph glyph-name="eacute" unicode="&#xe9;" horiz-adv-x="1098" 
d="M459 -23q-90 0 -166 32t-129 90.5t-83 142.5t-30 190q0 184 56.5 311t139.5 207t177 115t172 35q119 0 198.5 -44t123 -121t52.5 -178.5t-12 -217.5l-4 -27h-761q-3 -18 -3 -38v-40q0 -96 28 -161.5t70 -104.5t92 -55.5t97 -16.5q123 0 202 55.5t138 143.5l101 -68
q-78 -114 -189 -182t-270 -68zM836 625q8 69 0.5 133.5t-37 114t-81.5 79t-134 29.5q-60 0 -117 -22.5t-106.5 -66.5t-89.5 -111.5t-60 -155.5h625zM485 1194l232 319h186l-325 -319h-93z" />
    <glyph glyph-name="ecircumflex" unicode="&#xea;" horiz-adv-x="1098" 
d="M459 -23q-90 0 -166 32t-129 90.5t-83 142.5t-30 190q0 184 56.5 311t139.5 207t177 115t172 35q119 0 198.5 -44t123 -121t52.5 -178.5t-12 -217.5l-4 -27h-761q-3 -18 -3 -38v-40q0 -96 28 -161.5t70 -104.5t92 -55.5t97 -16.5q123 0 202 55.5t138 143.5l101 -68
q-78 -114 -189 -182t-270 -68zM836 625q8 69 0.5 133.5t-37 114t-81.5 79t-134 29.5q-60 0 -117 -22.5t-106.5 -66.5t-89.5 -111.5t-60 -155.5h625zM313 1188l314 325h106l199 -325h-90l-187 201l-256 -201h-86z" />
    <glyph glyph-name="edieresis" unicode="&#xeb;" horiz-adv-x="1098" 
d="M459 -23q-90 0 -166 32t-129 90.5t-83 142.5t-30 190q0 184 56.5 311t139.5 207t177 115t172 35q119 0 198.5 -44t123 -121t52.5 -178.5t-12 -217.5l-4 -27h-761q-3 -18 -3 -38v-40q0 -96 28 -161.5t70 -104.5t92 -55.5t97 -16.5q123 0 202 55.5t138 143.5l101 -68
q-78 -114 -189 -182t-270 -68zM836 625q8 69 0.5 133.5t-37 114t-81.5 79t-134 29.5q-60 0 -117 -22.5t-106.5 -66.5t-89.5 -111.5t-60 -155.5h625zM717 1194l28 168h160l-28 -168h-160zM375 1194l28 168h158l-29 -168h-157z" />
    <glyph glyph-name="igrave" unicode="&#xec;" horiz-adv-x="492" 
d="M43 0l190 1079h142l-191 -1079h-141zM287 1194l-279 319h187l184 -319h-92z" />
    <glyph glyph-name="iacute" unicode="&#xed;" horiz-adv-x="492" 
d="M262 1194l232 319h186l-326 -319h-92zM43 0l190 1079h142l-191 -1079h-141z" />
    <glyph glyph-name="icircumflex" unicode="&#xee;" horiz-adv-x="492" 
d="M14 1188l314 325h106l199 -325h-90l-187 201l-256 -201h-86zM43 0l190 1079h142l-191 -1079h-141z" />
    <glyph glyph-name="idieresis" unicode="&#xef;" horiz-adv-x="492" 
d="M416 1194l28 168h160l-29 -168h-159zM74 1194l28 168h158l-29 -168h-157zM43 0l190 1079h142l-191 -1079h-141z" />
    <glyph glyph-name="eth" unicode="&#xf0;" horiz-adv-x="1161" 
d="M530 1251l197 70q-35 37 -69.5 65.5t-65.5 51.5l86 92q108 -76 178 -162l225 80l25 -98l-188 -68q71 -115 100 -244t29 -262q0 -205 -44.5 -355.5t-120 -248.5t-178 -146.5t-219.5 -48.5q-102 0 -183 34t-136 93.5t-85 143.5t-30 184q0 164 49.5 283t126 196.5
t169.5 114.5t184 37q135 0 213.5 -51t124.5 -142q-7 117 -41.5 207t-81.5 162l-240 -86zM483 96q82 0 156 34t129 99.5t87 160.5t32 218q0 70 -18.5 132.5t-56.5 107.5t-96.5 71.5t-137.5 26.5q-74 0 -142.5 -33.5t-122 -99t-86 -161t-32.5 -218.5q0 -72 16 -133t52 -107.5
t90.5 -72t129.5 -25.5z" />
    <glyph glyph-name="ntilde" unicode="&#xf1;" horiz-adv-x="1169" 
d="M31 0l190 1079h141l-30 -172q35 37 82 71t100 61.5t109.5 44t109.5 16.5q88 0 149.5 -24.5t95.5 -69.5t43 -107.5t-3 -138.5l-133 -760h-142l129 743q23 115 -20 175.5t-172 60.5q-90 0 -183.5 -51t-185.5 -135l-139 -793h-141zM819 1188q-39 0 -76.5 17.5t-73.5 39
t-68 40t-58 18.5q-45 0 -68.5 -26t-34.5 -85h-96q16 117 65.5 171t135.5 54q41 0 80 -18.5t73.5 -40t65.5 -38.5t55 -17q47 0 70.5 25.5t34.5 84.5h98q-39 -225 -203 -225z" />
    <glyph glyph-name="ograve" unicode="&#xf2;" horiz-adv-x="1161" 
d="M483 96q82 0 156 38t130 107.5t89 169t33 222.5q0 69 -16.5 132.5t-52.5 112t-91 76t-131 27.5q-84 0 -157.5 -38t-129 -108.5t-87 -170t-31.5 -222.5q0 -71 16 -133.5t51 -109.5t89.5 -75t131.5 -28zM473 -23q-96 0 -174 33t-133 93.5t-85 145.5t-30 191q0 168 51.5 292
t131 206t179 122t197.5 40q95 0 172.5 -33t133 -93.5t86 -145.5t30.5 -191q0 -166 -50 -290t-130 -206t-180.5 -123t-198.5 -41zM625 1194l-279 319h186l185 -319h-92z" />
    <glyph glyph-name="oacute" unicode="&#xf3;" horiz-adv-x="1161" 
d="M518 1194l232 319h186l-326 -319h-92zM483 96q82 0 156 38t130 107.5t89 169t33 222.5q0 69 -16.5 132.5t-52.5 112t-91 76t-131 27.5q-84 0 -157.5 -38t-129 -108.5t-87 -170t-31.5 -222.5q0 -71 16 -133.5t51 -109.5t89.5 -75t131.5 -28zM473 -23q-96 0 -174 33
t-133 93.5t-85 145.5t-30 191q0 168 51.5 292t131 206t179 122t197.5 40q95 0 172.5 -33t133 -93.5t86 -145.5t30.5 -191q0 -166 -50 -290t-130 -206t-180.5 -123t-198.5 -41z" />
    <glyph glyph-name="ocircumflex" unicode="&#xf4;" horiz-adv-x="1161" 
d="M348 1188l314 325h106l199 -325h-90l-187 201l-256 -201h-86zM483 96q82 0 156 38t130 107.5t89 169t33 222.5q0 69 -16.5 132.5t-52.5 112t-91 76t-131 27.5q-84 0 -157.5 -38t-129 -108.5t-87 -170t-31.5 -222.5q0 -71 16 -133.5t51 -109.5t89.5 -75t131.5 -28z
M473 -23q-96 0 -174 33t-133 93.5t-85 145.5t-30 191q0 168 51.5 292t131 206t179 122t197.5 40q95 0 172.5 -33t133 -93.5t86 -145.5t30.5 -191q0 -166 -50 -290t-130 -206t-180.5 -123t-198.5 -41z" />
    <glyph glyph-name="otilde" unicode="&#xf5;" horiz-adv-x="1161" 
d="M483 96q82 0 156 38t130 107.5t89 169t33 222.5q0 69 -16.5 132.5t-52.5 112t-91 76t-131 27.5q-84 0 -157.5 -38t-129 -108.5t-87 -170t-31.5 -222.5q0 -71 16 -133.5t51 -109.5t89.5 -75t131.5 -28zM473 -23q-96 0 -174 33t-133 93.5t-85 145.5t-30 191q0 168 51.5 292
t131 206t179 122t197.5 40q95 0 172.5 -33t133 -93.5t86 -145.5t30.5 -191q0 -166 -50 -290t-130 -206t-180.5 -123t-198.5 -41zM815 1188q-39 0 -77 17.5t-73.5 39t-67.5 40t-58 18.5q-45 0 -69 -26t-34 -85h-96q16 117 65.5 171t135.5 54q41 0 79.5 -18.5t73.5 -40
t66 -38.5t55 -17q47 0 70.5 25.5t34.5 84.5h98q-39 -225 -203 -225z" />
    <glyph glyph-name="odieresis" unicode="&#xf6;" horiz-adv-x="1161" 
d="M750 1194l28 168h160l-29 -168h-159zM408 1194l28 168h158l-29 -168h-157zM483 96q82 0 156 38t130 107.5t89 169t33 222.5q0 69 -16.5 132.5t-52.5 112t-91 76t-131 27.5q-84 0 -157.5 -38t-129 -108.5t-87 -170t-31.5 -222.5q0 -71 16 -133.5t51 -109.5t89.5 -75
t131.5 -28zM473 -23q-96 0 -174 33t-133 93.5t-85 145.5t-30 191q0 168 51.5 292t131 206t179 122t197.5 40q95 0 172.5 -33t133 -93.5t86 -145.5t30.5 -191q0 -166 -50 -290t-130 -206t-180.5 -123t-198.5 -41z" />
    <glyph glyph-name="divide" unicode="&#xf7;" horiz-adv-x="1303" 
d="M545 948v176h172v-176h-172zM119 612v123h1034v-123h-1034zM545 221v176h172v-176h-172z" />
    <glyph glyph-name="oslash" unicode="&#xf8;" horiz-adv-x="1161" 
d="M473 -23q-172 0 -283 101l-131 -146l-69 60l143 153q-82 119 -82 295q0 168 51.5 292t131 206t179 122t197.5 40q86 0 157 -26.5t124 -76.5l135 150l70 -62l-144 -157q39 -58 59.5 -131.5t20.5 -159.5q0 -166 -50 -290t-130 -206t-180.5 -123t-198.5 -41zM483 94
q82 0 157 38t131 107.5t89 170t33 223.5q0 53 -9.5 103t-29.5 91l-578 -651q35 -39 85.5 -60.5t121.5 -21.5zM600 983q-84 0 -157.5 -39t-129 -109.5t-87 -170t-31.5 -222.5q0 -55 8 -105t26 -91l578 653q-74 84 -207 84z" />
    <glyph glyph-name="ugrave" unicode="&#xf9;" horiz-adv-x="1165" 
d="M360 -23q-176 0 -242.5 94.5t-39.5 245.5l133 762h141l-131 -745q-20 -115 23 -175.5t170 -60.5q90 0 181 51.5t183 135.5l140 794h141l-191 -1079h-141l31 172q-35 -37 -81 -71.5t-98.5 -62.5t-107.5 -44.5t-111 -16.5zM627 1194l-279 319h187l184 -319h-92z" />
    <glyph glyph-name="uacute" unicode="&#xfa;" horiz-adv-x="1165" 
d="M520 1194l232 319h186l-326 -319h-92zM360 -23q-176 0 -242.5 94.5t-39.5 245.5l133 762h141l-131 -745q-20 -115 23 -175.5t170 -60.5q90 0 181 51.5t183 135.5l140 794h141l-191 -1079h-141l31 172q-35 -37 -81 -71.5t-98.5 -62.5t-107.5 -44.5t-111 -16.5z" />
    <glyph glyph-name="ucircumflex" unicode="&#xfb;" horiz-adv-x="1165" 
d="M348 1188l314 325h106l199 -325h-90l-187 201l-256 -201h-86zM360 -23q-176 0 -242.5 94.5t-39.5 245.5l133 762h141l-131 -745q-20 -115 23 -175.5t170 -60.5q90 0 181 51.5t183 135.5l140 794h141l-191 -1079h-141l31 172q-35 -37 -81 -71.5t-98.5 -62.5t-107.5 -44.5
t-111 -16.5z" />
    <glyph glyph-name="udieresis" unicode="&#xfc;" horiz-adv-x="1165" 
d="M750 1194l28 168h160l-29 -168h-159zM408 1194l28 168h158l-29 -168h-157zM360 -23q-176 0 -242.5 94.5t-39.5 245.5l133 762h141l-131 -745q-20 -115 23 -175.5t170 -60.5q90 0 181 51.5t183 135.5l140 794h141l-191 -1079h-141l31 172q-35 -37 -81 -71.5t-98.5 -62.5
t-107.5 -44.5t-111 -16.5z" />
    <glyph glyph-name="yacute" unicode="&#xfd;" horiz-adv-x="1059" 
d="M43 -414q-57 0 -104.5 10.5t-81.5 26.5l49 117q26 -10 64 -21.5t75 -11.5q72 0 119 42t84 110l76 135l-211 1085h147l164 -911h4l485 911h150l-701 -1261q-32 -62 -65 -105t-70 -71.5t-82 -42t-102 -13.5zM467 1194l231 319h187l-326 -319h-92z" />
    <glyph glyph-name="thorn" unicode="&#xfe;" horiz-adv-x="1194" 
d="M528 100q62 0 131.5 28t128 91.5t96.5 168t38 255.5q0 164 -78 250t-201 86q-88 0 -177 -51t-153 -125l-98 -551q64 -72 134.5 -112t178.5 -40zM-41 -410l338 1926h141l-104 -590q26 32 65 64t84 56.5t95.5 39t99.5 14.5q178 0 282.5 -113t104.5 -323q0 -181 -48 -310
t-124 -212t-170 -121.5t-186 -38.5q-109 0 -192 43t-148 112l-97 -547h-141z" />
    <glyph glyph-name="ydieresis" unicode="&#xff;" horiz-adv-x="1059" 
d="M43 -414q-57 0 -104.5 10.5t-81.5 26.5l49 117q26 -10 64 -21.5t75 -11.5q72 0 119 42t84 110l76 135l-211 1085h147l164 -911h4l485 911h150l-701 -1261q-32 -62 -65 -105t-70 -71.5t-82 -42t-102 -13.5zM696 1194l29 168h160l-29 -168h-160zM354 1194l29 168h158
l-29 -168h-158z" />
    <glyph glyph-name="Amacron" unicode="&#x100;" horiz-adv-x="1358" 
d="M-59 0l794 1522h158l258 -1522h-145l-76 473h-596l-244 -473h-149zM397 600h512l-121 750h-4zM578 1608l20 121h502l-21 -121h-501z" />
    <glyph glyph-name="amacron" unicode="&#x101;" horiz-adv-x="1118" 
d="M340 98q98 0 199.5 45t199.5 125l58 328q-197 -21 -322 -55.5t-197.5 -80.5t-100 -100.5t-27.5 -111.5q0 -70 48 -110t142 -40zM299 -18q-143 0 -218 66.5t-75 172.5q0 90 43 170t138.5 141.5t250 104.5t377.5 59l10 56q23 110 -25 169.5t-179 59.5q-56 0 -111 -13.5
t-106.5 -34t-95.5 -48t-75 -54.5l-71 93q39 32 89 64t109.5 56.5t129 40t149.5 15.5q104 0 173 -26.5t106.5 -76t48 -117t-3.5 -147.5l-82 -467q-9 -45 -14 -78.5t-7 -64.5t-1 -59.5t5 -63.5h-147q-4 41 -4 76t8 78q-109 -86 -216.5 -129t-205.5 -43zM385 1194l21 121h501
l-20 -121h-502z" />
    <glyph glyph-name="Abreve" unicode="&#x102;" horiz-adv-x="1358" 
d="M-59 0l794 1522h158l258 -1522h-145l-76 473h-596l-244 -473h-149zM397 600h512l-121 750h-4zM854 1602q-149 0 -215 91t-53 244h90q2 -120 41 -171.5t145 -51.5q82 0 142.5 50.5t89.5 172.5h90q-27 -159 -112 -247t-218 -88z" />
    <glyph glyph-name="abreve" unicode="&#x103;" horiz-adv-x="1118" 
d="M340 98q98 0 199.5 45t199.5 125l58 328q-197 -21 -322 -55.5t-197.5 -80.5t-100 -100.5t-27.5 -111.5q0 -70 48 -110t142 -40zM299 -18q-143 0 -218 66.5t-75 172.5q0 90 43 170t138.5 141.5t250 104.5t377.5 59l10 56q23 110 -25 169.5t-179 59.5q-56 0 -111 -13.5
t-106.5 -34t-95.5 -48t-75 -54.5l-71 93q39 32 89 64t109.5 56.5t129 40t149.5 15.5q104 0 173 -26.5t106.5 -76t48 -117t-3.5 -147.5l-82 -467q-9 -45 -14 -78.5t-7 -64.5t-1 -59.5t5 -63.5h-147q-4 41 -4 76t8 78q-109 -86 -216.5 -129t-205.5 -43zM662 1188
q-150 0 -215.5 91t-53.5 245h90q2 -121 41 -172.5t146 -51.5q82 0 142 50.5t89 173.5h90q-26 -160 -111 -248t-218 -88z" />
    <glyph glyph-name="Aogonek" unicode="&#x104;" horiz-adv-x="1358" 
d="M-59 0l794 1522h158l258 -1522h-53q-78 -51 -128 -105.5t-50 -115.5q0 -35 24.5 -57.5t83.5 -22.5q35 0 74 7t94 28l21 -53q-54 -29 -110 -46.5t-114 -17.5q-102 0 -149 41t-47 102q0 78 58 136.5t149 109.5l-74 467h-596l-244 -473h-149zM397 600h512l-121 750h-4z" />
    <glyph glyph-name="aogonek" unicode="&#x105;" horiz-adv-x="1118" 
d="M299 -18q-143 0 -218 66.5t-75 172.5q0 90 43 170t138.5 141.5t250 104.5t377.5 59l10 56q23 110 -25 169.5t-179 59.5q-56 0 -111 -13.5t-106.5 -34t-95.5 -48t-75 -54.5l-71 93q39 32 89 64t109.5 56.5t129 40t149.5 15.5q104 0 173 -26.5t106.5 -76t48 -117
t-3.5 -147.5l-82 -467q-9 -45 -14 -78.5t-7 -64.5t-1 -59.5t5 -63.5h-55q-78 -51 -128 -105.5t-50 -115.5q0 -35 23.5 -57.5t82.5 -22.5q35 0 75 7t93 28l23 -53q-54 -29 -111 -46.5t-112 -17.5q-103 0 -150 41t-47 102q0 78 59.5 136.5t147.5 111.5q-4 39 -3 72t9 74
q-109 -86 -216.5 -129t-205.5 -43zM340 98q98 0 199.5 45t199.5 125l58 328q-197 -21 -322 -55.5t-197.5 -80.5t-100 -100.5t-27.5 -111.5q0 -70 48 -110t142 -40z" />
    <glyph glyph-name="Cacute" unicode="&#x106;" horiz-adv-x="1411" 
d="M717 1608l231 319h187l-326 -319h-92zM643 -29q-131 0 -232.5 46t-170 129t-103.5 199t-35 255q0 211 59.5 384t159 298t230.5 193.5t276 68.5q129 0 221.5 -32.5t153 -94t93 -150.5t40.5 -200l-143 -12q-6 88 -28.5 154.5t-66.5 111.5t-113 67.5t-167 22.5
q-110 0 -213.5 -56.5t-182.5 -162t-126 -256t-47 -338.5q0 -227 103.5 -361.5t297.5 -134.5q82 0 150.5 20.5t126 67t106.5 119t92 176.5l127 -47q-92 -229 -241.5 -348t-366.5 -119z" />
    <glyph glyph-name="cacute" unicode="&#x107;" horiz-adv-x="1067" 
d="M471 1194l231 319h187l-326 -319h-92zM455 -23q-93 0 -166.5 33t-126.5 93.5t-82 146.5t-29 192q0 181 54.5 305.5t135.5 203.5t177 114t182 35q96 0 162.5 -23.5t111 -64.5t70 -95.5t41.5 -117.5l-129 -29q-29 111 -89 161t-177 50q-78 0 -149.5 -35t-127 -102.5
t-88 -169t-32.5 -234.5q0 -159 71.5 -251.5t202.5 -92.5q55 0 99 12.5t82 40t72 70.5t71 105l108 -52q-68 -137 -171 -216t-273 -79z" />
    <glyph glyph-name="Ccircumflex" unicode="&#x108;" horiz-adv-x="1411" 
d="M545 1610l313 325h107l198 -325h-90l-186 200l-256 -200h-86zM643 -29q-131 0 -232.5 46t-170 129t-103.5 199t-35 255q0 211 59.5 384t159 298t230.5 193.5t276 68.5q129 0 221.5 -32.5t153 -94t93 -150.5t40.5 -200l-143 -12q-6 88 -28.5 154.5t-66.5 111.5t-113 67.5
t-167 22.5q-110 0 -213.5 -56.5t-182.5 -162t-126 -256t-47 -338.5q0 -227 103.5 -361.5t297.5 -134.5q82 0 150.5 20.5t126 67t106.5 119t92 176.5l127 -47q-92 -229 -241.5 -348t-366.5 -119z" />
    <glyph glyph-name="ccircumflex" unicode="&#x109;" horiz-adv-x="1067" 
d="M303 1188l313 325h107l199 -325h-91l-186 201l-256 -201h-86zM455 -23q-93 0 -166.5 33t-126.5 93.5t-82 146.5t-29 192q0 181 54.5 305.5t135.5 203.5t177 114t182 35q96 0 162.5 -23.5t111 -64.5t70 -95.5t41.5 -117.5l-129 -29q-29 111 -89 161t-177 50
q-78 0 -149.5 -35t-127 -102.5t-88 -169t-32.5 -234.5q0 -159 71.5 -251.5t202.5 -92.5q55 0 99 12.5t82 40t72 70.5t71 105l108 -52q-68 -137 -171 -216t-273 -79z" />
    <glyph glyph-name="Cdotaccent" unicode="&#x10a;" horiz-adv-x="1411" 
d="M643 -29q-131 0 -232.5 46t-170 129t-103.5 199t-35 255q0 211 59.5 384t159 298t230.5 193.5t276 68.5q129 0 221.5 -32.5t153 -94t93 -150.5t40.5 -200l-143 -12q-6 88 -28.5 154.5t-66.5 111.5t-113 67.5t-167 22.5q-110 0 -213.5 -56.5t-182.5 -162t-126 -256
t-47 -338.5q0 -227 103.5 -361.5t297.5 -134.5q82 0 150.5 20.5t126 67t106.5 119t92 176.5l127 -47q-92 -229 -241.5 -348t-366.5 -119zM770 1622l29 164h174l-29 -164h-174z" />
    <glyph glyph-name="cdotaccent" unicode="&#x10b;" horiz-adv-x="1067" 
d="M455 -23q-93 0 -166.5 33t-126.5 93.5t-82 146.5t-29 192q0 181 54.5 305.5t135.5 203.5t177 114t182 35q96 0 162.5 -23.5t111 -64.5t70 -95.5t41.5 -117.5l-129 -29q-29 111 -89 161t-177 50q-78 0 -149.5 -35t-127 -102.5t-88 -169t-32.5 -234.5q0 -159 71.5 -251.5
t202.5 -92.5q55 0 99 12.5t82 40t72 70.5t71 105l108 -52q-68 -137 -171 -216t-273 -79zM528 1200l29 164h174l-29 -164h-174z" />
    <glyph glyph-name="Ccaron" unicode="&#x10c;" horiz-adv-x="1411" 
d="M801 1610l-199 325h90l187 -200l256 200h86l-312 -325h-108zM643 -29q-131 0 -232.5 46t-170 129t-103.5 199t-35 255q0 211 59.5 384t159 298t230.5 193.5t276 68.5q129 0 221.5 -32.5t153 -94t93 -150.5t40.5 -200l-143 -12q-6 88 -28.5 154.5t-66.5 111.5t-113 67.5
t-167 22.5q-110 0 -213.5 -56.5t-182.5 -162t-126 -256t-47 -338.5q0 -227 103.5 -361.5t297.5 -134.5q82 0 150.5 20.5t126 67t106.5 119t92 176.5l127 -47q-92 -229 -241.5 -348t-366.5 -119z" />
    <glyph glyph-name="ccaron" unicode="&#x10d;" horiz-adv-x="1067" 
d="M555 1196l-199 326h90l187 -201l256 201h86l-311 -326h-109zM455 -23q-93 0 -166.5 33t-126.5 93.5t-82 146.5t-29 192q0 181 54.5 305.5t135.5 203.5t177 114t182 35q96 0 162.5 -23.5t111 -64.5t70 -95.5t41.5 -117.5l-129 -29q-29 111 -89 161t-177 50
q-78 0 -149.5 -35t-127 -102.5t-88 -169t-32.5 -234.5q0 -159 71.5 -251.5t202.5 -92.5q55 0 99 12.5t82 40t72 70.5t71 105l108 -52q-68 -137 -171 -216t-273 -79z" />
    <glyph glyph-name="Dcaron" unicode="&#x10e;" horiz-adv-x="1432" 
d="M791 1610l-199 325h90l186 -200l256 200h86l-311 -325h-108zM229 127h263q331 0 511.5 192.5t180.5 571.5q0 235 -130 365t-409 130h-194zM61 0l267 1516h319q342 0 513 -164t171 -451q0 -440 -223 -670.5t-641 -230.5h-406z" />
    <glyph glyph-name="dcaron" unicode="&#x10f;" horiz-adv-x="1194" 
d="M1317 1335h-66l31 181h166l-27 -162l-127 -221h-61zM473 100q86 0 167 44t165 130l98 551q-55 68 -132 111t-183 43q-62 0 -131.5 -27.5t-128 -92t-96 -170t-37.5 -259.5q0 -162 76.5 -246t201.5 -84zM438 -18q-86 0 -156.5 27.5t-121.5 82.5t-80 136t-29 188
q0 184 49.5 314t126 212t169.5 120t184 38q61 0 114.5 -14.5t96.5 -38t75.5 -50t57.5 -51.5l98 570h141l-219 -1250q-16 -90 -21 -146.5t7 -119.5h-150q-4 35 -4 75t8 81q-59 -72 -151 -123t-195 -51z" />
    <glyph glyph-name="Dcroat" unicode="&#x110;" horiz-adv-x="1432" 
d="M61 0l129 737h-170l23 123h168l117 656h317q344 0 515 -164t171 -451q0 -440 -223 -670.5t-641 -230.5h-406zM229 131h265q331 0 510.5 190.5t179.5 569.5q0 237 -133 363t-408 126h-194l-93 -520h328l-20 -123h-328z" />
    <glyph glyph-name="dcroat" unicode="&#x111;" horiz-adv-x="1194" 
d="M766 1341h225l31 175h141l-30 -175h178l-21 -108h-178l-168 -967q-16 -90 -21 -146.5t7 -119.5h-150q-4 35 -4 75t8 81q-59 -72 -151 -123t-195 -51q-86 0 -156.5 27.5t-121.5 82.5t-80 136t-29 188q0 184 49.5 314t126 212t169.5 120t184 38q61 0 114.5 -14.5t96.5 -38
t75.5 -50t57.5 -51.5l49 287h-228zM473 100q86 0 167 44t165 130l98 551q-55 68 -132 111t-183 43q-62 0 -131.5 -27.5t-128 -92t-96 -170t-37.5 -259.5q0 -162 76.5 -246t201.5 -84z" />
    <glyph glyph-name="Emacron" unicode="&#x112;" horiz-adv-x="1217" 
d="M61 0l267 1516h884l-24 -136h-739l-91 -514h547l-22 -131h-547l-107 -602h783l-23 -133h-928zM524 1608l21 121h502l-21 -121h-502z" />
    <glyph glyph-name="emacron" unicode="&#x113;" horiz-adv-x="1098" 
d="M459 -23q-90 0 -166 32t-129 90.5t-83 142.5t-30 190q0 184 56.5 311t139.5 207t177 115t172 35q119 0 198.5 -44t123 -121t52.5 -178.5t-12 -217.5l-4 -27h-761q-3 -18 -3 -38v-40q0 -96 28 -161.5t70 -104.5t92 -55.5t97 -16.5q123 0 202 55.5t138 143.5l101 -68
q-78 -114 -189 -182t-270 -68zM836 625q8 69 0.5 133.5t-37 114t-81.5 79t-134 29.5q-60 0 -117 -22.5t-106.5 -66.5t-89.5 -111.5t-60 -155.5h625zM375 1194l20 121h502l-20 -121h-502z" />
    <glyph glyph-name="Ebreve" unicode="&#x114;" horiz-adv-x="1217" 
d="M61 0l267 1516h884l-24 -136h-739l-91 -514h547l-22 -131h-547l-107 -602h783l-23 -133h-928zM784 1610q-149 0 -214.5 91t-53.5 245h90q2 -121 41 -172.5t146 -51.5q81 0 141.5 50.5t89.5 173.5h90q-27 -160 -111.5 -248t-218.5 -88z" />
    <glyph glyph-name="ebreve" unicode="&#x115;" horiz-adv-x="1098" 
d="M459 -23q-90 0 -166 32t-129 90.5t-83 142.5t-30 190q0 184 56.5 311t139.5 207t177 115t172 35q119 0 198.5 -44t123 -121t52.5 -178.5t-12 -217.5l-4 -27h-761q-3 -18 -3 -38v-40q0 -96 28 -161.5t70 -104.5t92 -55.5t97 -16.5q123 0 202 55.5t138 143.5l101 -68
q-78 -114 -189 -182t-270 -68zM836 625q8 69 0.5 133.5t-37 114t-81.5 79t-134 29.5q-60 0 -117 -22.5t-106.5 -66.5t-89.5 -111.5t-60 -155.5h625zM651 1188q-149 0 -214.5 91t-53.5 245h90q2 -121 41 -172.5t145 -51.5q82 0 142.5 50.5t89.5 173.5h90q-27 -160 -112 -248
t-218 -88z" />
    <glyph glyph-name="Edotaccent" unicode="&#x116;" horiz-adv-x="1217" 
d="M61 0l267 1516h884l-24 -136h-739l-91 -514h547l-22 -131h-547l-107 -602h783l-23 -133h-928zM688 1614l29 164h174l-29 -164h-174z" />
    <glyph glyph-name="edotaccent" unicode="&#x117;" horiz-adv-x="1098" 
d="M459 -23q-90 0 -166 32t-129 90.5t-83 142.5t-30 190q0 184 56.5 311t139.5 207t177 115t172 35q119 0 198.5 -44t123 -121t52.5 -178.5t-12 -217.5l-4 -27h-761q-3 -18 -3 -38v-40q0 -96 28 -161.5t70 -104.5t92 -55.5t97 -16.5q123 0 202 55.5t138 143.5l101 -68
q-78 -114 -189 -182t-270 -68zM836 625q8 69 0.5 133.5t-37 114t-81.5 79t-134 29.5q-60 0 -117 -22.5t-106.5 -66.5t-89.5 -111.5t-60 -155.5h625zM539 1200l28 164h174l-28 -164h-174z" />
    <glyph glyph-name="Eogonek" unicode="&#x118;" horiz-adv-x="1217" 
d="M870 0q-77 -51 -127.5 -105.5t-50.5 -115.5q0 -35 24.5 -57.5t84.5 -22.5q35 0 73.5 7t94.5 28l22 -53q-55 -29 -111.5 -46.5t-113.5 -17.5q-100 0 -148.5 41t-48.5 102q0 74 55.5 131.5t141.5 108.5h-705l267 1516h884l-24 -136h-739l-91 -514h547l-22 -131h-547
l-107 -602h783l-23 -133h-119z" />
    <glyph glyph-name="eogonek" unicode="&#x119;" horiz-adv-x="1098" 
d="M475 -383q-102 0 -149 41t-47 102q0 66 44 118t115 99q-174 9 -280.5 128.5t-106.5 326.5q0 184 56.5 311t139.5 207t177 115t172 35q119 0 198.5 -44t123 -121t52.5 -178.5t-12 -217.5l-4 -27h-761q-3 -18 -3 -38v-40q0 -96 28 -161.5t70 -104.5t92 -55.5t97 -16.5
q123 0 202 55.5t138 143.5l101 -68q-66 -96 -154 -159.5t-207 -81.5q-72 -47 -114 -98.5t-42 -108.5q0 -35 25 -57.5t84 -22.5q35 0 74 7t94 28l20 -53q-53 -29 -109.5 -46.5t-113.5 -17.5zM836 625q8 69 0.5 133.5t-37 114t-81.5 79t-134 29.5q-60 0 -117 -22.5
t-106.5 -66.5t-89.5 -111.5t-60 -155.5h625z" />
    <glyph glyph-name="Ecaron" unicode="&#x11a;" horiz-adv-x="1217" 
d="M719 1610l-199 325h90l187 -200l256 200h86l-312 -325h-108zM61 0l267 1516h884l-24 -136h-739l-91 -514h547l-22 -131h-547l-107 -602h783l-23 -133h-928z" />
    <glyph glyph-name="ecaron" unicode="&#x11b;" horiz-adv-x="1098" 
d="M459 -23q-90 0 -166 32t-129 90.5t-83 142.5t-30 190q0 184 56.5 311t139.5 207t177 115t172 35q119 0 198.5 -44t123 -121t52.5 -178.5t-12 -217.5l-4 -27h-761q-3 -18 -3 -38v-40q0 -96 28 -161.5t70 -104.5t92 -55.5t97 -16.5q123 0 202 55.5t138 143.5l101 -68
q-78 -114 -189 -182t-270 -68zM836 625q8 69 0.5 133.5t-37 114t-81.5 79t-134 29.5q-60 0 -117 -22.5t-106.5 -66.5t-89.5 -111.5t-60 -155.5h625zM569 1196l-198 326h90l186 -201l256 201h86l-311 -326h-109z" />
    <glyph glyph-name="Gcircumflex" unicode="&#x11c;" horiz-adv-x="1462" 
d="M569 1610l314 325h106l199 -325h-90l-187 200l-256 -200h-86zM635 -29q-135 0 -234.5 47.5t-165 129t-98.5 194.5t-33 244q0 227 64.5 405t168 301t236 187.5t267.5 64.5q247 0 365 -122t136 -343l-141 -12q-14 180 -102 262t-269 82q-106 0 -209.5 -52t-185.5 -155.5
t-132 -256t-50 -351.5q0 -113 25.5 -205t77 -156.5t126 -99.5t172.5 -35q183 0 308.5 128t164.5 360h-358l23 127h499l-125 -715h-131l39 231h-4q-31 -51 -74 -98t-97 -83t-120.5 -57.5t-142.5 -21.5z" />
    <glyph glyph-name="gcircumflex" unicode="&#x11d;" horiz-adv-x="1139" 
d="M305 1188l313 325h107l199 -325h-90l-187 201l-256 -201h-86zM489 328q-116 0 -202 43q-90 -33 -90 -86q0 -29 17 -46.5t55 -29.5t97.5 -23.5t141.5 -23.5q80 -12 150.5 -30.5t124 -47.5t84 -74t30.5 -112q0 -86 -41 -145.5t-108.5 -96.5t-153.5 -53.5t-176 -16.5
q-146 0 -247 21.5t-165.5 59.5t-94.5 87t-30 105q0 61 25.5 107t63.5 79t82 53.5t81 32.5q-74 39 -74 113q0 53 36 99t116 79q-53 47 -81 110.5t-28 141.5q0 104 40 183t105.5 133t148.5 82t167 28q99 0 173.5 -32t123.5 -87q60 39 133.5 67.5t147.5 38.5l-25 -133
q-41 -2 -98 -9t-113 -27q41 -78 41 -173q0 -106 -40 -184t-104.5 -130t-146.5 -77.5t-166 -25.5zM498 436q65 0 122.5 19.5t100.5 58.5t67.5 97.5t24.5 138.5q0 104 -62.5 170.5t-195.5 66.5q-66 0 -123 -20.5t-100 -60.5t-68.5 -99t-25.5 -135q0 -105 65.5 -170.5
t194.5 -65.5zM27 -119q0 -39 20.5 -72.5t68.5 -58t125.5 -39t194.5 -14.5q66 0 124 9t102.5 30.5t70 55.5t25.5 81q0 43 -20.5 70.5t-58.5 47t-90 33t-116 23.5q-65 10 -125.5 20.5t-109.5 24.5q-43 -12 -81 -30.5t-67 -45t-46 -60.5t-17 -75z" />
    <glyph glyph-name="Gbreve" unicode="&#x11e;" horiz-adv-x="1462" 
d="M635 -29q-135 0 -234.5 47.5t-165 129t-98.5 194.5t-33 244q0 227 64.5 405t168 301t236 187.5t267.5 64.5q247 0 365 -122t136 -343l-141 -12q-14 180 -102 262t-269 82q-106 0 -209.5 -52t-185.5 -155.5t-132 -256t-50 -351.5q0 -113 25.5 -205t77 -156.5t126 -99.5
t172.5 -35q183 0 308.5 128t164.5 360h-358l23 127h499l-125 -715h-131l39 231h-4q-31 -51 -74 -98t-97 -83t-120.5 -57.5t-142.5 -21.5zM899 1602q-149 0 -215 91t-53 244h90q2 -120 41 -171.5t145 -51.5q82 0 142.5 50.5t89.5 172.5h90q-27 -159 -112 -247t-218 -88z" />
    <glyph glyph-name="gbreve" unicode="&#x11f;" horiz-adv-x="1139" 
d="M489 328q-116 0 -202 43q-90 -33 -90 -86q0 -29 17 -46.5t55 -29.5t97.5 -23.5t141.5 -23.5q80 -12 150.5 -30.5t124 -47.5t84 -74t30.5 -112q0 -86 -41 -145.5t-108.5 -96.5t-153.5 -53.5t-176 -16.5q-146 0 -247 21.5t-165.5 59.5t-94.5 87t-30 105q0 61 25.5 107
t63.5 79t82 53.5t81 32.5q-74 39 -74 113q0 53 36 99t116 79q-53 47 -81 110.5t-28 141.5q0 104 40 183t105.5 133t148.5 82t167 28q99 0 173.5 -32t123.5 -87q60 39 133.5 67.5t147.5 38.5l-25 -133q-41 -2 -98 -9t-113 -27q41 -78 41 -173q0 -106 -40 -184t-104.5 -130
t-146.5 -77.5t-166 -25.5zM498 436q65 0 122.5 19.5t100.5 58.5t67.5 97.5t24.5 138.5q0 104 -62.5 170.5t-195.5 66.5q-66 0 -123 -20.5t-100 -60.5t-68.5 -99t-25.5 -135q0 -105 65.5 -170.5t194.5 -65.5zM27 -119q0 -39 20.5 -72.5t68.5 -58t125.5 -39t194.5 -14.5
q66 0 124 9t102.5 30.5t70 55.5t25.5 81q0 43 -20.5 70.5t-58.5 47t-90 33t-116 23.5q-65 10 -125.5 20.5t-109.5 24.5q-43 -12 -81 -30.5t-67 -45t-46 -60.5t-17 -75zM629 1188q-150 0 -215.5 91t-53.5 245h91q2 -121 40.5 -172.5t145.5 -51.5q82 0 142.5 50.5t88.5 173.5
h90q-26 -160 -111 -248t-218 -88z" />
    <glyph glyph-name="Gdotaccent" unicode="&#x120;" horiz-adv-x="1462" 
d="M635 -29q-135 0 -234.5 47.5t-165 129t-98.5 194.5t-33 244q0 227 64.5 405t168 301t236 187.5t267.5 64.5q247 0 365 -122t136 -343l-141 -12q-14 180 -102 262t-269 82q-106 0 -209.5 -52t-185.5 -155.5t-132 -256t-50 -351.5q0 -113 25.5 -205t77 -156.5t126 -99.5
t172.5 -35q183 0 308.5 128t164.5 360h-358l23 127h499l-125 -715h-131l39 231h-4q-31 -51 -74 -98t-97 -83t-120.5 -57.5t-142.5 -21.5zM795 1622l28 164h174l-28 -164h-174z" />
    <glyph glyph-name="gdotaccent" unicode="&#x121;" horiz-adv-x="1139" 
d="M489 328q-116 0 -202 43q-90 -33 -90 -86q0 -29 17 -46.5t55 -29.5t97.5 -23.5t141.5 -23.5q80 -12 150.5 -30.5t124 -47.5t84 -74t30.5 -112q0 -86 -41 -145.5t-108.5 -96.5t-153.5 -53.5t-176 -16.5q-146 0 -247 21.5t-165.5 59.5t-94.5 87t-30 105q0 61 25.5 107
t63.5 79t82 53.5t81 32.5q-74 39 -74 113q0 53 36 99t116 79q-53 47 -81 110.5t-28 141.5q0 104 40 183t105.5 133t148.5 82t167 28q99 0 173.5 -32t123.5 -87q60 39 133.5 67.5t147.5 38.5l-25 -133q-41 -2 -98 -9t-113 -27q41 -78 41 -173q0 -106 -40 -184t-104.5 -130
t-146.5 -77.5t-166 -25.5zM498 436q65 0 122.5 19.5t100.5 58.5t67.5 97.5t24.5 138.5q0 104 -62.5 170.5t-195.5 66.5q-66 0 -123 -20.5t-100 -60.5t-68.5 -99t-25.5 -135q0 -105 65.5 -170.5t194.5 -65.5zM27 -119q0 -39 20.5 -72.5t68.5 -58t125.5 -39t194.5 -14.5
q66 0 124 9t102.5 30.5t70 55.5t25.5 81q0 43 -20.5 70.5t-58.5 47t-90 33t-116 23.5q-65 10 -125.5 20.5t-109.5 24.5q-43 -12 -81 -30.5t-67 -45t-46 -60.5t-17 -75zM510 1200l29 164h174l-29 -164h-174z" />
    <glyph glyph-name="Gcommaaccent" unicode="&#x122;" horiz-adv-x="1462" 
d="M528 -283h-65l31 183h170l-29 -164l-127 -221h-64zM635 -29q-135 0 -234.5 47.5t-165 129t-98.5 194.5t-33 244q0 227 64.5 405t168 301t236 187.5t267.5 64.5q247 0 365 -122t136 -343l-141 -12q-14 180 -102 262t-269 82q-106 0 -209.5 -52t-185.5 -155.5t-132 -256
t-50 -351.5q0 -113 25.5 -205t77 -156.5t126 -99.5t172.5 -35q183 0 308.5 128t164.5 360h-358l23 127h499l-125 -715h-131l39 231h-4q-31 -51 -74 -98t-97 -83t-120.5 -57.5t-142.5 -21.5z" />
    <glyph glyph-name="gcommaaccent" unicode="&#x123;" horiz-adv-x="1139" 
d="M555 1358l127 221h61l-84 -203h68l-31 -182h-170zM489 328q-116 0 -202 43q-90 -33 -90 -86q0 -29 17 -46.5t55 -29.5t97.5 -23.5t141.5 -23.5q80 -12 150.5 -30.5t124 -47.5t84 -74t30.5 -112q0 -86 -41 -145.5t-108.5 -96.5t-153.5 -53.5t-176 -16.5q-146 0 -247 21.5
t-165.5 59.5t-94.5 87t-30 105q0 61 25.5 107t63.5 79t82 53.5t81 32.5q-74 39 -74 113q0 53 36 99t116 79q-53 47 -81 110.5t-28 141.5q0 104 40 183t105.5 133t148.5 82t167 28q99 0 173.5 -32t123.5 -87q60 39 133.5 67.5t147.5 38.5l-25 -133q-41 -2 -98 -9t-113 -27
q41 -78 41 -173q0 -106 -40 -184t-104.5 -130t-146.5 -77.5t-166 -25.5zM498 436q65 0 122.5 19.5t100.5 58.5t67.5 97.5t24.5 138.5q0 104 -62.5 170.5t-195.5 66.5q-66 0 -123 -20.5t-100 -60.5t-68.5 -99t-25.5 -135q0 -105 65.5 -170.5t194.5 -65.5zM27 -119
q0 -39 20.5 -72.5t68.5 -58t125.5 -39t194.5 -14.5q66 0 124 9t102.5 30.5t70 55.5t25.5 81q0 43 -20.5 70.5t-58.5 47t-90 33t-116 23.5q-65 10 -125.5 20.5t-109.5 24.5q-43 -12 -81 -30.5t-67 -45t-46 -60.5t-17 -75z" />
    <glyph glyph-name="Hcircumflex" unicode="&#x124;" horiz-adv-x="1479" 
d="M580 1610l313 325h106l199 -325h-90l-186 200l-256 -200h-86zM61 0l267 1516h145l-115 -650h801l115 650h145l-266 -1516h-145l129 733h-801l-129 -733h-146z" />
    <glyph glyph-name="hcircumflex" unicode="&#x125;" horiz-adv-x="1169" 
d="M76 1612l313 325h107l198 -325h-90l-186 200l-256 -200h-86zM31 0l266 1516h141l-106 -609q35 37 82 71t100 61.5t109.5 44t109.5 16.5q88 0 149.5 -24.5t95.5 -69.5t43 -107.5t-3 -138.5l-133 -760h-142l129 743q23 115 -20 175.5t-172 60.5q-90 0 -183.5 -51
t-185.5 -135l-139 -793h-141z" />
    <glyph glyph-name="Hbar" unicode="&#x126;" horiz-adv-x="1479" 
d="M111 1245h170l47 271h145l-49 -271h801l49 271h145l-47 -271h170l-20 -123h-172l-197 -1122h-145l129 733h-801l-129 -733h-146l197 1122h-168zM1159 866l45 256h-801l-45 -256h801z" />
    <glyph glyph-name="hbar" unicode="&#x127;" horiz-adv-x="1169" 
d="M92 1341h174l31 175h141l-30 -175h221l-21 -108h-219l-57 -326q35 37 82 71t100 61.5t109.5 44t109.5 16.5q88 0 149.5 -24.5t95.5 -69.5t43 -107.5t-3 -138.5l-133 -760h-142l129 743q23 115 -20 175.5t-172 60.5q-90 0 -183.5 -51t-185.5 -135l-139 -793h-141l217 1233
h-176z" />
    <glyph glyph-name="Itilde" unicode="&#x128;" horiz-adv-x="575" 
d="M82 0l266 1516h146l-267 -1516h-145zM598 1610q-39 0 -77 17.5t-73.5 39t-67.5 39.5t-58 18q-46 0 -69.5 -25.5t-33.5 -84.5h-96q16 117 65.5 171t135.5 54q41 0 79.5 -18.5t73.5 -40t65.5 -39t55.5 -17.5q47 0 70.5 26t33.5 85h99q-39 -225 -203 -225z" />
    <glyph glyph-name="itilde" unicode="&#x129;" horiz-adv-x="492" 
d="M43 0l190 1079h142l-191 -1079h-141zM483 1188q-39 0 -76.5 17.5t-73.5 39t-68 40t-58 18.5q-45 0 -68.5 -26t-34.5 -85h-96q17 117 66 171t135 54q41 0 80 -18.5t73.5 -40t65.5 -38.5t55 -17q47 0 71 25.5t34 84.5h98q-39 -225 -203 -225z" />
    <glyph glyph-name="Imacron" unicode="&#x12a;" horiz-adv-x="575" 
d="M82 0l266 1516h146l-267 -1516h-145zM190 1608l21 121h502l-21 -121h-502z" />
    <glyph glyph-name="imacron" unicode="&#x12b;" horiz-adv-x="492" 
d="M43 0l190 1079h142l-191 -1079h-141zM76 1194l20 121h502l-20 -121h-502z" />
    <glyph glyph-name="Ibreve" unicode="&#x12c;" horiz-adv-x="575" 
d="M82 0l266 1516h146l-267 -1516h-145zM467 1610q-150 0 -215.5 91t-52.5 245h90q2 -121 41 -172.5t145 -51.5q82 0 142.5 50.5t89.5 173.5h90q-27 -160 -112 -248t-218 -88z" />
    <glyph glyph-name="ibreve" unicode="&#x12d;" horiz-adv-x="492" 
d="M43 0l190 1079h142l-191 -1079h-141zM352 1188q-149 0 -214.5 91t-53.5 245h90q2 -121 41 -172.5t145 -51.5q82 0 142.5 50.5t89.5 173.5h90q-27 -160 -112 -248t-218 -88z" />
    <glyph glyph-name="Iogonek" unicode="&#x12e;" horiz-adv-x="575" 
d="M174 0q-78 -51 -128 -105.5t-50 -115.5q0 -35 23.5 -57.5t82.5 -22.5q35 0 74 7t94 28l23 -53q-55 -29 -111.5 -46.5t-111.5 -17.5q-103 0 -150 41t-47 102q0 78 59.5 137.5t151.5 112.5l264 1506h146l-267 -1516h-53z" />
    <glyph glyph-name="iogonek" unicode="&#x12f;" horiz-adv-x="492" 
d="M131 0q-78 -51 -128 -105.5t-50 -115.5q0 -35 23.5 -57.5t82.5 -22.5q35 0 75 7t93 28l23 -53q-53 -29 -110.5 -46.5t-112.5 -17.5q-103 0 -150 41t-47 102q0 78 61.5 138.5t153.5 113.5l188 1067h142l-191 -1079h-53zM272 1329l27 152h150l-27 -152h-150z" />
    <glyph glyph-name="Idotaccent" unicode="&#x130;" horiz-adv-x="575" 
d="M82 0l266 1516h146l-267 -1516h-145zM354 1614l29 164h174l-29 -164h-174z" />
    <glyph glyph-name="dotlessi" unicode="&#x131;" horiz-adv-x="492" 
d="M43 0l190 1079h142l-191 -1079h-141z" />
    <glyph glyph-name="IJ" unicode="&#x132;" horiz-adv-x="1497" 
d="M82 0l266 1516h146l-267 -1516h-145zM825 -29q-80 0 -140 18.5t-105 48.5t-78 69.5t-58 82.5l113 76q47 -80 109.5 -122t154.5 -42q56 0 102 13.5t81.5 47.5t61.5 89t40 141l199 1123h145l-199 -1137q-39 -215 -144.5 -311.5t-281.5 -96.5z" />
    <glyph glyph-name="ij" unicode="&#x133;" horiz-adv-x="985" 
d="M272 1329l27 152h150l-27 -152h-150zM43 0l190 1079h142l-191 -1079h-141zM764 1329l27 152h149l-27 -152h-149zM416 -412q-47 0 -74 2t-43 4l20 113q15 -4 37.5 -5t42.5 -1q45 0 69 26.5t34 90.5l223 1261h141l-227 -1286q-21 -110 -73 -157.5t-150 -47.5z" />
    <glyph glyph-name="Jcircumflex" unicode="&#x134;" horiz-adv-x="1004" 
d="M578 1610l313 325h106l199 -325h-90l-186 200l-256 -200h-86zM332 -29q-80 0 -140.5 18.5t-105.5 48.5t-78 69.5t-57 82.5l112 76q48 -80 110.5 -122t154.5 -42q55 0 101 13.5t82 47.5t61.5 89t39.5 141l199 1123h145l-198 -1137q-39 -215 -144.5 -311.5t-281.5 -96.5z
" />
    <glyph glyph-name="jcircumflex" unicode="&#x135;" horiz-adv-x="492" 
d="M-76 -412q-47 0 -73.5 2t-43.5 4l21 113q16 -4 38.5 -5t41.5 -1q45 0 68.5 26.5t33.5 90.5l223 1261h142l-228 -1286q-20 -110 -72 -157.5t-151 -47.5zM14 1188l314 325h106l199 -325h-90l-187 201l-256 -201h-86z" />
    <glyph glyph-name="Kcommaaccent" unicode="&#x136;" horiz-adv-x="1348" 
d="M475 -283h-65l30 183h170l-28 -164l-127 -221h-64zM1014 0l-385 844l-328 -305l-94 -539h-146l267 1516h145l-139 -793l848 793h174l-619 -576l428 -940h-151z" />
    <glyph glyph-name="kcommaaccent" unicode="&#x137;" horiz-adv-x="1065" 
d="M332 -283h-66l31 183h170l-29 -164l-127 -221h-63zM31 0l266 1516h141l-172 -984l590 547h166l-420 -385l272 -694h-143l-235 600l-260 -235l-64 -365h-141z" />
    <glyph glyph-name="kgreenlandic" unicode="&#x138;" horiz-adv-x="1065" 
d="M362 1079l-98 -544l592 544h168l-422 -383l272 -696h-143l-235 600l-258 -233l-66 -367h-141l190 1079h141z" />
    <glyph glyph-name="Lacute" unicode="&#x139;" horiz-adv-x="1137" 
d="M365 1608l231 319h186l-325 -319h-92zM61 0l267 1516h145l-244 -1383h721l-24 -133h-865z" />
    <glyph glyph-name="lacute" unicode="&#x13a;" horiz-adv-x="492" 
d="M348 1608l232 319h186l-326 -319h-92zM43 0l266 1516h142l-267 -1516h-141z" />
    <glyph glyph-name="Lcommaaccent" unicode="&#x13b;" horiz-adv-x="1137" 
d="M406 -283h-66l31 183h170l-29 -164l-127 -221h-63zM61 0l267 1516h145l-244 -1383h721l-24 -133h-865z" />
    <glyph glyph-name="lcommaaccent" unicode="&#x13c;" horiz-adv-x="492" 
d="M49 -283h-65l30 183h170l-28 -164l-127 -221h-64zM43 0l266 1516h142l-267 -1516h-141z" />
    <glyph glyph-name="Lcaron" unicode="&#x13d;" horiz-adv-x="1137" 
d="M762 1333h-66l31 183h168l-27 -164l-129 -222h-61zM61 0l267 1516h145l-244 -1383h721l-24 -133h-865z" />
    <glyph glyph-name="lcaron" unicode="&#x13e;" horiz-adv-x="492" 
d="M598 1335h-66l31 181h168l-29 -162l-127 -221h-61zM43 0l266 1516h142l-267 -1516h-141z" />
    <glyph glyph-name="Ldot" unicode="&#x13f;" horiz-adv-x="1151" 
d="M729 731l29 166h168l-29 -166h-168zM61 0l267 1516h145l-244 -1383h721l-24 -133h-865z" />
    <glyph glyph-name="ldot" unicode="&#x140;" horiz-adv-x="664" 
d="M455 573l28 166h166l-28 -166h-166zM43 0l266 1516h142l-267 -1516h-141z" />
    <glyph glyph-name="Lslash" unicode="&#x141;" horiz-adv-x="1137" 
d="M61 0l125 711l-182 -47l21 122l182 48l121 682h145l-115 -644l342 89l-20 -123l-342 -88l-109 -617h721l-24 -133h-865z" />
    <glyph glyph-name="lslash" unicode="&#x142;" horiz-adv-x="606" 
d="M262 915l-199 -49l21 115l201 49l84 486h141l-78 -449l203 53l-21 -114l-202 -54l-168 -952h-142z" />
    <glyph glyph-name="Nacute" unicode="&#x143;" horiz-adv-x="1501" 
d="M760 1608l231 319h187l-326 -319h-92zM61 0l267 1516h155l594 -1260h4l222 1260h137l-266 -1516h-130l-614 1298h-4l-227 -1298h-138z" />
    <glyph glyph-name="nacute" unicode="&#x144;" horiz-adv-x="1169" 
d="M522 1194l232 319h186l-326 -319h-92zM31 0l190 1079h141l-30 -172q35 37 82 71t100 61.5t109.5 44t109.5 16.5q88 0 149.5 -24.5t95.5 -69.5t43 -107.5t-3 -138.5l-133 -760h-142l129 743q23 115 -20 175.5t-172 60.5q-90 0 -183.5 -51t-185.5 -135l-139 -793h-141z" />
    <glyph glyph-name="Ncommaaccent" unicode="&#x145;" horiz-adv-x="1501" 
d="M551 -283h-66l31 183h170l-29 -164l-127 -221h-63zM61 0l267 1516h155l594 -1260h4l222 1260h137l-266 -1516h-130l-614 1298h-4l-227 -1298h-138z" />
    <glyph glyph-name="ncommaaccent" unicode="&#x146;" horiz-adv-x="1169" 
d="M385 -283h-66l31 183h170l-28 -164l-127 -221h-64zM31 0l190 1079h141l-30 -172q35 37 82 71t100 61.5t109.5 44t109.5 16.5q88 0 149.5 -24.5t95.5 -69.5t43 -107.5t-3 -138.5l-133 -760h-142l129 743q23 115 -20 175.5t-172 60.5q-90 0 -183.5 -51t-185.5 -135
l-139 -793h-141z" />
    <glyph glyph-name="Ncaron" unicode="&#x147;" horiz-adv-x="1501" 
d="M844 1610l-199 325h90l187 -200l256 200h86l-312 -325h-108zM61 0l267 1516h155l594 -1260h4l222 1260h137l-266 -1516h-130l-614 1298h-4l-227 -1298h-138z" />
    <glyph glyph-name="ncaron" unicode="&#x148;" horiz-adv-x="1169" 
d="M606 1196l-198 326h90l186 -201l256 201h86l-311 -326h-109zM31 0l190 1079h141l-30 -172q35 37 82 71t100 61.5t109.5 44t109.5 16.5q88 0 149.5 -24.5t95.5 -69.5t43 -107.5t-3 -138.5l-133 -760h-142l129 743q23 115 -20 175.5t-172 60.5q-90 0 -183.5 -51
t-185.5 -135l-139 -793h-141z" />
    <glyph glyph-name="napostrophe" unicode="&#x149;" horiz-adv-x="1677" 
d="M266 1116l86 207h-65l32 193h177l-31 -179l-133 -221h-66zM537 0l190 1079h141l-30 -172q35 37 82 71t100 61.5t109.5 44t109.5 16.5q88 0 149.5 -24.5t95.5 -69.5t43 -107.5t-3 -138.5l-133 -760h-142l129 743q23 115 -20 175.5t-172 60.5q-90 0 -183.5 -51t-185.5 -135
l-139 -793h-141z" />
    <glyph glyph-name="Eng" unicode="&#x14a;" horiz-adv-x="1501" 
d="M328 1516h157l592 -1260h4l222 1260h137l-266 -1516q-41 -219 -144.5 -315.5t-277.5 -96.5q-80 0 -140.5 18.5t-106.5 48.5t-79 69.5t-57 82.5l108 72q43 -80 110.5 -123t160.5 -43q53 0 99 14.5t84 48.5t64.5 91t42.5 143l-606 1288h-4l-229 -1298h-138z" />
    <glyph glyph-name="eng" unicode="&#x14b;" horiz-adv-x="1171" 
d="M221 1079h141l-30 -172q35 37 82 71t100 61.5t109.5 44t109.5 16.5q88 0 149.5 -24.5t96.5 -69.5t44 -107.5t-5 -138.5l-170 -967q-21 -110 -73 -157.5t-150 -47.5q-47 0 -74 2t-41 4l18 113q17 -4 39.5 -5t40.5 -1q45 0 68.5 26.5t34.5 90.5l163 925q21 115 -22 175.5
t-172 60.5q-90 0 -183.5 -51t-185.5 -135l-139 -793h-141z" />
    <glyph glyph-name="Omacron" unicode="&#x14c;" horiz-adv-x="1499" 
d="M649 1608l21 121h501l-20 -121h-502zM653 102q113 0 220.5 50.5t191.5 152t135 252t51 352.5q0 115 -27.5 208t-79.5 158.5t-127 100.5t-171 35q-109 0 -215.5 -50t-191.5 -149.5t-138 -250t-53 -353.5q0 -116 27.5 -209.5t80 -159t127 -101.5t170.5 -36zM643 -29
q-127 0 -227.5 47.5t-170 132.5t-106.5 202.5t-37 256.5q0 221 64.5 395.5t171 294t243 182t281.5 62.5q125 0 224.5 -47t168 -131t105.5 -200.5t37 -258.5q0 -221 -62.5 -395t-167 -294t-240.5 -183.5t-284 -63.5z" />
    <glyph glyph-name="omacron" unicode="&#x14d;" horiz-adv-x="1161" 
d="M408 1194l20 121h502l-21 -121h-501zM483 96q82 0 156 38t130 107.5t89 169t33 222.5q0 69 -16.5 132.5t-52.5 112t-91 76t-131 27.5q-84 0 -157.5 -38t-129 -108.5t-87 -170t-31.5 -222.5q0 -71 16 -133.5t51 -109.5t89.5 -75t131.5 -28zM473 -23q-96 0 -174 33
t-133 93.5t-85 145.5t-30 191q0 168 51.5 292t131 206t179 122t197.5 40q95 0 172.5 -33t133 -93.5t86 -145.5t30.5 -191q0 -166 -50 -290t-130 -206t-180.5 -123t-198.5 -41z" />
    <glyph glyph-name="Obreve" unicode="&#x14e;" horiz-adv-x="1499" 
d="M653 102q113 0 220.5 50.5t191.5 152t135 252t51 352.5q0 115 -27.5 208t-79.5 158.5t-127 100.5t-171 35q-109 0 -215.5 -50t-191.5 -149.5t-138 -250t-53 -353.5q0 -116 27.5 -209.5t80 -159t127 -101.5t170.5 -36zM643 -29q-127 0 -227.5 47.5t-170 132.5
t-106.5 202.5t-37 256.5q0 221 64.5 395.5t171 294t243 182t281.5 62.5q125 0 224.5 -47t168 -131t105.5 -200.5t37 -258.5q0 -221 -62.5 -395t-167 -294t-240.5 -183.5t-284 -63.5zM926 1610q-150 0 -215.5 91t-53.5 245h91q2 -121 40.5 -172.5t145.5 -51.5
q82 0 142.5 50.5t88.5 173.5h90q-26 -160 -111 -248t-218 -88z" />
    <glyph glyph-name="obreve" unicode="&#x14f;" horiz-adv-x="1161" 
d="M483 96q82 0 156 38t130 107.5t89 169t33 222.5q0 69 -16.5 132.5t-52.5 112t-91 76t-131 27.5q-84 0 -157.5 -38t-129 -108.5t-87 -170t-31.5 -222.5q0 -71 16 -133.5t51 -109.5t89.5 -75t131.5 -28zM473 -23q-96 0 -174 33t-133 93.5t-85 145.5t-30 191q0 168 51.5 292
t131 206t179 122t197.5 40q95 0 172.5 -33t133 -93.5t86 -145.5t30.5 -191q0 -166 -50 -290t-130 -206t-180.5 -123t-198.5 -41zM684 1188q-149 0 -215 91t-53 245h90q2 -121 41 -172.5t145 -51.5q82 0 142.5 50.5t89.5 173.5h90q-27 -160 -112 -248t-218 -88z" />
    <glyph glyph-name="Ohungarumlaut" unicode="&#x150;" horiz-adv-x="1499" 
d="M930 1608l233 319h191l-330 -319h-94zM600 1608l231 319h191l-328 -319h-94zM653 102q113 0 220.5 50.5t191.5 152t135 252t51 352.5q0 115 -27.5 208t-79.5 158.5t-127 100.5t-171 35q-109 0 -215.5 -50t-191.5 -149.5t-138 -250t-53 -353.5q0 -116 27.5 -209.5t80 -159
t127 -101.5t170.5 -36zM643 -29q-127 0 -227.5 47.5t-170 132.5t-106.5 202.5t-37 256.5q0 221 64.5 395.5t171 294t243 182t281.5 62.5q125 0 224.5 -47t168 -131t105.5 -200.5t37 -258.5q0 -221 -62.5 -395t-167 -294t-240.5 -183.5t-284 -63.5z" />
    <glyph glyph-name="ohungarumlaut" unicode="&#x151;" horiz-adv-x="1161" 
d="M707 1194l233 319h190l-329 -319h-94zM377 1194l231 319h191l-328 -319h-94zM483 96q82 0 156 38t130 107.5t89 169t33 222.5q0 69 -16.5 132.5t-52.5 112t-91 76t-131 27.5q-84 0 -157.5 -38t-129 -108.5t-87 -170t-31.5 -222.5q0 -71 16 -133.5t51 -109.5t89.5 -75
t131.5 -28zM473 -23q-96 0 -174 33t-133 93.5t-85 145.5t-30 191q0 168 51.5 292t131 206t179 122t197.5 40q95 0 172.5 -33t133 -93.5t86 -145.5t30.5 -191q0 -166 -50 -290t-130 -206t-180.5 -123t-198.5 -41z" />
    <glyph glyph-name="OE" unicode="&#x152;" horiz-adv-x="2261" 
d="M1116 0l45 256q-98 -137 -236.5 -211t-291.5 -74q-123 0 -221.5 47.5t-167 132.5t-105.5 202.5t-37 256.5q0 221 64.5 395.5t170 294t241 182t276.5 62.5q186 0 303 -98t164 -264l59 334h875l-23 -136h-739l-92 -514h547l-23 -131h-547l-104 -602h782l-22 -133h-918z
M655 102q109 0 215.5 50.5t190.5 152t136 252t52 352.5q0 115 -26.5 208t-78.5 158.5t-127 100.5t-171 35q-109 0 -215.5 -50t-191.5 -149.5t-138 -250t-53 -353.5q0 -116 27.5 -209.5t80 -159t128 -101.5t171.5 -36z" />
    <glyph glyph-name="oe" unicode="&#x153;" horiz-adv-x="1919" 
d="M1280 -23q-135 0 -230.5 68t-136.5 191q-77 -130 -197 -194.5t-243 -64.5q-96 0 -174 33t-133 93.5t-85 145.5t-30 191q0 168 51.5 292t131 206t179 122t197.5 40q142 0 237 -71t138 -193q43 69 96.5 119.5t111.5 82t115.5 47t106.5 15.5q121 0 201 -44t123 -121
t51 -178.5t-12 -217.5l-4 -27h-762q-2 -18 -2 -38v-40q0 -96 27.5 -161.5t70.5 -104.5t93 -55.5t97 -16.5q123 0 202 55.5t138 143.5l99 -68q-78 -114 -187.5 -182t-269.5 -68zM483 96q82 0 156 38t130 107.5t89 169t33 222.5q0 69 -16.5 132.5t-52.5 112t-91 76t-131 27.5
q-82 0 -155.5 -38t-129 -108.5t-88 -170t-32.5 -222.5q0 -71 16 -133.5t51 -109.5t89.5 -75t131.5 -28zM1655 625q10 69 3 133.5t-37 114t-82 79t-134 29.5q-59 0 -116.5 -22.5t-108 -66.5t-90 -111.5t-60.5 -155.5h625z" />
    <glyph glyph-name="Racute" unicode="&#x154;" horiz-adv-x="1354" 
d="M686 1608l232 319h186l-326 -319h-92zM61 0l267 1516h440q242 0 377 -92.5t135 -276.5q0 -72 -20.5 -147.5t-69.5 -140t-132 -111t-208 -58.5l246 -690h-148l-241 680h-383l-119 -680h-144zM348 809h383q80 0 152.5 11t128 47t87 99.5t31.5 168.5q0 122 -92 184.5
t-286 62.5h-303z" />
    <glyph glyph-name="racute" unicode="&#x155;" horiz-adv-x="791" 
d="M336 1194l231 319h187l-326 -319h-92zM31 0l190 1079h141l-38 -213h4q37 45 84 87t103 75t123 52.5t142 19.5h17l-25 -129q-27 0 -35 1t-12 1q-53 0 -110.5 -18.5t-115 -53.5t-109.5 -85t-95 -114l-123 -702h-141z" />
    <glyph glyph-name="Rcommaaccent" unicode="&#x156;" horiz-adv-x="1354" 
d="M477 -283h-65l30 183h170l-28 -164l-127 -221h-64zM61 0l267 1516h440q242 0 377 -92.5t135 -276.5q0 -72 -20.5 -147.5t-69.5 -140t-132 -111t-208 -58.5l246 -690h-148l-241 680h-383l-119 -680h-144zM348 809h383q80 0 152.5 11t128 47t87 99.5t31.5 168.5
q0 122 -92 184.5t-286 62.5h-303z" />
    <glyph glyph-name="rcommaaccent" unicode="&#x157;" horiz-adv-x="791" 
d="M43 -283h-66l31 183h170l-28 -164l-127 -221h-64zM31 0l190 1079h141l-38 -213h4q37 45 84 87t103 75t123 52.5t142 19.5h17l-25 -129q-27 0 -35 1t-12 1q-53 0 -110.5 -18.5t-115 -53.5t-109.5 -85t-95 -114l-123 -702h-141z" />
    <glyph glyph-name="Rcaron" unicode="&#x158;" horiz-adv-x="1354" 
d="M770 1610l-199 325h91l186 -200l256 200h86l-311 -325h-109zM61 0l267 1516h440q242 0 377 -92.5t135 -276.5q0 -72 -20.5 -147.5t-69.5 -140t-132 -111t-208 -58.5l246 -690h-148l-241 680h-383l-119 -680h-144zM348 809h383q80 0 152.5 11t128 47t87 99.5t31.5 168.5
q0 122 -92 184.5t-286 62.5h-303z" />
    <glyph glyph-name="rcaron" unicode="&#x159;" horiz-adv-x="791" 
d="M420 1196l-199 326h90l187 -201l256 201h86l-312 -326h-108zM31 0l190 1079h141l-38 -213h4q37 45 84 87t103 75t123 52.5t142 19.5h17l-25 -129q-27 0 -35 1t-12 1q-53 0 -110.5 -18.5t-115 -53.5t-109.5 -85t-95 -114l-123 -702h-141z" />
    <glyph glyph-name="Sacute" unicode="&#x15a;" horiz-adv-x="1309" 
d="M664 1608l231 319h186l-325 -319h-92zM582 -29q-129 0 -223.5 28t-159 80t-101.5 127t-49 171l139 26q23 -159 119 -231t287 -72q80 0 149.5 18.5t122 55.5t82 95.5t29.5 138.5q0 96 -55.5 154.5t-139.5 100.5t-180 75.5t-180 79.5t-139.5 113.5t-55.5 178.5
q0 102 39 183t105.5 136.5t154.5 85t187 29.5q123 0 211 -25.5t147 -70.5t93 -109.5t53 -140.5l-138 -37q-28 142 -123.5 197t-253.5 55q-145 0 -236 -76.5t-91 -206.5q0 -86 55 -140t139 -93t180.5 -74t180.5 -84t139 -121.5t55 -187.5q0 -119 -45 -206t-120.5 -143
t-173 -83t-203.5 -27z" />
    <glyph glyph-name="sacute" unicode="&#x15b;" horiz-adv-x="1016" 
d="M446 1194l232 319h186l-325 -319h-93zM410 -18q-177 0 -275 56t-153 152l112 68q41 -68 118 -114t206 -48q123 0 201.5 46t78.5 155q0 61 -42 99t-105.5 64.5t-136 50.5t-136 57.5t-105.5 85t-42 132.5q0 144 100.5 229t268.5 85q82 0 146.5 -13.5t113.5 -37t85 -54
t62 -65.5l-102 -84q-47 65 -124 101t-185 36q-113 0 -168.5 -50t-55.5 -124q0 -64 42 -101.5t104.5 -64.5t136.5 -49.5t136.5 -55t104.5 -84t42 -135.5q0 -96 -36 -160.5t-96.5 -103.5t-137 -56t-158.5 -17z" />
    <glyph glyph-name="Scircumflex" unicode="&#x15c;" horiz-adv-x="1309" 
d="M483 1610l314 325h106l199 -325h-90l-187 200l-256 -200h-86zM582 -29q-129 0 -223.5 28t-159 80t-101.5 127t-49 171l139 26q23 -159 119 -231t287 -72q80 0 149.5 18.5t122 55.5t82 95.5t29.5 138.5q0 96 -55.5 154.5t-139.5 100.5t-180 75.5t-180 79.5t-139.5 113.5
t-55.5 178.5q0 102 39 183t105.5 136.5t154.5 85t187 29.5q123 0 211 -25.5t147 -70.5t93 -109.5t53 -140.5l-138 -37q-28 142 -123.5 197t-253.5 55q-145 0 -236 -76.5t-91 -206.5q0 -86 55 -140t139 -93t180.5 -74t180.5 -84t139 -121.5t55 -187.5q0 -119 -45 -206
t-120.5 -143t-173 -83t-203.5 -27z" />
    <glyph glyph-name="scircumflex" unicode="&#x15d;" horiz-adv-x="1016" 
d="M256 1188l313 325h107l198 -325h-90l-186 201l-256 -201h-86zM410 -18q-177 0 -275 56t-153 152l112 68q41 -68 118 -114t206 -48q123 0 201.5 46t78.5 155q0 61 -42 99t-105.5 64.5t-136 50.5t-136 57.5t-105.5 85t-42 132.5q0 144 100.5 229t268.5 85q82 0 146.5 -13.5
t113.5 -37t85 -54t62 -65.5l-102 -84q-47 65 -124 101t-185 36q-113 0 -168.5 -50t-55.5 -124q0 -64 42 -101.5t104.5 -64.5t136.5 -49.5t136.5 -55t104.5 -84t42 -135.5q0 -96 -36 -160.5t-96.5 -103.5t-137 -56t-158.5 -17z" />
    <glyph glyph-name="Scedilla" unicode="&#x15e;" horiz-adv-x="1309" 
d="M477 -399q-86 0 -146.5 20.5t-107.5 54.5l49 60q41 -31 85 -46.5t110 -15.5q143 0 143 107q0 29 -18.5 46t-54.5 17q-23 0 -49.5 -11t-49.5 -30l-51 27l72 150q-195 22 -291 126.5t-119 270.5l139 26q23 -159 119 -231t287 -72q80 0 149.5 18.5t122 55.5t82 95.5
t29.5 138.5q0 96 -55.5 154.5t-139.5 100.5t-180 75.5t-180 79.5t-139.5 113.5t-55.5 178.5q0 102 39 183t105.5 136.5t154.5 85t187 29.5q123 0 211 -25.5t147 -70.5t93 -109.5t53 -140.5l-138 -37q-28 142 -123.5 197t-253.5 55q-145 0 -236 -76.5t-91 -206.5
q0 -86 55 -140t139 -93t180.5 -74t180.5 -84t139 -121.5t55 -187.5q0 -119 -45 -206t-120.5 -143t-173 -83t-203.5 -27q-11 0 -20 1t-19 1l-39 -86q37 31 96 31q53 0 89 -34t36 -91t-22.5 -95t-58.5 -59.5t-80 -29.5t-87 -8z" />
    <glyph glyph-name="scedilla" unicode="&#x15f;" horiz-adv-x="1016" 
d="M332 -399q-86 0 -146.5 20.5t-107.5 54.5l49 60q41 -31 85 -46.5t110 -15.5q143 0 143 107q0 29 -18.5 46t-55.5 17q-22 0 -49 -11t-49 -30l-51 27l73 156q-131 14 -208.5 68.5t-124.5 135.5l112 68q41 -68 118 -114t206 -48q123 0 201.5 46t78.5 155q0 61 -42 99
t-105.5 64.5t-136 50.5t-136 57.5t-105.5 85t-42 132.5q0 144 100.5 229t268.5 85q82 0 146.5 -13.5t113.5 -37t85 -54t62 -65.5l-102 -84q-47 65 -124 101t-185 36q-113 0 -168.5 -50t-55.5 -124q0 -64 42 -101.5t104.5 -64.5t136.5 -49.5t136.5 -55t104.5 -84t42 -135.5
q0 -96 -36 -160.5t-96.5 -103.5t-137 -56t-158.5 -17h-9l-43 -95q37 31 97 31q53 0 89 -34t36 -91t-22.5 -95t-58.5 -59.5t-80 -29.5t-87 -8z" />
    <glyph glyph-name="Scaron" unicode="&#x160;" horiz-adv-x="1309" 
d="M748 1620l-199 326h90l186 -201l256 201h86l-311 -326h-108zM582 -29q-129 0 -223.5 28t-159 80t-101.5 127t-49 171l139 26q23 -159 119 -231t287 -72q80 0 149.5 18.5t122 55.5t82 95.5t29.5 138.5q0 96 -55.5 154.5t-139.5 100.5t-180 75.5t-180 79.5t-139.5 113.5
t-55.5 178.5q0 102 39 183t105.5 136.5t154.5 85t187 29.5q123 0 211 -25.5t147 -70.5t93 -109.5t53 -140.5l-138 -37q-28 142 -123.5 197t-253.5 55q-145 0 -236 -76.5t-91 -206.5q0 -86 55 -140t139 -93t180.5 -74t180.5 -84t139 -121.5t55 -187.5q0 -119 -45 -206
t-120.5 -143t-173 -83t-203.5 -27z" />
    <glyph glyph-name="scaron" unicode="&#x161;" horiz-adv-x="1016" 
d="M532 1196l-198 326h90l186 -201l256 201h86l-311 -326h-109zM410 -18q-177 0 -275 56t-153 152l112 68q41 -68 118 -114t206 -48q123 0 201.5 46t78.5 155q0 61 -42 99t-105.5 64.5t-136 50.5t-136 57.5t-105.5 85t-42 132.5q0 144 100.5 229t268.5 85q82 0 146.5 -13.5
t113.5 -37t85 -54t62 -65.5l-102 -84q-47 65 -124 101t-185 36q-113 0 -168.5 -50t-55.5 -124q0 -64 42 -101.5t104.5 -64.5t136.5 -49.5t136.5 -55t104.5 -84t42 -135.5q0 -96 -36 -160.5t-96.5 -103.5t-137 -56t-158.5 -17z" />
    <glyph glyph-name="Tcommaaccent" unicode="&#x162;" horiz-adv-x="1243" 
d="M422 -283h-66l31 183h170l-29 -164l-127 -221h-63zM416 0l241 1380h-477l23 136h1104l-25 -136h-479l-242 -1380h-145z" />
    <glyph glyph-name="Tcommaaccent" unicode="&#x21a;" horiz-adv-x="1243" 
d="M422 -283h-66l31 183h170l-29 -164l-127 -221h-63zM416 0l241 1380h-477l23 136h1104l-25 -136h-479l-242 -1380h-145z" />
    <glyph glyph-name="tcommaaccent" unicode="&#x163;" horiz-adv-x="729" 
d="M162 -283h-66l31 183h170l-29 -164l-127 -221h-63zM387 -14q-84 0 -136 19.5t-78 56t-30 91t9 123.5l120 682h-186l20 121h189l65 387h142l-66 -387h262l-22 -121h-262l-119 -669q-8 -47 -9 -82t12 -57.5t43 -34t83 -11.5q51 0 98 13l8 -117q-26 -6 -69 -10t-74 -4z" />
    <glyph glyph-name="tcommaaccent" unicode="&#x21b;" horiz-adv-x="729" 
d="M162 -283h-66l31 183h170l-29 -164l-127 -221h-63zM387 -14q-84 0 -136 19.5t-78 56t-30 91t9 123.5l120 682h-186l20 121h189l65 387h142l-66 -387h262l-22 -121h-262l-119 -669q-8 -47 -9 -82t12 -57.5t43 -34t83 -11.5q51 0 98 13l8 -117q-26 -6 -69 -10t-74 -4z" />
    <glyph glyph-name="Tcaron" unicode="&#x164;" horiz-adv-x="1243" 
d="M717 1610l-199 325h90l187 -200l256 200h86l-312 -325h-108zM416 0l241 1380h-477l23 136h1104l-25 -136h-479l-242 -1380h-145z" />
    <glyph glyph-name="tcaron" unicode="&#x165;" horiz-adv-x="729" 
d="M709 1452h-66l31 180h168l-29 -162l-127 -219h-61zM387 -14q-84 0 -136 19.5t-78 56t-30 91t9 123.5l120 682h-186l20 121h189l65 387h142l-66 -387h262l-22 -121h-262l-119 -669q-8 -47 -9 -82t12 -57.5t43 -34t83 -11.5q51 0 98 13l8 -117q-26 -6 -69 -10t-74 -4z" />
    <glyph glyph-name="Tbar" unicode="&#x166;" horiz-adv-x="1243" 
d="M82 819h477l98 561h-477l23 136h1104l-25 -136h-479l-98 -561h479l-23 -123h-479l-121 -696h-145l121 696h-478z" />
    <glyph glyph-name="tbar" unicode="&#x167;" horiz-adv-x="729" 
d="M27 621h184l61 337h-186l23 121h186l65 387h142l-66 -387h262l-22 -121h-262l-62 -337h266l-20 -111h-264l-39 -217q-8 -47 -9 -83t11 -59.5t43 -35t84 -11.5q49 0 98 13l8 -117q-26 -6 -69 -10t-74 -4q-84 0 -136 19.5t-78 56t-30 91t9 123.5l41 234h-187z" />
    <glyph glyph-name="Utilde" unicode="&#x168;" horiz-adv-x="1444" 
d="M629 -29q-158 0 -260.5 48.5t-158.5 129t-69.5 187t6.5 223.5l166 957h146l-166 -963q-17 -92 -9.5 -174t46.5 -143.5t111.5 -96.5t187.5 -35q196 0 302.5 95.5t139.5 285.5l180 1031h146l-187 -1057q-41 -236 -188.5 -362t-392.5 -126zM1020 1610q-39 0 -77 17.5
t-73.5 39t-67.5 39.5t-59 18q-45 0 -68.5 -25.5t-33.5 -84.5h-96q16 117 65 171t135 54q41 0 80 -18.5t74 -40t65.5 -39t55.5 -17.5q47 0 70.5 26t33.5 85h99q-39 -225 -203 -225z" />
    <glyph glyph-name="utilde" unicode="&#x169;" horiz-adv-x="1165" 
d="M360 -23q-176 0 -242.5 94.5t-39.5 245.5l133 762h141l-131 -745q-20 -115 23 -175.5t170 -60.5q90 0 181 51.5t183 135.5l140 794h141l-191 -1079h-141l31 172q-35 -37 -81 -71.5t-98.5 -62.5t-107.5 -44.5t-111 -16.5zM809 1188q-39 0 -77 17.5t-73.5 39t-67.5 40
t-59 18.5q-45 0 -68.5 -26t-33.5 -85h-96q16 117 65.5 171t135.5 54q40 0 79 -18.5t74 -40t65.5 -38.5t55.5 -17q47 0 70.5 25.5t33.5 84.5h99q-39 -225 -203 -225z" />
    <glyph glyph-name="Umacron" unicode="&#x16a;" horiz-adv-x="1444" 
d="M629 -29q-158 0 -260.5 48.5t-158.5 129t-69.5 187t6.5 223.5l166 957h146l-166 -963q-17 -92 -9.5 -174t46.5 -143.5t111.5 -96.5t187.5 -35q196 0 302.5 95.5t139.5 285.5l180 1031h146l-187 -1057q-41 -236 -188.5 -362t-392.5 -126zM623 1608l20 121h502l-21 -121
h-501z" />
    <glyph glyph-name="umacron" unicode="&#x16b;" horiz-adv-x="1165" 
d="M360 -23q-176 0 -242.5 94.5t-39.5 245.5l133 762h141l-131 -745q-20 -115 23 -175.5t170 -60.5q90 0 181 51.5t183 135.5l140 794h141l-191 -1079h-141l31 172q-35 -37 -81 -71.5t-98.5 -62.5t-107.5 -44.5t-111 -16.5zM410 1194l20 121h502l-21 -121h-501z" />
    <glyph glyph-name="Ubreve" unicode="&#x16c;" horiz-adv-x="1444" 
d="M629 -29q-158 0 -260.5 48.5t-158.5 129t-69.5 187t6.5 223.5l166 957h146l-166 -963q-17 -92 -9.5 -174t46.5 -143.5t111.5 -96.5t187.5 -35q196 0 302.5 95.5t139.5 285.5l180 1031h146l-187 -1057q-41 -236 -188.5 -362t-392.5 -126zM881 1610q-150 0 -215.5 91
t-53.5 245h90q3 -121 41.5 -172.5t145.5 -51.5q82 0 142.5 50.5t88.5 173.5h90q-26 -160 -111 -248t-218 -88z" />
    <glyph glyph-name="ubreve" unicode="&#x16d;" horiz-adv-x="1165" 
d="M360 -23q-176 0 -242.5 94.5t-39.5 245.5l133 762h141l-131 -745q-20 -115 23 -175.5t170 -60.5q90 0 181 51.5t183 135.5l140 794h141l-191 -1079h-141l31 172q-35 -37 -81 -71.5t-98.5 -62.5t-107.5 -44.5t-111 -16.5zM655 1188q-149 0 -214.5 91t-53.5 245h90
q2 -121 41 -172.5t146 -51.5q81 0 141.5 50.5t89.5 173.5h90q-27 -160 -112 -248t-218 -88z" />
    <glyph glyph-name="Uring" unicode="&#x16e;" horiz-adv-x="1444" 
d="M889 1665q47 0 82 35t35 98q0 41 -22.5 68.5t-68.5 27.5q-47 0 -80.5 -35.5t-33.5 -97.5q0 -41 21.5 -68.5t66.5 -27.5zM885 1593q-80 0 -122 48.5t-42 117.5q0 47 16.5 86t44 65.5t64.5 41t76 14.5q79 0 121 -48t42 -114q0 -49 -17 -88t-45 -66.5t-64.5 -42t-73.5 -14.5
zM629 -29q-158 0 -260.5 48.5t-158.5 129t-69.5 187t6.5 223.5l166 957h146l-166 -963q-17 -92 -9.5 -174t46.5 -143.5t111.5 -96.5t187.5 -35q196 0 302.5 95.5t139.5 285.5l180 1031h146l-187 -1057q-41 -236 -188.5 -362t-392.5 -126z" />
    <glyph glyph-name="uring" unicode="&#x16f;" horiz-adv-x="1165" 
d="M676 1251q47 0 82 35t35 98q0 41 -22.5 69t-68.5 28q-47 0 -80.5 -36t-33.5 -97q0 -41 21.5 -69t66.5 -28zM672 1180q-80 0 -122 48t-42 118q0 47 16.5 85.5t44 65.5t64.5 41t76 14q79 0 121 -48t42 -113q0 -50 -17 -88.5t-45 -66.5t-64.5 -42t-73.5 -14zM360 -23
q-176 0 -242.5 94.5t-39.5 245.5l133 762h141l-131 -745q-20 -115 23 -175.5t170 -60.5q90 0 181 51.5t183 135.5l140 794h141l-191 -1079h-141l31 172q-35 -37 -81 -71.5t-98.5 -62.5t-107.5 -44.5t-111 -16.5z" />
    <glyph glyph-name="Uhungarumlaut" unicode="&#x170;" horiz-adv-x="1444" 
d="M629 -29q-158 0 -260.5 48.5t-158.5 129t-69.5 187t6.5 223.5l166 957h146l-166 -963q-17 -92 -9.5 -174t46.5 -143.5t111.5 -96.5t187.5 -35q196 0 302.5 95.5t139.5 285.5l180 1031h146l-187 -1057q-41 -236 -188.5 -362t-392.5 -126zM938 1608l233 319h191l-330 -319
h-94zM608 1608l232 319h190l-328 -319h-94z" />
    <glyph glyph-name="uhungarumlaut" unicode="&#x171;" horiz-adv-x="1165" 
d="M360 -23q-176 0 -242.5 94.5t-39.5 245.5l133 762h141l-131 -745q-20 -115 23 -175.5t170 -60.5q90 0 181 51.5t183 135.5l140 794h141l-191 -1079h-141l31 172q-35 -37 -81 -71.5t-98.5 -62.5t-107.5 -44.5t-111 -16.5zM729 1194l234 319h190l-330 -319h-94zM399 1194
l232 319h190l-327 -319h-95z" />
    <glyph glyph-name="Uogonek" unicode="&#x172;" horiz-adv-x="1444" 
d="M623 -29q-64 -45 -101 -92t-37 -100q0 -35 25 -57.5t84 -22.5q35 0 74 7t94 28l20 -53q-53 -29 -109.5 -46.5t-113.5 -17.5q-102 0 -149.5 41t-47.5 102q0 66 44.5 118t115.5 99q-125 17 -207 69t-125 131t-52 177.5t9 204.5l166 957h146l-166 -963q-17 -92 -9.5 -174
t46.5 -143.5t111.5 -96.5t187.5 -35q196 0 302.5 95.5t139.5 285.5l180 1031h146l-187 -1057q-41 -236 -188.5 -362t-392.5 -126h-6z" />
    <glyph glyph-name="uogonek" unicode="&#x173;" horiz-adv-x="1165" 
d="M360 -23q-176 0 -242.5 94.5t-39.5 245.5l133 762h141l-131 -745q-20 -115 23 -175.5t170 -60.5q90 0 181 51.5t183 135.5l140 794h141l-191 -1079h-45q-78 -51 -128 -105.5t-50 -115.5q0 -35 24.5 -57.5t84.5 -22.5q34 0 73 7t95 28l20 -53q-53 -29 -109.5 -46.5
t-113.5 -17.5q-103 0 -150 41t-47 102q0 78 58.5 135.5t146.5 110.5l31 166q-35 -37 -81 -71.5t-98.5 -62.5t-107.5 -44.5t-111 -16.5z" />
    <glyph glyph-name="Wcircumflex" unicode="&#x174;" horiz-adv-x="1874" 
d="M776 1610l314 325h106l199 -325h-90l-187 200l-256 -200h-86zM342 0l-127 1516h143l66 -920q8 -104 14 -203.5t11 -177.5h4q28 78 70 176t85 203l385 922h156l65 -930q9 -105 14 -195t7 -176h4q37 92 73 177t79 188l393 936h141l-657 -1516h-138l-94 1315h-4l-553 -1315
h-137z" />
    <glyph glyph-name="wcircumflex" unicode="&#x175;" horiz-adv-x="1509" 
d="M244 0l-129 1079h141l51 -534q8 -90 18.5 -177t16.5 -190h4q25 58 44.5 103t37.5 87t36.5 84t41.5 93l242 534h131l53 -544l33 -357h4q22 53 41.5 97t38 84t36 81t39.5 90l248 549h139l-512 -1079h-131l-90 887h-4l-401 -887h-129zM520 1188l314 325h106l199 -325h-90
l-187 201l-256 -201h-86z" />
    <glyph glyph-name="Ycircumflex" unicode="&#x176;" horiz-adv-x="1245" 
d="M416 0l116 668l-348 848h150l291 -723l540 723h162l-649 -848l-117 -668h-145zM453 1610l313 325h106l199 -325h-90l-186 200l-256 -200h-86z" />
    <glyph glyph-name="ycircumflex" unicode="&#x177;" horiz-adv-x="1059" 
d="M43 -414q-57 0 -104.5 10.5t-81.5 26.5l49 117q26 -10 64 -21.5t75 -11.5q72 0 119 42t84 110l76 135l-211 1085h147l164 -911h4l485 911h150l-701 -1261q-32 -62 -65 -105t-70 -71.5t-82 -42t-102 -13.5zM295 1188l313 325h107l198 -325h-90l-186 201l-256 -201h-86z
" />
    <glyph glyph-name="Ydieresis" unicode="&#x178;" horiz-adv-x="1245" 
d="M416 0l116 668l-348 848h150l291 -723l540 723h162l-649 -848l-117 -668h-145zM862 1618l29 168h160l-29 -168h-160zM520 1618l29 168h158l-29 -168h-158z" />
    <glyph glyph-name="Zacute" unicode="&#x179;" horiz-adv-x="1255" 
d="M639 1608l231 319h187l-326 -319h-92zM-47 0l20 111l1108 1275h-823l21 130h1005l-18 -111l-1104 -1278h880l-24 -127h-1065z" />
    <glyph glyph-name="zacute" unicode="&#x17a;" horiz-adv-x="1016" 
d="M444 1194l232 319h186l-325 -319h-93zM-49 0l16 90l785 871h-580l23 118h763l-16 -92l-788 -870h661l-20 -117h-844z" />
    <glyph glyph-name="Zdotaccent" unicode="&#x17b;" horiz-adv-x="1255" 
d="M-47 0l20 111l1108 1275h-823l21 130h1005l-18 -111l-1104 -1278h880l-24 -127h-1065zM692 1614l29 164h174l-29 -164h-174z" />
    <glyph glyph-name="zdotaccent" unicode="&#x17c;" horiz-adv-x="1016" 
d="M-49 0l16 90l785 871h-580l23 118h763l-16 -92l-788 -870h661l-20 -117h-844zM498 1200l28 164h174l-28 -164h-174z" />
    <glyph glyph-name="Zcaron" unicode="&#x17d;" horiz-adv-x="1255" 
d="M723 1620l-199 326h90l187 -201l256 201h86l-312 -326h-108zM-47 0l20 111l1108 1275h-823l21 130h1005l-18 -111l-1104 -1278h880l-24 -127h-1065z" />
    <glyph glyph-name="zcaron" unicode="&#x17e;" horiz-adv-x="1016" 
d="M532 1196l-198 326h90l186 -201l256 201h86l-311 -326h-109zM-49 0l16 90l785 871h-580l23 118h763l-16 -92l-788 -870h661l-20 -117h-844z" />
    <glyph glyph-name="longs" unicode="&#x17f;" horiz-adv-x="694" 
d="M260 0h-141l223 1260q10 63 35.5 111t70 81t113 49.5t164.5 16.5q16 0 39.5 -1t28.5 -4l-21 -104q-4 0 -14 1t-21 1q-119 0 -180 -36t-78 -142z" />
    <glyph glyph-name="florin" unicode="&#x192;" horiz-adv-x="682" 
d="M-176 -412q-21 0 -44.5 1t-35.5 3l23 115q10 -4 31 -4h36q82 0 136.5 37t70.5 125l174 985h-188l20 115h189l47 276q24 141 109 209t249 68q21 0 44.5 -1t35.5 -4l-23 -114q-10 2 -31 2h-38q-78 0 -134.5 -34t-70.5 -122l-47 -280h237l-20 -115h-238l-176 -991
q-24 -135 -107 -203t-249 -68z" />
    <glyph glyph-name="Aringacute" unicode="&#x1fa;" horiz-adv-x="1350" 
d="M739 1886l232 319h186l-325 -319h-93zM-59 0l774 1487q-31 20 -46.5 55t-15.5 76q0 47 16.5 86t44 65.5t64.5 41t76 14.5q80 0 122 -48t42 -114q0 -72 -35 -119t-82 -69l250 -1475h-143l-78 477h-594l-246 -477h-149zM397 596h514l-123 754h-4zM821 1524q47 0 82 34.5
t35 98.5q0 41 -22.5 68.5t-67.5 27.5q-47 0 -81 -36t-34 -97q0 -41 21.5 -68.5t66.5 -27.5z" />
    <glyph glyph-name="aringacute" unicode="&#x1fb;" horiz-adv-x="1094" 
d="M557 1640l232 319h186l-325 -319h-93zM340 98q98 0 199.5 45t199.5 125l58 328q-197 -21 -322 -55.5t-197.5 -80.5t-100 -100.5t-27.5 -111.5q0 -70 48 -110t142 -40zM299 -18q-143 0 -218 66.5t-75 172.5q0 90 43 170t138.5 141.5t250 104.5t377.5 59l10 56
q23 110 -25 169.5t-179 59.5q-56 0 -111 -13.5t-106.5 -34t-95.5 -48t-75 -54.5l-71 93q39 32 89 64t109.5 56.5t129 40t149.5 15.5q104 0 173 -26.5t106.5 -76t48 -117t-3.5 -147.5l-82 -467q-9 -45 -14 -78.5t-7 -64.5t-1 -59.5t5 -63.5h-147q-4 41 -4 76t8 78
q-109 -86 -216.5 -129t-205.5 -43zM651 1251q47 0 82 35t35 98q0 41 -22.5 69t-67.5 28q-47 0 -81 -36t-34 -97q0 -41 21.5 -69t66.5 -28zM647 1180q-80 0 -122 48t-42 118q0 47 16.5 85.5t44 65.5t64.5 41t76 14q80 0 122 -48t42 -113q0 -50 -17.5 -88.5t-45 -66.5
t-64.5 -42t-74 -14z" />
    <glyph glyph-name="AEacute" unicode="&#x1fc;" horiz-adv-x="2042" 
d="M1040 1606l232 319h186l-325 -319h-93zM528 614h445l139 785h-2zM-84 0l1128 1516h971l-24 -136h-740l-90 -514h547l-22 -131h-547l-107 -602h785l-25 -133h-928l86 487h-516l-364 -487h-154z" />
    <glyph glyph-name="aeacute" unicode="&#x1fd;" horiz-adv-x="1812" 
d="M876 1194l232 319h186l-325 -319h-93zM299 -18q-143 0 -218 66.5t-75 172.5q0 90 43 170t138.5 141.5t250 104.5t377.5 59l10 56q23 110 -24 169.5t-180 59.5q-56 0 -111 -13.5t-106.5 -34t-95.5 -48t-75 -54.5l-71 93q39 32 89 64t109.5 56.5t129 40t149.5 15.5
q143 0 214 -51.5t89 -137.5q86 99 190.5 144t190.5 45q119 0 199 -44t123 -121t51 -178.5t-13 -217.5l-4 -27h-761q-3 -18 -3 -38v-40q0 -96 28 -161.5t70 -104.5t92 -55.5t97 -16.5q123 0 202 55.5t138 143.5l100 -68q-77 -114 -188 -182t-268 -68q-129 0 -222.5 60.5
t-140.5 173.5q-47 -39 -108.5 -80t-130 -73.5t-142 -54t-143.5 -21.5zM784 432q0 86 13 164q-193 -18 -318 -54t-198.5 -82t-102 -100.5t-28.5 -111.5q0 -70 48 -110t142 -40q47 0 104.5 15.5t117 43t119.5 66.5t114 86q-4 29 -7.5 58.5t-3.5 64.5zM1561 625q8 69 1.5 133.5
t-35 114t-81.5 79t-135 29.5q-60 0 -117 -22.5t-107.5 -66.5t-90.5 -111.5t-60 -155.5h625z" />
    <glyph glyph-name="Oslashacute" unicode="&#x1fe;" horiz-adv-x="1511" 
d="M643 -29q-127 0 -225.5 46t-169.5 130l-172 -184l-76 62l193 204q-91 158 -91 381q0 221 64.5 395.5t171 294t243 182t281.5 62.5q123 0 221.5 -46t167.5 -130l172 184l74 -59l-190 -205q90 -155 90 -381q0 -221 -63.5 -395t-169 -294t-242 -183.5t-279.5 -63.5zM655 100
q109 0 215.5 50.5t191.5 151.5t137 253t52 354q0 78 -13 146.5t-36 126.5l-862 -928q53 -74 132 -114t183 -40zM846 1415q-109 0 -215.5 -50t-191.5 -151.5t-138 -252t-53 -353.5q0 -164 49 -276l860 932q-53 71 -130 111t-181 40zM755 1606l232 319h186l-325 -319h-93z" />
    <glyph glyph-name="oslashacute" unicode="&#x1ff;" horiz-adv-x="1169" 
d="M473 -23q-172 0 -283 101l-131 -146l-69 60l143 153q-82 119 -82 295q0 168 51.5 292t131 206t179 122t197.5 40q86 0 157 -26.5t124 -76.5l135 150l70 -62l-144 -157q39 -58 59.5 -131.5t20.5 -159.5q0 -166 -50 -290t-130 -206t-180.5 -123t-198.5 -41zM483 94
q82 0 157 38t131 107.5t89 170t33 223.5q0 53 -9.5 103t-29.5 91l-578 -651q35 -39 85.5 -60.5t121.5 -21.5zM600 983q-84 0 -157.5 -39t-129 -109.5t-87 -170t-31.5 -222.5q0 -55 8 -105t26 -91l578 653q-74 84 -207 84zM516 1194l232 319h186l-325 -319h-93z" />
    <glyph glyph-name="Scommaaccent" unicode="&#x218;" horiz-adv-x="1309" 
d="M455 -283h-66l31 183h170l-29 -164l-127 -221h-63zM582 -29q-129 0 -223.5 28t-159 80t-101.5 127t-49 171l139 26q23 -159 119 -231t287 -72q80 0 149.5 18.5t122 55.5t82 95.5t29.5 138.5q0 96 -55.5 154.5t-139.5 100.5t-180 75.5t-180 79.5t-139.5 113.5t-55.5 178.5
q0 102 39 183t105.5 136.5t154.5 85t187 29.5q123 0 211 -25.5t147 -70.5t93 -109.5t53 -140.5l-138 -37q-28 142 -123.5 197t-253.5 55q-145 0 -236 -76.5t-91 -206.5q0 -86 55 -140t139 -93t180.5 -74t180.5 -84t139 -121.5t55 -187.5q0 -119 -45 -206t-120.5 -143
t-173 -83t-203.5 -27z" />
    <glyph glyph-name="scommaaccent" unicode="&#x219;" horiz-adv-x="1016" 
d="M309 -283h-65l30 183h170l-28 -164l-127 -221h-64zM410 -18q-177 0 -275 56t-153 152l112 68q41 -68 118 -114t206 -48q123 0 201.5 46t78.5 155q0 61 -42 99t-105.5 64.5t-136 50.5t-136 57.5t-105.5 85t-42 132.5q0 144 100.5 229t268.5 85q82 0 146.5 -13.5t113.5 -37
t85 -54t62 -65.5l-102 -84q-47 65 -124 101t-185 36q-113 0 -168.5 -50t-55.5 -124q0 -64 42 -101.5t104.5 -64.5t136.5 -49.5t136.5 -55t104.5 -84t42 -135.5q0 -96 -36 -160.5t-96.5 -103.5t-137 -56t-158.5 -17z" />
    <glyph glyph-name="schwa" unicode="&#x259;" horiz-adv-x="1102" 
d="M567 1100q90 0 165 -32t129 -90t84 -142t30 -191q0 -184 -56.5 -311t-139.5 -206t-177 -115t-172 -36q-121 0 -200.5 44.5t-123 121t-51.5 178t13 218.5l4 26h762q0 17 1 39.5t1 38.5q0 96 -28 161.5t-70 105.5t-93 56.5t-96 16.5q-123 0 -202 -55.5t-138 -145.5l-100 70
q77 115 188 181.5t270 66.5zM190 455q-10 -72 -1.5 -136.5t37 -113.5t80.5 -79t134 -30q60 0 118 22.5t108.5 67.5t89.5 112t59 157h-625z" />
    <glyph glyph-name="circumflex" unicode="&#x2c6;" horiz-adv-x="1026" 
d="M281 1188l313 325h106l199 -325h-90l-186 201l-256 -201h-86z" />
    <glyph glyph-name="caron" unicode="&#x2c7;" horiz-adv-x="1026" 
d="M537 1196l-199 326h90l186 -201l256 201h86l-311 -326h-108z" />
    <glyph glyph-name="breve" unicode="&#x2d8;" horiz-adv-x="1006" 
d="M608 1188q-149 0 -214.5 91t-53.5 245h90q2 -121 41 -172.5t145 -51.5q82 0 142.5 50.5t89.5 173.5h90q-27 -160 -112 -248t-218 -88z" />
    <glyph glyph-name="dotaccent" unicode="&#x2d9;" horiz-adv-x="1006" 
d="M496 1200l28 164h174l-28 -164h-174z" />
    <glyph glyph-name="ring" unicode="&#x2da;" horiz-adv-x="1087" 
d="M639 1251q47 0 82 35t35 98q0 41 -22.5 69t-67.5 28q-48 0 -81.5 -36t-33.5 -97q0 -41 21.5 -69t66.5 -28zM635 1180q-80 0 -122 48t-42 118q0 47 16.5 85.5t44 65.5t64.5 41t76 14q80 0 122 -48t42 -113q0 -50 -17.5 -88.5t-45.5 -66.5t-64.5 -42t-73.5 -14z" />
    <glyph glyph-name="ogonek" unicode="&#x2db;" horiz-adv-x="1006" 
d="M342 -383q-102 0 -149.5 41t-47.5 102q0 78 62.5 138.5t154.5 113.5h105q-88 -53 -143.5 -110.5t-55.5 -122.5q0 -35 24.5 -57.5t84.5 -22.5q35 0 73.5 7t94.5 28l20 -53q-53 -29 -109.5 -46.5t-113.5 -17.5z" />
    <glyph glyph-name="tilde" unicode="&#x2dc;" horiz-adv-x="1016" 
d="M743 1188q-38 0 -76 17.5t-74 39t-67.5 40t-58.5 18.5q-45 0 -68.5 -26t-33.5 -85h-97q17 117 66 171t135 54q41 0 80 -18.5t73.5 -40t65.5 -38.5t55 -17q48 0 71.5 25.5t33.5 84.5h98q-39 -225 -203 -225z" />
    <glyph glyph-name="hungarumlaut" unicode="&#x2dd;" horiz-adv-x="1016" 
d="M578 1194l233 319h190l-329 -319h-94zM248 1194l231 319h191l-328 -319h-94z" />
    <glyph glyph-name="commaaccent" unicode="&#x326;" horiz-adv-x="549" 
d="M76 -283h-66l31 183h170l-29 -164l-127 -221h-63z" />
    <glyph glyph-name="tonos" unicode="&#x384;" horiz-adv-x="1024" 
d="M530 1530h166l-260 -336h-96z" />
    <glyph glyph-name="dieresistonos" unicode="&#x385;" horiz-adv-x="1047" 
d="M193 1362h135l-29 -168h-133zM717 1362h135l-29 -168h-135zM559 1530h164l-258 -336h-96z" />
    <glyph glyph-name="Alphatonos" unicode="&#x386;" horiz-adv-x="1364" 
d="M-53 0l794 1522h158l258 -1522h-145l-76 473h-596l-244 -473h-149zM403 600h512l-121 750h-4zM291 1519h166l-260 -336h-96z" />
    <glyph glyph-name="Epsilontonos" unicode="&#x388;" horiz-adv-x="1479" 
d="M257 1519h166l-260 -336h-96zM323 0l267 1516h884l-24 -136h-739l-91 -514h547l-22 -131h-547l-107 -602h783l-23 -133h-928z" />
    <glyph glyph-name="Etatonos" unicode="&#x389;" horiz-adv-x="1743" 
d="M257 1519h166l-260 -336h-96zM323 0l267 1516h145l-115 -650h801l115 650h145l-266 -1516h-145l129 733h-801l-129 -733h-146z" />
    <glyph glyph-name="Iotatonos" unicode="&#x38a;" horiz-adv-x="840" 
d="M344 0l266 1516h146l-267 -1516h-145zM257 1519h166l-260 -336h-96z" />
    <glyph glyph-name="Omicrontonos" unicode="&#x38c;" horiz-adv-x="1702" 
d="M257 1519h166l-260 -336h-96zM854 102q113 0 220.5 50.5t191.5 152t135 252t51 352.5q0 115 -27.5 208t-79.5 158.5t-127 100.5t-171 35q-109 0 -215.5 -50t-191.5 -149.5t-138 -250t-53 -353.5q0 -116 27.5 -209.5t80 -159t127 -101.5t170.5 -36zM844 -29
q-127 0 -227.5 47.5t-170 132.5t-106.5 202.5t-37 256.5q0 221 64.5 395.5t171 294t243 182t281.5 62.5q125 0 224.5 -47t168 -131t105.5 -200.5t37 -258.5q0 -221 -62.5 -395t-167 -294t-240.5 -183.5t-284 -63.5z" />
    <glyph glyph-name="Upsilontonos" unicode="&#x38e;" horiz-adv-x="1581" 
d="M752 0l116 668l-348 848h150l291 -723l540 723h162l-649 -848l-117 -668h-145zM257 1519h166l-260 -336h-96z" />
    <glyph glyph-name="Omegatonos" unicode="&#x38f;" horiz-adv-x="1708" 
d="M1078 1546q149 0 252.5 -61.5t164 -164.5t78 -237.5t-7.5 -279.5q-39 -223 -163 -389t-304 -283h330l-23 -131h-475l25 131q86 53 161.5 122t137 151.5t104.5 182t62 214.5q22 131 10 243.5t-57.5 195.5t-124 130t-189.5 47q-108 0 -203.5 -43t-170 -124t-127 -194.5
t-76.5 -254.5q-37 -226 27.5 -389.5t195.5 -280.5l-25 -131h-467l25 131h328q-136 115 -199.5 294t-26.5 400q27 150 89.5 281t157.5 229.5t219 154.5t272 56zM257 1519h166l-260 -336h-96z" />
    <glyph glyph-name="iotadieresistonos" unicode="&#x390;" horiz-adv-x="492" 
d="M32 1362h135l-29 -168h-133zM556 1362h135l-29 -168h-135zM398 1530h164l-258 -336h-96zM43 0l190 1079h142l-191 -1079h-141z" />
    <glyph glyph-name="Alpha" unicode="&#x391;" horiz-adv-x="1358" 
d="M-59 0l794 1522h158l258 -1522h-145l-76 473h-596l-244 -473h-149zM397 600h512l-121 750h-4z" />
    <glyph glyph-name="Beta" unicode="&#x392;" horiz-adv-x="1382" 
d="M354 840h367q88 0 165 15t133 51t88 95.5t32 149.5q0 115 -88 174t-291 59h-311zM227 129h447q88 0 159.5 18.5t124 56.5t81 98t28.5 147q0 135 -105.5 201.5t-310.5 66.5h-319zM61 0l267 1516h450q131 0 227.5 -25t159 -70t92 -108.5t29.5 -141.5q0 -96 -30.5 -164.5
t-80 -114.5t-113 -72.5t-128.5 -41.5l-2 -4q123 -24 200.5 -105t77.5 -223q0 -108 -38.5 -191t-110.5 -139.5t-172.5 -86t-222.5 -29.5h-605z" />
    <glyph glyph-name="Gamma" unicode="&#x393;" horiz-adv-x="1137" 
d="M207 0h-146l267 1516h866l-23 -136h-722z" />
    <glyph glyph-name="uni0394" unicode="&#x394;" horiz-adv-x="1358" 
d="M735 1522h158l258 -1522h-1210zM152 121h837l-201 1229h-4z" />
    <glyph glyph-name="Epsilon" unicode="&#x395;" horiz-adv-x="1217" 
d="M61 0l267 1516h884l-24 -136h-739l-91 -514h547l-22 -131h-547l-107 -602h783l-23 -133h-928z" />
    <glyph glyph-name="Zeta" unicode="&#x396;" horiz-adv-x="1255" 
d="M-47 0l20 111l1108 1275h-823l21 130h1005l-18 -111l-1104 -1278h880l-24 -127h-1065z" />
    <glyph glyph-name="Eta" unicode="&#x397;" horiz-adv-x="1479" 
d="M61 0l267 1516h145l-115 -650h801l115 650h145l-266 -1516h-145l129 733h-801l-129 -733h-146z" />
    <glyph glyph-name="Theta" unicode="&#x398;" horiz-adv-x="1499" 
d="M506 705l22 122h457l-22 -122h-457zM653 102q113 0 220.5 50.5t191.5 152t135 252t51 352.5q0 115 -27.5 208t-79.5 158.5t-127 100.5t-171 35q-109 0 -215.5 -50t-191.5 -149.5t-138 -250t-53 -353.5q0 -116 27.5 -209.5t80 -159t127 -101.5t170.5 -36zM643 -29
q-127 0 -227.5 47.5t-170 132.5t-106.5 202.5t-37 256.5q0 221 64.5 395.5t171 294t243 182t281.5 62.5q125 0 224.5 -47t168 -131t105.5 -200.5t37 -258.5q0 -221 -62.5 -395t-167 -294t-240.5 -183.5t-284 -63.5z" />
    <glyph glyph-name="Iota" unicode="&#x399;" horiz-adv-x="575" 
d="M82 0l266 1516h146l-267 -1516h-145z" />
    <glyph glyph-name="Kappa" unicode="&#x39a;" horiz-adv-x="1348" 
d="M1014 0l-385 844l-328 -305l-94 -539h-146l267 1516h145l-139 -793l848 793h174l-619 -576l428 -940h-151z" />
    <glyph glyph-name="Lambda" unicode="&#x39b;" 
d="M868.028 1522l253.984 -1521.91h-142.991l-210.987 1322.92h-4l-675.958 -1322.92h-147.991l790.951 1521.91h136.992z" />
    <glyph glyph-name="Mu" unicode="&#x39c;" horiz-adv-x="1763" 
d="M61 0l267 1516h188l264 -1328h4l729 1328h191l-266 -1516h-146l226 1278h-5q-22 -53 -60 -127t-77 -145l-563 -1006h-131l-205 1006q-14 73 -26.5 134.5t-22.5 143.5h-4l-227 -1284h-136z" />
    <glyph glyph-name="Nu" unicode="&#x39d;" horiz-adv-x="1501" 
d="M61 0l267 1516h155l594 -1260h4l222 1260h137l-266 -1516h-130l-614 1298h-4l-227 -1298h-138z" />
    <glyph glyph-name="Xi" unicode="&#x39e;" horiz-adv-x="1151" 
d="M-35 0l23 133h407l105 602h-262l22 131h266l88 514h-391l23 136h919l-22 -136h-393l-91 -514h267l-25 -131h-264l-107 -602h408l-23 -133h-950z" />
    <glyph glyph-name="Omicron" unicode="&#x39f;" horiz-adv-x="1499" 
d="M653 102q113 0 220.5 50.5t191.5 152t135 252t51 352.5q0 115 -27.5 208t-79.5 158.5t-127 100.5t-171 35q-109 0 -215.5 -50t-191.5 -149.5t-138 -250t-53 -353.5q0 -116 27.5 -209.5t80 -159t127 -101.5t170.5 -36zM643 -29q-127 0 -227.5 47.5t-170 132.5
t-106.5 202.5t-37 256.5q0 221 64.5 395.5t171 294t243 182t281.5 62.5q125 0 224.5 -47t168 -131t105.5 -200.5t37 -258.5q0 -221 -62.5 -395t-167 -294t-240.5 -183.5t-284 -63.5z" />
    <glyph glyph-name="Pi" unicode="&#x3a0;" horiz-adv-x="1458" 
d="M61 0l267 1516h1071l-266 -1516h-146l244 1386h-780l-244 -1386h-146z" />
    <glyph glyph-name="Rho" unicode="&#x3a1;" horiz-adv-x="1296" 
d="M328 1516h436q258 0 387 -96.5t129 -272.5q0 -137 -48 -228.5t-127 -146.5t-181.5 -77.5t-210.5 -22.5h-389l-117 -672h-146zM729 801q82 0 155.5 13t128 50t86 102.5t31.5 170.5q0 123 -92 184t-290 61h-299l-103 -581h383z" />
    <glyph glyph-name="Sigma" unicode="&#x3a3;" horiz-adv-x="1190" 
d="M184 127h777l-23 -127h-961l19 106l598 680l-346 600l22 130h914l-25 -130h-753l350 -606z" />
    <glyph glyph-name="Tau" unicode="&#x3a4;" horiz-adv-x="1243" 
d="M416 0l241 1380h-477l23 136h1104l-25 -136h-479l-242 -1380h-145z" />
    <glyph glyph-name="Upsilon" unicode="&#x3a5;" horiz-adv-x="1245" 
d="M416 0l116 668l-348 848h150l291 -723l540 723h162l-649 -848l-117 -668h-145z" />
    <glyph glyph-name="Phi" unicode="&#x3a6;" horiz-adv-x="1640" 
d="M993 1348q137 -7 243.5 -46.5t176.5 -108.5t99.5 -168t13.5 -226q-17 -135 -78.5 -242.5t-157.5 -183.5t-223 -120t-274 -52l-39 -201h-138l35 203q-135 8 -241.5 46t-177 107.5t-100.5 168t-13 225.5q16 139 78.5 247.5t160 185.5t224.5 118.5t272 48.5l31 166h137z
M813 322q111 6 207 39.5t172 94t126 146.5t66 199q17 106 -7.5 185t-80 131t-138.5 79t-185 33zM834 1229q-115 -4 -213.5 -39t-173 -96.5t-123 -148.5t-62.5 -193q-16 -105 6.5 -184t76.5 -131t138 -80.5t191 -34.5z" />
    <glyph glyph-name="Chi" unicode="&#x3a7;" horiz-adv-x="1325" 
d="M975 0l-330 702l-563 -702h-158l666 823l-324 693h148l276 -592l475 592h158l-575 -713l376 -803h-149z" />
    <glyph glyph-name="Psi" unicode="&#x3a8;" horiz-adv-x="1470" 
d="M1364 909q-27 -149 -87 -249.5t-144 -162t-185.5 -88t-208.5 -26.5l-69 -383h-138l68 383q-96 4 -186 33.5t-154.5 93t-93.5 167t-2 257.5l102 582h140l-103 -586q-18 -111 -3 -188.5t58 -129t111 -76t154 -28.5l178 1008h137l-176 -1008q88 0 165 24.5t137 74.5t103 127
t62 186l104 596h137z" />
    <glyph glyph-name="Omega" unicode="&#x3a9;" horiz-adv-x="1511" 
d="M881 1546q149 0 252.5 -61.5t164 -164.5t78 -237.5t-7.5 -279.5q-39 -223 -163 -389t-304 -283h330l-23 -131h-475l25 131q86 53 161.5 122t137 151.5t104.5 182t62 214.5q22 131 10 243.5t-57.5 195.5t-124 130t-189.5 47q-108 0 -203.5 -43t-170 -124t-127 -194.5
t-76.5 -254.5q-37 -226 27.5 -389.5t195.5 -280.5l-25 -131h-467l25 131h328q-136 115 -199.5 294t-26.5 400q27 150 89.5 281t157.5 229.5t219 154.5t272 56z" />
    <glyph glyph-name="Omega" unicode="&#x2126;" horiz-adv-x="1511" 
d="M881 1546q149 0 252.5 -61.5t164 -164.5t78 -237.5t-7.5 -279.5q-39 -223 -163 -389t-304 -283h330l-23 -131h-475l25 131q86 53 161.5 122t137 151.5t104.5 182t62 214.5q22 131 10 243.5t-57.5 195.5t-124 130t-189.5 47q-108 0 -203.5 -43t-170 -124t-127 -194.5
t-76.5 -254.5q-37 -226 27.5 -389.5t195.5 -280.5l-25 -131h-467l25 131h328q-136 115 -199.5 294t-26.5 400q27 150 89.5 281t157.5 229.5t219 154.5t272 56z" />
    <glyph glyph-name="Iotadieresis" unicode="&#x3aa;" horiz-adv-x="575" 
d="M82 0l266 1516h146l-267 -1516h-145zM530 1618l29 168h160l-29 -168h-160zM188 1618l29 168h158l-29 -168h-158z" />
    <glyph glyph-name="Upsilondieresis" unicode="&#x3ab;" horiz-adv-x="1245" 
d="M416 0l116 668l-348 848h150l291 -723l540 723h162l-649 -848l-117 -668h-145zM862 1618l29 168h160l-29 -168h-160zM520 1618l29 168h158l-29 -168h-158z" />
    <glyph glyph-name="alphatonos" unicode="&#x3ac;" horiz-adv-x="1194" 
d="M761 1530h166l-260 -336h-96zM473 100q86 0 167 44t165 130l98 551q-55 68 -132 111t-183 43q-62 0 -131.5 -27.5t-128 -92t-96 -170t-37.5 -259.5q0 -162 76.5 -246t201.5 -84zM756 0l28 156q-59 -72 -152 -123t-194 -51q-176 0 -281.5 111.5t-105.5 322.5
q0 184 49.5 314t126 212t169.5 120t184 38q63 0 116.5 -14.5t96.5 -38t75.5 -50t55.5 -51.5l22 133h141l-190 -1079h-141z" />
    <glyph glyph-name="epsilontonos" unicode="&#x3ad;" horiz-adv-x="1038" 
d="M741 1530h166l-260 -336h-96zM870 100q-98 -59 -208.5 -91t-235.5 -32q-186 0 -280.5 70t-94.5 195q0 71 25.5 129.5t68.5 100.5t97.5 67.5t111.5 35.5q-80 23 -125 78.5t-45 132.5q0 70 31 128.5t86 100.5t134 64.5t175 22.5q107 0 208 -25.5t173 -83.5l-65 -96
q-68 51 -152 72.5t-166 21.5q-147 0 -222 -59.5t-75 -153.5q0 -90 65.5 -123.5t168.5 -33.5h196l-20 -105h-238q-57 0 -110.5 -16.5t-94.5 -47t-65.5 -75.5t-24.5 -103q0 -79 57.5 -130.5t207.5 -51.5q90 0 182 29t186 82z" />
    <glyph glyph-name="etatonos" unicode="&#x3ae;" horiz-adv-x="1169" 
d="M790 1530h166l-260 -336h-96zM31 0l190 1079h141l-30 -172q35 37 82 71t100 61.5t109.5 44t109.5 16.5q88 0 149.5 -24.5t95.5 -69.5t43 -107.5t-3 -138.5l-203 -1170h-141l198 1153q23 115 -20 175.5t-172 60.5q-90 0 -183.5 -51t-185.5 -135l-139 -793h-141z" />
    <glyph glyph-name="iotatonos" unicode="&#x3af;" horiz-adv-x="492" 
d="M463 1530h166l-260 -336h-96zM43 0l190 1079h142l-191 -1079h-141z" />
    <glyph glyph-name="upsilondieresistonos" unicode="&#x3b0;" horiz-adv-x="1165" 
d="M359 1362h135l-29 -168h-133zM883 1362h135l-29 -168h-135zM725 1530h164l-258 -336h-96zM483 104q154 0 233 81t109 264l113 630h141l-112 -633q-19 -108 -52.5 -194t-91 -147.5t-143.5 -94.5t-209 -33q-104 0 -177 26t-119 72t-66.5 110.5t-20.5 140.5q0 32 4 66t8 71
l111 616h141l-110 -612q-4 -35 -8.5 -65.5t-4.5 -59.5q0 -123 60.5 -180.5t193.5 -57.5z" />
    <glyph glyph-name="alpha" unicode="&#x3b1;" horiz-adv-x="1194" 
d="M473 100q86 0 167 44t165 130l98 551q-55 68 -132 111t-183 43q-62 0 -131.5 -27.5t-128 -92t-96 -170t-37.5 -259.5q0 -162 76.5 -246t201.5 -84zM756 0l28 156q-59 -72 -152 -123t-194 -51q-176 0 -281.5 111.5t-105.5 322.5q0 184 49.5 314t126 212t169.5 120t184 38
q63 0 116.5 -14.5t96.5 -38t75.5 -50t55.5 -51.5l22 133h141l-190 -1079h-141z" />
    <glyph glyph-name="beta" unicode="&#x3b2;" horiz-adv-x="1235" 
d="M645 -23q-119 0 -195.5 31t-130.5 80l82 92q48 -41 104 -63.5t142 -22.5q135 0 215 88t80 254q0 68 -23.5 130.5t-72.5 110.5t-125 76.5t-180 30.5l18 111q199 4 288 81t89 208q0 94 -63.5 152.5t-194.5 58.5q-127 0 -207 -78t-113 -252l-258 -1475h-141l262 1491
q39 228 163 331.5t300 103.5q193 0 293 -87.5t100 -228.5q0 -147 -81 -232t-230 -122q70 -12 128 -48t100 -89.5t65.5 -122t23.5 -148.5q0 -121 -36.5 -208t-98 -143t-140.5 -83t-163 -27z" />
    <glyph glyph-name="gamma" unicode="&#x3b3;" horiz-adv-x="1022" 
d="M305 -6l-194 1085h145l150 -911h4l467 911h151l-582 -1085l-71 -404h-142z" />
    <glyph glyph-name="delta" unicode="&#x3b4;" horiz-adv-x="1171" 
d="M1032 637q0 -148 -44 -268.5t-118.5 -207.5t-177 -135.5t-219.5 -48.5q-96 0 -174 33t-133 93.5t-85 146.5t-30 194q0 119 36 228.5t103.5 194.5t166 136.5t223.5 53.5q22 0 55 -5t49 -12l-344 371l20 105h760l-20 -115h-576l367 -393q78 -84 109.5 -171t31.5 -200z
M891 635q0 104 -30 171.5t-97 131.5q-23 10 -60.5 15t-62.5 5q-111 0 -193.5 -42t-139 -113.5t-85 -164.5t-28.5 -198q0 -153 70.5 -248.5t217.5 -95.5q92 0 167 42t128 114t83 170t30 213z" />
    <glyph glyph-name="epsilon" unicode="&#x3b5;" horiz-adv-x="1036" 
d="M866 100q-98 -59 -208.5 -91t-235.5 -32q-186 0 -280.5 70t-94.5 195q0 71 25.5 129.5t68.5 100.5t97.5 67.5t111.5 35.5q-80 23 -125 78.5t-45 132.5q0 70 31 128.5t86 100.5t134 64.5t175 22.5q107 0 208 -25.5t173 -83.5l-65 -96q-68 51 -152 72.5t-166 21.5
q-147 0 -222 -59.5t-75 -153.5q0 -90 65.5 -123.5t168.5 -33.5h196l-20 -105h-238q-57 0 -110.5 -16.5t-94.5 -47t-65.5 -75.5t-24.5 -103q0 -79 57.5 -130.5t207.5 -51.5q90 0 182 29t186 82z" />
    <glyph glyph-name="zeta" unicode="&#x3b6;" horiz-adv-x="848" 
d="M197 403q0 -129 60 -207.5t208 -101.5q139 -20 196.5 -76.5t57.5 -162.5q0 -115 -69.5 -186.5t-225.5 -71.5q-76 0 -140.5 23.5t-111.5 60.5l53 67q41 -35 93.5 -52.5t107.5 -17.5q98 0 141 41t43 119q0 31 -8 54.5t-29.5 41t-58.5 28.5t-92 20q-189 26 -278 132.5
t-89 274.5q0 117 33 228.5t120 230.5t237.5 253t388.5 296h-562l23 119h762l-17 -89q-166 -118 -292.5 -217.5t-221 -187.5t-157 -166t-101.5 -152.5t-55 -148.5t-16 -152z" />
    <glyph glyph-name="eta" unicode="&#x3b7;" horiz-adv-x="1169" 
d="M31 0l190 1079h141l-30 -172q35 37 82 71t100 61.5t109.5 44t109.5 16.5q88 0 149.5 -24.5t95.5 -69.5t43 -107.5t-3 -138.5l-203 -1170h-141l198 1153q23 115 -20 175.5t-172 60.5q-90 0 -183.5 -51t-185.5 -135l-139 -793h-141z" />
    <glyph glyph-name="theta" unicode="&#x3b8;" horiz-adv-x="1167" 
d="M1038 752q-30 -183 -80.5 -326t-122 -242.5t-166 -153t-216.5 -53.5q-228 0 -312 195t-20 580q65 387 208.5 579.5t375.5 192.5q221 0 307 -198t26 -574zM913 813q21 141 20 251t-26.5 186.5t-79 116.5t-137.5 40q-172 0 -272.5 -158.5t-149.5 -435.5h645zM254 717
q-51 -316 -3 -469.5t218 -153.5q166 0 272.5 161t155.5 462h-643z" />
    <glyph glyph-name="iota" unicode="&#x3b9;" horiz-adv-x="453" 
d="M43 0l190 1079h142l-191 -1079h-141z" />
    <glyph glyph-name="kappa" unicode="&#x3ba;" horiz-adv-x="1063" 
d="M362 1079l-98 -544l592 544h168l-422 -383l272 -696h-143l-235 600l-258 -233l-66 -367h-141l190 1079h141z" />
    <glyph glyph-name="lambda" unicode="&#x3bb;" horiz-adv-x="1057" 
d="M340 1538q135 0 202.5 -60.5t92.5 -183.5l250 -1294h-148l-164 911h-4l-485 -911h-152l603 1083l-35 179q-17 81 -58 120t-133 39q-49 0 -97 -8t-91 -18l-8 114q51 13 106 21t121 8z" />
    <glyph glyph-name="uni03BC" unicode="&#x3bc;" horiz-adv-x="1174" 
d="M-41 -410l260 1489h141l-131 -745q-20 -115 23 -175.5t170 -60.5q90 0 181 51.5t183 135.5l140 794h141l-190 -1079h-142l31 172q-35 -35 -79 -69.5t-95 -61.5t-104.5 -43t-106.5 -16q-70 0 -123 22.5t-72 69.5l-86 -484h-141z" />
    <glyph glyph-name="nu" unicode="&#x3bd;" horiz-adv-x="1022" 
d="M305 -6l-194 1085h145l147 -911h5l469 911h151l-582 -1085h-141z" />
    <glyph glyph-name="xi" unicode="&#x3be;" horiz-adv-x="909" 
d="M754 1397q-148 -15 -221.5 -85.5t-73.5 -189.5q0 -116 72.5 -178.5t203.5 -62.5l-16 -103q-264 0 -400.5 -101.5t-136.5 -293.5q0 -123 61.5 -197.5t219.5 -97.5q137 -22 192.5 -74.5t55.5 -158.5q0 -115 -69 -186.5t-224 -71.5q-76 0 -141.5 23.5t-112.5 60.5l53 67
q43 -35 96.5 -52.5t106.5 -17.5q96 0 140 41t44 119q0 31 -8 54.5t-29.5 41t-57.5 29.5t-93 23q-201 28 -286 123.5t-85 255.5q0 104 35 190t99.5 148.5t155.5 99.5t204 43q-93 22 -152 92t-59 184q0 101 46 171.5t144 103.5h-250l23 119h794l-22 -119h-309z" />
    <glyph glyph-name="omicron" unicode="&#x3bf;" horiz-adv-x="1161" 
d="M483 96q82 0 156 38t130 107.5t89 169t33 222.5q0 69 -16.5 132.5t-52.5 112t-91 76t-131 27.5q-84 0 -157.5 -38t-129 -108.5t-87 -170t-31.5 -222.5q0 -71 16 -133.5t51 -109.5t89.5 -75t131.5 -28zM473 -23q-96 0 -174 33t-133 93.5t-85 145.5t-30 191q0 168 51.5 292
t131 206t179 122t197.5 40q95 0 172.5 -33t133 -93.5t86 -145.5t30.5 -191q0 -166 -50 -290t-130 -206t-180.5 -123t-198.5 -41z" />
    <glyph glyph-name="pi" unicode="&#x3c0;" horiz-adv-x="1190" 
d="M39 0l170 950h-172l22 129h1188l-22 -129h-164l-168 -950h-141l168 950h-572l-168 -950h-141z" />
    <glyph glyph-name="rho" unicode="&#x3c1;" horiz-adv-x="1194" 
d="M129 555q47 268 185.5 407.5t349.5 139.5q184 0 292.5 -118t108.5 -320q0 -181 -48 -310t-124 -212t-170 -121.5t-186 -38.5q-109 0 -192 43t-148 112l-97 -547h-141zM215 252q64 -72 134.5 -112t178.5 -40q62 0 131.5 28t128 91.5t96.5 168t38 255.5q0 74 -18.5 135.5
t-52.5 106.5t-84 70.5t-114 25.5q-153 0 -251.5 -120t-137.5 -331z" />
    <glyph glyph-name="sigma1" unicode="&#x3c2;" horiz-adv-x="1040" 
d="M193 438q0 -153 63 -241t203 -105q155 -16 216.5 -73.5t61.5 -163.5q0 -115 -69.5 -186.5t-225.5 -71.5q-77 0 -141.5 23.5t-112.5 60.5l54 67q43 -35 95 -52.5t107 -17.5q97 0 141 41t44 119q0 68 -42 100.5t-147 43.5q-180 18 -284.5 129.5t-104.5 330.5
q0 181 54.5 305.5t135.5 203.5t177 114t182 35q96 0 162.5 -23.5t111 -64.5t70 -95.5t41.5 -117.5l-129 -29q-29 111 -89 161t-177 50q-78 0 -149.5 -35t-127 -103.5t-88 -170t-32.5 -234.5z" />
    <glyph glyph-name="sigma" unicode="&#x3c3;" horiz-adv-x="1186" 
d="M1032 631q0 -146 -44 -265.5t-118.5 -205.5t-177 -134.5t-219.5 -48.5q-96 0 -174 33t-133 93.5t-85 146.5t-30 194q0 148 45 264.5t123 199.5t181.5 127t220.5 44h522l-21 -121h-233q24 -18 50 -46.5t46.5 -67.5t33.5 -92.5t13 -120.5zM891 635q0 70 -14.5 122t-39 91
t-57 65.5t-67.5 44.5h-99q-98 0 -176 -39.5t-132 -109.5t-82.5 -165t-28.5 -204q0 -153 71.5 -248.5t216.5 -95.5q92 0 167 42t128 114t83 170t30 213z" />
    <glyph glyph-name="tau" unicode="&#x3c4;" horiz-adv-x="942" 
d="M262 0l168 956h-336l23 123h823l-22 -123h-349l-168 -956h-139z" />
    <glyph glyph-name="upsilon" unicode="&#x3c5;" horiz-adv-x="1165" 
d="M483 104q154 0 233 81t109 264l113 630h141l-112 -633q-19 -108 -52.5 -194t-91 -147.5t-143.5 -94.5t-209 -33q-104 0 -177 26t-119 72t-66.5 110.5t-20.5 140.5q0 32 4 66t8 71l111 616h141l-110 -612q-4 -35 -8.5 -65.5t-4.5 -59.5q0 -123 60.5 -180.5t193.5 -57.5z
" />
    <glyph glyph-name="phi" unicode="&#x3c6;" horiz-adv-x="1440" 
d="M518 -20q-96 6 -181 38.5t-148.5 91t-100.5 143.5t-37 196q0 149 50.5 270t139.5 206t210.5 131t265.5 46l74 414h129l-76 -418q94 -6 180 -37t149.5 -87t101.5 -140t38 -197q0 -152 -50.5 -272.5t-139.5 -206.5t-212 -132t-266 -46l-67 -390h-129zM195 449
q0 -87 25.5 -149t71.5 -105t109.5 -67t139.5 -28l153 881q-112 -4 -204.5 -43t-158 -107.5t-101 -166t-35.5 -215.5zM1171 635q0 86 -27.5 147.5t-74.5 103.5t-110.5 63.5t-135.5 27.5l-153 -881q112 2 204.5 42t159 110.5t102 169t35.5 217.5z" />
    <glyph glyph-name="chi" unicode="&#x3c7;" horiz-adv-x="1026" 
d="M-70 0l471 565l-251 514h147l203 -415l342 415h151l-438 -526l272 -553h-147l-225 457l-375 -457h-150z" />
    <glyph glyph-name="psi" unicode="&#x3c8;" horiz-adv-x="1485" 
d="M535 -23q-121 5 -205 36.5t-138.5 85t-79 124t-24.5 154.5q0 29 2 56.5t6 55.5l105 590h141l-104 -587q-5 -25 -8 -49.5t-3 -47.5q0 -127 77 -205.5t253 -87.5q14 82 33.5 197t43 244t47.5 266t47.5 267t44 244t34.5 196h139l-248 -1414q113 2 193 31t133 78t84 116.5
t45 149.5l107 602h139q-10 -55 -24.5 -136t-29 -166t-28.5 -165t-25 -135q-20 -112 -60 -203.5t-112.5 -156t-181.5 -101t-264 -39.5q-4 -30 -13.5 -83.5t-19.5 -109.5t-19.5 -109.5t-15.5 -84.5h-139z" />
    <glyph glyph-name="omega" unicode="&#x3c9;" horiz-adv-x="1528" 
d="M829 731l-73 -409q-2 -11 -4 -24t-2 -30q0 -47 14 -78.5t38.5 -51t56.5 -28t67 -8.5q86 0 147.5 42t101 111t59 156t19.5 179q0 176 -55 299t-141 190h157q74 -69 125.5 -188t51.5 -303q0 -109 -27 -218.5t-81 -196.5t-139 -141.5t-202 -54.5q-123 0 -192.5 58.5
t-81.5 146.5q-35 -86 -108 -145.5t-189 -59.5q-88 0 -149.5 30t-99.5 81t-54.5 118.5t-16.5 143.5q0 107 27.5 213.5t76 201.5t116 176t147.5 138h160q-86 -55 -157 -134t-121 -174t-78.5 -200.5t-28.5 -212.5q0 -256 206 -256q90 0 151.5 61.5t84.5 205.5l65 362h129z" />
    <glyph glyph-name="iotadieresis" unicode="&#x3ca;" horiz-adv-x="492" 
d="M416 1194l28 168h160l-29 -168h-159zM74 1194l28 168h158l-29 -168h-157zM43 0l190 1079h142l-191 -1079h-141z" />
    <glyph glyph-name="upsilondieresis" unicode="&#x3cb;" horiz-adv-x="1165" 
d="M731 1194l29 168h159l-28 -168h-160zM389 1194l29 168h157l-28 -168h-158zM483 104q154 0 233 81t109 264l113 630h141l-112 -633q-19 -108 -52.5 -194t-91 -147.5t-143.5 -94.5t-209 -33q-104 0 -177 26t-119 72t-66.5 110.5t-20.5 140.5q0 32 4 66t8 71l111 616h141
l-110 -612q-4 -35 -8.5 -65.5t-4.5 -59.5q0 -123 60.5 -180.5t193.5 -57.5z" />
    <glyph glyph-name="omicrontonos" unicode="&#x3cc;" horiz-adv-x="1161" 
d="M763 1530h166l-260 -336h-96zM483 96q82 0 156 38t130 107.5t89 169t33 222.5q0 69 -16.5 132.5t-52.5 112t-91 76t-131 27.5q-84 0 -157.5 -38t-129 -108.5t-87 -170t-31.5 -222.5q0 -71 16 -133.5t51 -109.5t89.5 -75t131.5 -28zM473 -23q-96 0 -174 33t-133 93.5
t-85 145.5t-30 191q0 168 51.5 292t131 206t179 122t197.5 40q95 0 172.5 -33t133 -93.5t86 -145.5t30.5 -191q0 -166 -50 -290t-130 -206t-180.5 -123t-198.5 -41z" />
    <glyph glyph-name="upsilontonos" unicode="&#x3cd;" horiz-adv-x="1165" 
d="M788 1530h166l-260 -336h-96zM483 104q154 0 233 81t109 264l113 630h141l-112 -633q-19 -108 -52.5 -194t-91 -147.5t-143.5 -94.5t-209 -33q-104 0 -177 26t-119 72t-66.5 110.5t-20.5 140.5q0 32 4 66t8 71l111 616h141l-110 -612q-4 -35 -8.5 -65.5t-4.5 -59.5
q0 -123 60.5 -180.5t193.5 -57.5z" />
    <glyph glyph-name="omegatonos" unicode="&#x3ce;" horiz-adv-x="1528" 
d="M981 1530h166l-260 -336h-96zM829 731l-73 -409q-2 -11 -4 -24t-2 -30q0 -47 14 -78.5t38.5 -51t56.5 -28t67 -8.5q86 0 147.5 42t101 111t59 156t19.5 179q0 176 -55 299t-141 190h157q74 -69 125.5 -188t51.5 -303q0 -109 -27 -218.5t-81 -196.5t-139 -141.5
t-202 -54.5q-123 0 -192.5 58.5t-81.5 146.5q-35 -86 -108 -145.5t-189 -59.5q-88 0 -149.5 30t-99.5 81t-54.5 118.5t-16.5 143.5q0 107 27.5 213.5t76 201.5t116 176t147.5 138h160q-86 -55 -157 -134t-121 -174t-78.5 -200.5t-28.5 -212.5q0 -256 206 -256
q90 0 151.5 61.5t84.5 205.5l65 362h129z" />
    <glyph glyph-name="afii10023" unicode="&#x401;" horiz-adv-x="1217" 
d="M850 1618l29 168h159l-28 -168h-160zM508 1618l29 168h157l-28 -168h-158zM61 0l267 1516h884l-24 -136h-739l-91 -514h547l-22 -131h-547l-107 -602h783l-23 -133h-928z" />
    <glyph glyph-name="afii10051" unicode="&#x402;" horiz-adv-x="1645" 
d="M567 0h-143l244 1393h-486l21 123h1116l-23 -123h-483l-94 -531q104 92 211.5 141.5t218.5 49.5q162 0 261 -107.5t99 -306.5q0 -133 -41 -249t-116.5 -203t-185 -137t-244.5 -50l20 106q92 0 170 39t134.5 108t88 163t31.5 202q0 68 -17.5 125.5t-52 99.5t-86 65.5
t-120.5 23.5q-101 0 -196 -47t-194 -125z" />
    <glyph glyph-name="afii10052" unicode="&#x403;" horiz-adv-x="1137" 
d="M635 1606l232 319h186l-325 -319h-93zM207 0h-146l267 1516h866l-23 -136h-722z" />
    <glyph glyph-name="afii10053" unicode="&#x404;" horiz-adv-x="1423" 
d="M647 -31q-129 0 -230.5 47t-170 132t-105.5 203t-37 259q0 203 57.5 375t158 297t234.5 194.5t288 69.5q135 0 226 -38t147.5 -100t86 -143t41.5 -169l-143 -23q-10 68 -30.5 131.5t-62.5 112.5t-107.5 77.5t-163.5 28.5q-105 0 -197 -44t-167 -123.5t-127 -189.5
t-75 -239h609l-23 -116h-600q-6 -49 -6 -99q0 -110 25.5 -206.5t75.5 -166t126 -109.5t174 -40q97 0 169.5 32t129 86t98.5 123.5t76 143.5l125 -55q-39 -84 -91 -165t-124.5 -144.5t-167 -102.5t-219.5 -39z" />
    <glyph glyph-name="afii10054" unicode="&#x405;" horiz-adv-x="1309" 
d="M582 -29q-129 0 -223.5 28t-159 80t-101.5 127t-49 171l139 26q23 -159 119 -231t287 -72q80 0 149.5 18.5t122 55.5t82 95.5t29.5 138.5q0 96 -55.5 154.5t-139.5 100.5t-180 75.5t-180 79.5t-139.5 113.5t-55.5 178.5q0 102 39 183t105.5 136.5t154.5 85t187 29.5
q123 0 211 -25.5t147 -70.5t93 -109.5t53 -140.5l-138 -37q-28 142 -123.5 197t-253.5 55q-145 0 -236 -76.5t-91 -206.5q0 -86 55 -140t139 -93t180.5 -74t180.5 -84t139 -121.5t55 -187.5q0 -119 -45 -206t-120.5 -143t-173 -83t-203.5 -27z" />
    <glyph glyph-name="afii10055" unicode="&#x406;" horiz-adv-x="575" 
d="M82 0l266 1516h146l-267 -1516h-145z" />
    <glyph glyph-name="afii10056" unicode="&#x407;" horiz-adv-x="575" 
d="M82 0l266 1516h146l-267 -1516h-145zM530 1618l29 168h160l-29 -168h-160zM188 1618l29 168h158l-29 -168h-158z" />
    <glyph glyph-name="afii10057" unicode="&#x408;" horiz-adv-x="1004" 
d="M332 -29q-80 0 -140.5 18.5t-105.5 48.5t-78 69.5t-57 82.5l112 76q48 -80 110.5 -122t154.5 -42q55 0 101 13.5t82 47.5t61.5 89t39.5 141l199 1123h145l-198 -1137q-39 -215 -144.5 -311.5t-281.5 -96.5z" />
    <glyph glyph-name="afii10058" unicode="&#x409;" horiz-adv-x="2238" 
d="M1264 1393h-734l-182 -1031q-16 -94 -49 -162.5t-89 -112.5t-138 -65.5t-197 -21.5l21 119q79 0 133.5 13t89.5 43t54.5 76t31.5 111l205 1154h1020l-121 -672h295q241 0 371 -98.5t130 -290.5q0 -123 -45 -209t-126 -140.5t-192.5 -80t-242.5 -25.5h-481zM1505 117
q217 0 336 81t119 244q0 125 -85 202t-273 77h-314l-108 -604h325z" />
    <glyph glyph-name="afii10059" unicode="&#x40a;" horiz-adv-x="2241" 
d="M1147 721h-813l-129 -721h-144l267 1516h143l-117 -672h813l117 672h146l-119 -672h295q241 0 371 -98.5t130 -290.5q0 -123 -45 -209t-126 -140.5t-192.5 -80t-242.5 -25.5h-483zM1509 117q217 0 336 81t119 244q0 125 -85 202t-273 77h-316l-106 -604h325z" />
    <glyph glyph-name="afii10060" unicode="&#x40b;" horiz-adv-x="1569" 
d="M659 1393h-485l21 123h1116l-23 -123h-483l-92 -516q37 30 84 65t103 65.5t119.5 50t131.5 19.5q168 0 229.5 -87t32.5 -253l-129 -737h-141l125 715q8 51 6 95t-21.5 77t-58.5 51t-102 18q-56 0 -112 -19t-108.5 -47t-98.5 -59.5t-79 -58.5l-135 -772h-143z" />
    <glyph glyph-name="afii10061" unicode="&#x40c;" horiz-adv-x="1348" 
d="M735 1606l232 319h186l-325 -319h-93zM1014 0l-385 844l-328 -305l-94 -539h-146l267 1516h145l-139 -793l848 793h174l-619 -576l428 -940h-151z" />
    <glyph glyph-name="afii10062" unicode="&#x40e;" horiz-adv-x="1325" 
d="M86 131q27 -14 59.5 -23.5t79.5 -9.5q51 0 89 12.5t71 38t64.5 66.5t68.5 100l47 76l-360 1125h145l262 -854l43 -140l86 140l531 854h151q-47 -76 -110.5 -176.5t-135 -213t-146.5 -231.5t-146.5 -231.5t-135 -213t-110.5 -174.5q-47 -75 -91 -131.5t-94.5 -93.5
t-109.5 -54t-139 -17q-74 0 -119 12t-80 35zM803 1614q-149 0 -214.5 91t-53.5 245h90q2 -121 41 -172.5t145 -51.5q82 0 142.5 50.5t89.5 173.5h90q-27 -160 -112 -248t-218 -88z" />
    <glyph glyph-name="afii10145" unicode="&#x40f;" horiz-adv-x="1487" 
d="M328 1516h145l-246 -1393h809l248 1393h143l-268 -1516h-477l-59 -342h-142l60 342h-480z" />
    <glyph glyph-name="afii10017" unicode="&#x410;" horiz-adv-x="1358" 
d="M-59 0l794 1522h158l258 -1522h-145l-76 473h-596l-244 -473h-149zM397 600h512l-121 750h-4z" />
    <glyph glyph-name="afii10018" unicode="&#x411;" horiz-adv-x="1284" 
d="M551 117q217 0 336 79.5t119 239.5q0 123 -85 199t-276 76h-315l-105 -594h326zM350 831h297q242 0 372 -97t130 -283q0 -121 -45 -207t-126 -140.5t-191.5 -79t-241.5 -24.5h-482l267 1516h868l-22 -123h-725z" />
    <glyph glyph-name="afii10019" unicode="&#x412;" horiz-adv-x="1382" 
d="M354 840h367q88 0 165 15t133 51t88 95.5t32 149.5q0 115 -88 174t-291 59h-311zM227 129h447q88 0 159.5 18.5t124 56.5t81 98t28.5 147q0 135 -105.5 201.5t-310.5 66.5h-319zM61 0l267 1516h450q131 0 227.5 -25t159 -70t92 -108.5t29.5 -141.5q0 -96 -30.5 -164.5
t-80 -114.5t-113 -72.5t-128.5 -41.5l-2 -4q123 -24 200.5 -105t77.5 -223q0 -108 -38.5 -191t-110.5 -139.5t-172.5 -86t-222.5 -29.5h-605z" />
    <glyph glyph-name="afii10020" unicode="&#x413;" horiz-adv-x="1137" 
d="M207 0h-146l267 1516h866l-23 -136h-722z" />
    <glyph glyph-name="afii10021" unicode="&#x414;" horiz-adv-x="1548" 
d="M1354 123l-80 -465h-144l60 342h-1141l-59 -342h-144l80 465h45q66 2 108 15.5t70.5 49t51 97t51.5 159.5l289 1072h917l-244 -1393h140zM1292 1393h-643l-258 -963q-35 -127 -65.5 -201.5t-81.5 -105.5h825z" />
    <glyph glyph-name="afii10022" unicode="&#x415;" horiz-adv-x="1217" 
d="M61 0l267 1516h884l-24 -136h-739l-91 -514h547l-22 -131h-547l-107 -602h783l-23 -133h-928z" />
    <glyph glyph-name="afii10024" unicode="&#x416;" horiz-adv-x="2159" 
d="M977 545l-227 295l-678 -840h-168l770 948l-422 568h164l590 -801l143 801h141l-141 -801l866 801h160l-621 -578l428 -938h-153l-385 840l-326 -301l-94 -539h-143z" />
    <glyph glyph-name="afii10025" unicode="&#x417;" horiz-adv-x="1198" 
d="M481 -29q-106 0 -188 22.5t-144.5 63.5t-106.5 98.5t-75 127.5l125 57q53 -123 150.5 -181.5t240.5 -58.5q86 0 156 20.5t121 64.5t78.5 113t27.5 165q0 67 -20.5 119.5t-68.5 87.5t-127 53t-195 18h-56l21 125h65q258 0 370 79t112 241q0 51 -15.5 93t-51.5 72.5t-93 47
t-141 16.5q-91 0 -180 -32.5t-173 -122.5l-90 86q84 92 199 145t258 53q121 0 204 -27.5t133 -75.5t72.5 -109.5t22.5 -129.5q0 -90 -27.5 -158.5t-77 -119t-115 -81t-138.5 -44.5q131 -29 195.5 -118t64.5 -220q0 -119 -40 -210t-111.5 -153.5t-169 -94.5t-212.5 -32z" />
    <glyph glyph-name="afii10026" unicode="&#x418;" horiz-adv-x="1505" 
d="M1176 0h-134l228 1280l-1075 -1280h-136l269 1516h133l-225 -1276l1062 1276h146z" />
    <glyph glyph-name="afii10027" unicode="&#x419;" horiz-adv-x="1505" 
d="M1176 0h-134l228 1280l-1075 -1280h-136l269 1516h133l-225 -1276l1062 1276h146zM903 1614q-149 0 -214.5 91t-53.5 245h90q2 -121 41 -172.5t145 -51.5q82 0 142.5 50.5t89.5 173.5h90q-27 -160 -112 -248t-218 -88z" />
    <glyph glyph-name="afii10028" unicode="&#x41a;" horiz-adv-x="1348" 
d="M1014 0l-385 844l-328 -305l-94 -539h-146l267 1516h145l-139 -793l848 793h174l-619 -576l428 -940h-151z" />
    <glyph glyph-name="afii10029" unicode="&#x41b;" horiz-adv-x="1489" 
d="M348 362q-16 -94 -49 -162.5t-89 -112.5t-138 -65.5t-197 -21.5l21 119q79 0 133.5 13t89.5 43t54.5 76t31.5 111l205 1154h1020l-269 -1516h-143l246 1393h-734z" />
    <glyph glyph-name="afii10030" unicode="&#x41c;" horiz-adv-x="1763" 
d="M61 0l267 1516h188l264 -1328h4l729 1328h191l-266 -1516h-146l226 1278h-5q-22 -53 -60 -127t-77 -145l-563 -1006h-131l-205 1006q-14 73 -26.5 134.5t-22.5 143.5h-4l-227 -1284h-136z" />
    <glyph glyph-name="afii10031" unicode="&#x41d;" horiz-adv-x="1479" 
d="M61 0l267 1516h145l-115 -650h801l115 650h145l-266 -1516h-145l129 733h-801l-129 -733h-146z" />
    <glyph glyph-name="afii10032" unicode="&#x41e;" horiz-adv-x="1499" 
d="M653 102q113 0 220.5 50.5t191.5 152t135 252t51 352.5q0 115 -27.5 208t-79.5 158.5t-127 100.5t-171 35q-109 0 -215.5 -50t-191.5 -149.5t-138 -250t-53 -353.5q0 -116 27.5 -209.5t80 -159t127 -101.5t170.5 -36zM643 -29q-127 0 -227.5 47.5t-170 132.5
t-106.5 202.5t-37 256.5q0 221 64.5 395.5t171 294t243 182t281.5 62.5q125 0 224.5 -47t168 -131t105.5 -200.5t37 -258.5q0 -221 -62.5 -395t-167 -294t-240.5 -183.5t-284 -63.5z" />
    <glyph glyph-name="afii10033" unicode="&#x41f;" horiz-adv-x="1487" 
d="M328 1516h1099l-268 -1516h-143l246 1393h-811l-246 -1393h-144z" />
    <glyph glyph-name="afii10034" unicode="&#x420;" horiz-adv-x="1296" 
d="M328 1516h436q258 0 387 -96.5t129 -272.5q0 -137 -48 -228.5t-127 -146.5t-181.5 -77.5t-210.5 -22.5h-389l-117 -672h-146zM729 801q82 0 155.5 13t128 50t86 102.5t31.5 170.5q0 123 -92 184t-290 61h-299l-103 -581h383z" />
    <glyph glyph-name="afii10035" unicode="&#x421;" horiz-adv-x="1411" 
d="M643 -29q-131 0 -232.5 46t-170 129t-103.5 199t-35 255q0 211 59.5 384t159 298t230.5 193.5t276 68.5q129 0 221.5 -32.5t153 -94t93 -150.5t40.5 -200l-143 -12q-6 88 -28.5 154.5t-66.5 111.5t-113 67.5t-167 22.5q-110 0 -213.5 -56.5t-182.5 -162t-126 -256
t-47 -338.5q0 -227 103.5 -361.5t297.5 -134.5q82 0 150.5 20.5t126 67t106.5 119t92 176.5l127 -47q-92 -229 -241.5 -348t-366.5 -119z" />
    <glyph glyph-name="afii10036" unicode="&#x422;" horiz-adv-x="1243" 
d="M416 0l241 1380h-477l23 136h1104l-25 -136h-479l-242 -1380h-145z" />
    <glyph glyph-name="afii10037" unicode="&#x423;" horiz-adv-x="1325" 
d="M86 131q27 -14 59.5 -23.5t79.5 -9.5q51 0 89 12.5t71 38t64.5 66.5t68.5 100l47 76l-360 1125h145l262 -854l43 -140l86 140l531 854h151q-47 -76 -110.5 -176.5t-135 -213t-146.5 -231.5t-146.5 -231.5t-135 -213t-110.5 -174.5q-47 -75 -91 -131.5t-94.5 -93.5
t-109.5 -54t-139 -17q-74 0 -119 12t-80 35z" />
    <glyph glyph-name="afii10038" unicode="&#x424;" horiz-adv-x="1640" 
d="M993 1348q137 -7 243.5 -46.5t176.5 -108.5t99.5 -168t13.5 -226q-17 -135 -78.5 -242.5t-157.5 -183.5t-223 -120t-274 -52l-39 -201h-138l35 203q-135 8 -241.5 46t-177 107.5t-100.5 168t-13 225.5q16 139 78.5 247.5t160 185.5t224.5 118.5t272 48.5l31 166h137z
M813 322q111 6 207 39.5t172 94t126 146.5t66 199q17 106 -7.5 185t-80 131t-138.5 79t-185 33zM834 1229q-115 -4 -213.5 -39t-173 -96.5t-123 -148.5t-62.5 -193q-16 -105 6.5 -184t76.5 -131t138 -80.5t191 -34.5z" />
    <glyph glyph-name="afii10039" unicode="&#x425;" horiz-adv-x="1325" 
d="M975 0l-330 702l-563 -702h-158l666 823l-324 693h148l276 -592l475 592h158l-575 -713l376 -803h-149z" />
    <glyph glyph-name="afii10040" unicode="&#x426;" horiz-adv-x="1520" 
d="M63 0l267 1516h145l-246 -1393h809l248 1393h144l-246 -1393h141l-82 -465h-141l61 342h-1100z" />
    <glyph glyph-name="afii10041" unicode="&#x427;" horiz-adv-x="1325" 
d="M979 707q-43 -29 -96.5 -51.5t-112.5 -37t-121.5 -21.5t-120.5 -7q-106 0 -179 24.5t-114.5 80t-51 145.5t13.5 221l82 455h141l-80 -445q-18 -102 -14 -172t32.5 -113t83 -62t138.5 -19q104 0 218.5 31.5t200.5 90.5l121 689h146l-267 -1516h-145z" />
    <glyph glyph-name="afii10042" unicode="&#x428;" horiz-adv-x="2085" 
d="M1759 0h-1698l267 1516h143l-244 -1393h631l246 1393h145l-245 -1393h630l246 1393h145z" />
    <glyph glyph-name="afii10043" unicode="&#x429;" horiz-adv-x="2116" 
d="M63 0l267 1516h143l-244 -1393h631l246 1393h145l-245 -1393h630l246 1393h146l-246 -1393h141l-82 -465h-139l59 342h-1698z" />
    <glyph glyph-name="afii10044" unicode="&#x42a;" horiz-adv-x="1473" 
d="M541 844h295q241 0 371 -98.5t130 -290.5q0 -123 -45 -209t-126 -140.5t-192.5 -80t-242.5 -25.5h-481l246 1393h-371l22 123h515zM739 117q217 0 336 81t119 244q0 125 -85 202t-273 77h-316l-106 -604h325z" />
    <glyph glyph-name="afii10045" unicode="&#x42b;" horiz-adv-x="1733" 
d="M1268 0l266 1516h146l-267 -1516h-145zM330 1516h143l-121 -672h297q242 0 372 -98.5t130 -290.5q0 -123 -45 -209t-126 -140.5t-192.5 -80t-242.5 -25.5h-482zM551 117q217 0 337 81t120 244q0 125 -85 202t-274 77h-317l-107 -604h326z" />
    <glyph glyph-name="afii10046" unicode="&#x42c;" horiz-adv-x="1284" 
d="M330 1516h143l-121 -672h297q242 0 372 -98.5t130 -290.5q0 -123 -45 -209t-126 -140.5t-192.5 -80t-242.5 -25.5h-482zM551 117q217 0 337 81t120 244q0 125 -85 202t-274 77h-317l-107 -604h326z" />
    <glyph glyph-name="afii10047" unicode="&#x42d;" horiz-adv-x="1423" 
d="M782 1546q129 0 229.5 -47t169 -132t105.5 -202.5t37 -259.5q0 -203 -57.5 -375t-157.5 -296.5t-233.5 -194.5t-286.5 -70q-137 0 -227.5 38t-147.5 100.5t-86 143.5t-43 169l139 22q13 -67 34.5 -130.5t63 -112.5t107.5 -78t164 -29q104 0 198.5 45t170 127t128 195.5
t72.5 251.5h-610l22 116h601q4 25 4 41v41q0 109 -26 203t-76 164t-124.5 109.5t-175.5 39.5q-96 0 -168.5 -31.5t-130 -85t-100.5 -123t-78 -143.5l-121 54q39 84 92.5 164.5t125 144t166.5 102.5t220 39z" />
    <glyph glyph-name="afii10048" unicode="&#x42e;" horiz-adv-x="2007" 
d="M1165 -31q-131 0 -235.5 47t-178 132t-114.5 204t-41 264q0 31 2 62t6 59h-268l-131 -737h-144l267 1516h143l-115 -654h265q30 154 100 281t166 216t215 138t250 49q125 0 227 -47t174 -133t112 -207t40 -266q0 -197 -56.5 -366t-156 -292.5t-234.5 -194.5t-293 -71z
M1169 90q129 0 238 62.5t186.5 171t121.5 255t44 312.5q0 117 -27.5 214t-81 167.5t-131 110.5t-178.5 40q-127 0 -236.5 -59t-190 -165.5t-127 -253t-46.5 -320.5q0 -117 28 -214.5t82 -169t134 -111.5t184 -40z" />
    <glyph glyph-name="afii10049" unicode="&#x42f;" horiz-adv-x="1370" 
d="M1049 0h-142l121 686h-346l-510 -686h-160l529 705q-160 30 -236 123.5t-76 234.5q0 115 42 200t121 141t191.5 84t252.5 28h479zM1049 801l104 594h-322q-217 0 -337.5 -79t-120.5 -241q0 -121 83 -197.5t273 -76.5h320z" />
    <glyph glyph-name="afii10065" unicode="&#x430;" horiz-adv-x="1118" 
d="M340 98q98 0 199.5 45t199.5 125l58 328q-197 -21 -322 -55.5t-197.5 -80.5t-100 -100.5t-27.5 -111.5q0 -70 48 -110t142 -40zM299 -18q-143 0 -218 66.5t-75 172.5q0 90 43 170t138.5 141.5t250 104.5t377.5 59l10 56q23 110 -25 169.5t-179 59.5q-56 0 -111 -13.5
t-106.5 -34t-95.5 -48t-75 -54.5l-71 93q39 32 89 64t109.5 56.5t129 40t149.5 15.5q104 0 173 -26.5t106.5 -76t48 -117t-3.5 -147.5l-82 -467q-9 -45 -14 -78.5t-7 -64.5t-1 -59.5t5 -63.5h-147q-4 41 -4 76t8 78q-109 -86 -216.5 -129t-205.5 -43z" />
    <glyph glyph-name="afii10066" unicode="&#x431;" horiz-adv-x="1171" 
d="M483 -23q-98 0 -178 34t-136 95.5t-86 148.5t-30 191q0 54 9.5 113t25.5 146q18 86 43 177t65 178t95 165t134 138t183.5 96t239.5 40q61 2 121.5 5t140.5 22l-23 -129q-65 -17 -124.5 -21t-131.5 -6q-120 -4 -213.5 -41t-163 -103.5t-116.5 -158.5t-74 -205
q72 99 174.5 151t212.5 52q90 0 163 -32t123 -90t77.5 -140t27.5 -180q0 -134 -40.5 -251.5t-114.5 -205.5t-176.5 -138.5t-227.5 -50.5zM492 84q90 0 164.5 42t129 113.5t84 168t29.5 204.5q0 156 -74.5 253.5t-212.5 97.5q-88 0 -163.5 -39t-132 -109t-88 -166t-31.5 -211
q0 -78 19.5 -142.5t57 -111.5t92 -73.5t126.5 -26.5z" />
    <glyph glyph-name="afii10067" unicode="&#x432;" horiz-adv-x="1065" 
d="M246 1081h327q193 0 290.5 -60t97.5 -183q0 -131 -73 -198t-192 -83v-2q105 -23 161 -78t56 -160q0 -81 -30.5 -140.5t-84 -98.5t-126 -58.5t-156.5 -19.5h-463zM502 100q125 0 201.5 53.5t76.5 168.5q0 94 -72.5 140t-201.5 46h-230l-71 -408h297zM551 598
q57 0 107.5 11.5t87 37t58 66.5t21.5 100q0 86 -70.5 126t-203.5 40h-191l-67 -381h258z" />
    <glyph glyph-name="afii10068" unicode="&#x433;" horiz-adv-x="922" 
d="M905 973h-563l-172 -973h-141l190 1081h707z" />
    <glyph glyph-name="afii10069" unicode="&#x434;" horiz-adv-x="1253" 
d="M-156 -410l93 519q63 2 108 20t76 47t50 68t32 84l196 753h729l-172 -972h109l-90 -519h-133l71 410h-860l-71 -410h-138zM969 973h-457l-170 -654q-23 -79 -62.5 -134.5t-101.5 -82.5h637z" />
    <glyph glyph-name="afii10070" unicode="&#x435;" horiz-adv-x="1098" 
d="M459 -23q-90 0 -166 32t-129 90.5t-83 142.5t-30 190q0 184 56.5 311t139.5 207t177 115t172 35q119 0 198.5 -44t123 -121t52.5 -178.5t-12 -217.5l-4 -27h-761q-3 -18 -3 -38v-40q0 -96 28 -161.5t70 -104.5t92 -55.5t97 -16.5q123 0 202 55.5t138 143.5l101 -68
q-78 -114 -189 -182t-270 -68zM836 625q8 69 0.5 133.5t-37 114t-81.5 79t-134 29.5q-60 0 -117 -22.5t-106.5 -66.5t-89.5 -111.5t-60 -155.5h625z" />
    <glyph glyph-name="afii10072" unicode="&#x436;" horiz-adv-x="1702" 
d="M983 1081l-102 -569l620 569h152l-428 -397l276 -684h-143l-240 592l-264 -240l-61 -352h-140l66 354q-21 25 -52.5 68t-62.5 84q-37 49 -78 102l-454 -608h-152l531 711l-271 370h146l417 -571l103 571h137z" />
    <glyph glyph-name="afii10073" unicode="&#x437;" horiz-adv-x="971" 
d="M387 -23q-90 0 -153.5 21.5t-107.5 55.5t-71.5 76t-46.5 83l101 61q12 -34 33.5 -68t55 -61.5t81 -45t112.5 -17.5q123 0 202 68.5t79 183.5q0 86 -57.5 139t-196.5 53h-76l16 88h80q133 0 215 48.5t82 166.5q0 72 -46 119t-152 47q-93 0 -159.5 -38.5t-115.5 -94.5
l-67 76q57 63 146 114.5t212 51.5q162 0 237.5 -73t75.5 -181q0 -123 -66.5 -194.5t-176.5 -88.5q98 -22 137 -90.5t39 -150.5q0 -78 -31 -142.5t-85 -110.5t-130 -71t-166 -25z" />
    <glyph glyph-name="afii10074" unicode="&#x438;" horiz-adv-x="1214" 
d="M922 0h-136l158 885q-80 -90 -180 -206t-205.5 -236.5t-207 -236.5t-181.5 -206h-141l190 1081h135l-157 -886q51 57 113.5 129.5t131 151.5t139 162t139 162t132 151.5t115.5 129.5h147z" />
    <glyph glyph-name="afii10075" unicode="&#x439;" horiz-adv-x="1214" 
d="M922 0h-136l158 885q-80 -90 -180 -206t-205.5 -236.5t-207 -236.5t-181.5 -206h-141l190 1081h135l-157 -886q51 57 113.5 129.5t131 151.5t139 162t139 162t132 151.5t115.5 129.5h147zM688 1188q-149 0 -214.5 91t-53.5 245h90q2 -121 41 -172.5t145 -51.5
q82 0 142.5 50.5t89.5 173.5h90q-27 -160 -112 -248t-218 -88z" />
    <glyph glyph-name="afii10076" unicode="&#x43a;" horiz-adv-x="1063" 
d="M361 1079l-98 -544l592 544h168l-422 -383l272 -696h-143l-235 600l-258 -233l-66 -367h-141l190 1079h141z" />
    <glyph glyph-name="afii10077" unicode="&#x43b;" horiz-adv-x="1235" 
d="M975 973h-539l-121 -678q-16 -96 -47.5 -153.5t-83 -88t-120 -41t-158.5 -10.5l18 104q66 0 110 7.5t71.5 28t44 56t26.5 95.5l139 788h820l-191 -1081h-141z" />
    <glyph glyph-name="afii10078" unicode="&#x43c;" horiz-adv-x="1432" 
d="M29 0l190 1081h172l215 -929h2l537 929h174l-193 -1081h-125l156 887h-2q-2 -6 -20.5 -39t-40 -70t-40 -68.5t-22.5 -39.5l-395 -670h-119l-158 662q0 8 -8 43.5t-17 76.5t-17.5 76t-8.5 41h-2l-160 -899h-118z" />
    <glyph glyph-name="afii10079" unicode="&#x43d;" horiz-adv-x="1190" 
d="M219 1081h141l-81 -460h589l82 460h140l-191 -1081h-141l90 508h-590l-90 -508h-139z" />
    <glyph glyph-name="afii10080" unicode="&#x43e;" horiz-adv-x="1161" 
d="M483 96q82 0 156 38t130 107.5t89 169t33 222.5q0 69 -16.5 132.5t-52.5 112t-91 76t-131 27.5q-84 0 -157.5 -38t-129 -108.5t-87 -170t-31.5 -222.5q0 -71 16 -133.5t51 -109.5t89.5 -75t131.5 -28zM473 -23q-96 0 -174 33t-133 93.5t-85 145.5t-30 191q0 168 51.5 292
t131 206t179 122t197.5 40q95 0 172.5 -33t133 -93.5t86 -145.5t30.5 -191q0 -166 -50 -290t-130 -206t-180.5 -123t-198.5 -41z" />
    <glyph glyph-name="afii10081" unicode="&#x43f;" horiz-adv-x="1186" 
d="M219 1081h866l-190 -1081h-141l172 973h-584l-172 -973h-141z" />
    <glyph glyph-name="afii10082" unicode="&#x440;" horiz-adv-x="1194" 
d="M528 100q62 0 131.5 28t128 91.5t96.5 168t38 255.5q0 164 -78 250t-201 86q-88 0 -177 -51t-153 -125l-98 -551q64 -72 134.5 -112t178.5 -40zM-41 -410l262 1489h141l-28 -153q26 32 65 64t84 56.5t95.5 39t99.5 14.5q178 0 282.5 -113t104.5 -323q0 -181 -48 -310
t-124 -212t-170 -121.5t-186 -38.5q-109 0 -192 43t-148 112l-97 -547h-141z" />
    <glyph glyph-name="afii10083" unicode="&#x441;" horiz-adv-x="1067" 
d="M455 -23q-93 0 -166.5 33t-126.5 93.5t-82 146.5t-29 192q0 181 54.5 305.5t135.5 203.5t177 114t182 35q96 0 162.5 -23.5t111 -64.5t70 -95.5t41.5 -117.5l-129 -29q-29 111 -89 161t-177 50q-78 0 -149.5 -35t-127 -102.5t-88 -169t-32.5 -234.5q0 -159 71.5 -251.5
t202.5 -92.5q55 0 99 12.5t82 40t72 70.5t71 105l108 -52q-68 -137 -171 -216t-273 -79z" />
    <glyph glyph-name="afii10084" unicode="&#x442;" horiz-adv-x="969" 
d="M451 973h-375l18 108h893l-20 -108h-375l-172 -973h-141z" />
    <glyph glyph-name="afii10085" unicode="&#x443;" horiz-adv-x="1059" 
d="M43 -414q-57 0 -104.5 10.5t-81.5 26.5l49 117q26 -10 64 -21.5t75 -11.5q72 0 119 42t84 110l76 135l-211 1085h147l164 -911h4l485 911h150l-701 -1261q-32 -62 -65 -105t-70 -71.5t-82 -42t-102 -13.5z" />
    <glyph glyph-name="afii10086" unicode="&#x444;" horiz-adv-x="1892" 
d="M672 -410q26 154 44.5 261.5t31 175t18.5 99.5t6 34q-72 -72 -167 -126t-210 -54q-73 0 -136.5 28.5t-109 85t-71 138t-25.5 188.5q0 162 39 290t106.5 215t159 133t195.5 46q129 0 212 -51.5t140 -130.5l107 594h141l-106 -596q71 69 168.5 125.5t207.5 56.5
q160 0 252 -118t92 -322q0 -156 -37.5 -282t-104 -215t-159 -137t-200.5 -48q-133 0 -215 51t-140 129l-98 -570h-141zM1233 90q82 0 153.5 38t125 110.5t83 175t29.5 231.5q0 154 -67.5 246t-184.5 92q-47 0 -95 -15.5t-93 -40t-85 -56t-71 -62.5l-96 -541
q47 -73 118.5 -125.5t182.5 -52.5zM446 90q48 0 96 15.5t93 40t85 56t71 62.5l94 541q-47 74 -118 126t-181 52q-82 0 -154 -37t-124 -108.5t-82.5 -175t-30.5 -234.5q0 -154 67.5 -246t183.5 -92z" />
    <glyph glyph-name="afii10087" unicode="&#x445;" horiz-adv-x="1026" 
d="M-70 0l471 565l-251 514h147l203 -415l342 415h151l-438 -526l272 -553h-147l-225 457l-375 -457h-150z" />
    <glyph glyph-name="afii10088" unicode="&#x446;" horiz-adv-x="1210" 
d="M29 0l190 1081h141l-172 -972h586l170 972h141l-170 -972h109l-90 -519h-133l71 410h-843z" />
    <glyph glyph-name="afii10089" unicode="&#x447;" horiz-adv-x="1165" 
d="M872 0h-143l94 514q-37 -31 -84 -65.5t-103 -65.5t-119.5 -50.5t-131.5 -19.5q-170 0 -231.5 87t-32.5 253l76 428h141l-72 -403q-10 -51 -7 -96t22.5 -78t58.5 -51.5t104 -18.5q56 0 112 19.5t108.5 47t97.5 59.5t78 58l84 463h141z" />
    <glyph glyph-name="afii10090" unicode="&#x448;" horiz-adv-x="1880" 
d="M1589 0h-1560l190 1081h141l-172 -972h570l172 972h139l-172 -972h571l172 972h140z" />
    <glyph glyph-name="afii10091" unicode="&#x449;" horiz-adv-x="1903" 
d="M29 0l188 1081h141l-170 -972h570l170 972h139l-170 -972h571l170 972h140l-170 -972h108l-90 -519h-133l72 410h-1536z" />
    <glyph glyph-name="afii10092" unicode="&#x44a;" horiz-adv-x="1225" 
d="M469 659h221q187 0 293.5 -74.5t106.5 -224.5q0 -96 -38 -164.5t-103.5 -111.5t-156 -63.5t-194.5 -20.5h-385l172 973h-305l18 108h447zM371 104h237q170 0 258 62.5t88 179.5q0 109 -71.5 159t-206.5 50h-225z" />
    <glyph glyph-name="afii10093" unicode="&#x44b;" horiz-adv-x="1421" 
d="M991 0l190 1079h142l-191 -1079h-141zM222 1081h139l-76 -422h221q187 0 293.5 -74.5t106.5 -224.5q0 -96 -38 -164.5t-103.5 -111.5t-155.5 -63.5t-195 -20.5h-385zM187 104h238q169 0 257.5 62.5t88.5 179.5q0 109 -72 159t-207 50h-225z" />
    <glyph glyph-name="afii10094" unicode="&#x44c;" horiz-adv-x="1065" 
d="M246 1081h139l-76 -422h221q187 0 293.5 -74.5t106.5 -224.5q0 -96 -38 -164.5t-103.5 -111.5t-155.5 -63.5t-195 -20.5h-385zM211 104h238q169 0 257.5 62.5t88.5 179.5q0 109 -72 159t-207 50h-225z" />
    <glyph glyph-name="afii10095" unicode="&#x44d;" horiz-adv-x="1077" 
d="M541 1104q90 0 164.5 -34t129 -95.5t84 -147.5t29.5 -188q0 -147 -43 -268t-117.5 -209t-174 -136.5t-210.5 -48.5q-90 0 -154.5 20.5t-109.5 58.5t-73.5 92.5t-45.5 123.5l121 31q25 -104 84.5 -161.5t177.5 -57.5q64 0 128.5 27.5t117.5 81t92 131t56 180.5h-424l14 92
h420q4 16 3 23.5t-1 23.5q0 74 -18.5 138.5t-54.5 112.5t-86 75.5t-113 27.5q-54 0 -98 -12t-83 -38.5t-73.5 -68.5t-71.5 -100l-100 64q41 65 84 114.5t94 82t112.5 49t139.5 16.5z" />
    <glyph glyph-name="afii10096" unicode="&#x44e;" horiz-adv-x="1610" 
d="M924 -23q-93 0 -170.5 32t-134 90.5t-89 142.5t-36.5 186q0 39 6 80h-238l-90 -508h-139l190 1081h142l-82 -460h227q25 112 78 202t125.5 152.5t161 95.5t184.5 33q94 0 172 -33t134 -93t87 -147.5t31 -193.5q0 -148 -44 -268.5t-119 -207.5t-177.5 -135.5t-218.5 -48.5
zM932 84q90 0 166 43t130 119t83.5 176t29.5 215q0 76 -18 141.5t-55 113.5t-91.5 74.5t-125.5 26.5q-88 0 -164 -41t-131.5 -114.5t-87 -175t-31.5 -220.5q0 -77 18.5 -143t55.5 -114t92 -74.5t129 -26.5z" />
    <glyph glyph-name="afii10097" unicode="&#x44f;" horiz-adv-x="1100" 
d="M807 0h-139l77 438h-223q-16 0 -30.5 1t-28.5 1l-328 -440h-151l348 463q-111 26 -160 96t-49 168q0 92 36 159.5t101.5 110.5t155.5 63.5t198 20.5h385zM764 541l76 436h-250q-88 0 -150.5 -18.5t-102.5 -50t-58.5 -74.5t-18.5 -93q0 -90 60.5 -145t214.5 -55h229z" />
    <glyph glyph-name="afii10071" unicode="&#x451;" horiz-adv-x="1098" 
d="M459 -23q-90 0 -166 32t-129 90.5t-83 142.5t-30 190q0 184 56.5 311t139.5 207t177 115t172 35q119 0 198.5 -44t123 -121t52.5 -178.5t-12 -217.5l-4 -27h-761q-3 -18 -3 -38v-40q0 -96 28 -161.5t70 -104.5t92 -55.5t97 -16.5q123 0 202 55.5t138 143.5l101 -68
q-78 -114 -189 -182t-270 -68zM836 625q8 69 0.5 133.5t-37 114t-81.5 79t-134 29.5q-60 0 -117 -22.5t-106.5 -66.5t-89.5 -111.5t-60 -155.5h625zM717 1194l28 168h160l-28 -168h-160zM375 1194l28 168h158l-29 -168h-157z" />
    <glyph glyph-name="afii10099" unicode="&#x452;" horiz-adv-x="1171" 
d="M90 1307h168l37 209h143l-37 -209h222l-17 -99h-223l-53 -305q37 31 84 66t103 65.5t119.5 50t131.5 19.5q168 0 229.5 -87t32.5 -253l-172 -981q-20 -107 -74.5 -152t-144.5 -45q-41 0 -76 3t-55 10l22 100q15 -4 33.5 -7t36.5 -3q45 0 76 23.5t45 97.5l164 931
q8 52 6 96t-21.5 76.5t-58.5 51t-102 18.5q-56 0 -112 -19.5t-109.5 -47t-98.5 -59.5t-78 -58l-141 -799h-141l213 1208h-168z" />
    <glyph glyph-name="afii10100" unicode="&#x453;" horiz-adv-x="922" 
d="M465 1194l232 319h186l-325 -319h-93zM905 973h-563l-172 -973h-141l190 1081h707z" />
    <glyph glyph-name="afii10101" unicode="&#x454;" horiz-adv-x="1077" 
d="M446 -23q-90 0 -162.5 34t-123.5 95.5t-79 147.5t-28 188q0 168 51.5 292t132 206t181 123t196.5 41q88 0 150.5 -20.5t104.5 -58.5t69 -92t43 -124l-121 -33q-12 51 -29.5 92t-46 70t-69.5 44t-101 15q-65 0 -129.5 -26.5t-120 -77.5t-96.5 -126t-59 -171h422l-15 -92
h-419q-4 -17 -4 -34v-34q0 -71 16 -135.5t48 -113t80 -77t112 -28.5q108 0 189 51t153 170l100 -65q-82 -132 -185.5 -196.5t-259.5 -64.5z" />
    <glyph glyph-name="afii10102" unicode="&#x455;" horiz-adv-x="1016" 
d="M410 -18q-177 0 -275 56t-153 152l112 68q41 -68 118 -114t206 -48q123 0 201.5 46t78.5 155q0 61 -42 99t-105.5 64.5t-136 50.5t-136 57.5t-105.5 85t-42 132.5q0 144 100.5 229t268.5 85q82 0 146.5 -13.5t113.5 -37t85 -54t62 -65.5l-102 -84q-47 65 -124 101
t-185 36q-113 0 -168.5 -50t-55.5 -124q0 -64 42 -101.5t104.5 -64.5t136.5 -49.5t136.5 -55t104.5 -84t42 -135.5q0 -96 -36 -160.5t-96.5 -103.5t-137 -56t-158.5 -17z" />
    <glyph glyph-name="afii10103" unicode="&#x456;" horiz-adv-x="492" 
d="M272 1329l27 152h150l-27 -152h-150zM43 0l190 1079h142l-191 -1079h-141z" />
    <glyph glyph-name="afii10104" unicode="&#x457;" horiz-adv-x="492" 
d="M416 1194l28 168h160l-29 -168h-159zM74 1194l28 168h158l-29 -168h-157zM43 0l190 1079h142l-191 -1079h-141z" />
    <glyph glyph-name="afii10105" unicode="&#x458;" horiz-adv-x="492" 
d="M272 1329l27 152h150l-27 -152h-150zM-76 -412q-47 0 -73.5 2t-43.5 4l21 113q14 -4 36.5 -5t43.5 -1q45 0 68.5 26.5t33.5 90.5l223 1261h142l-228 -1286q-20 -110 -72 -157.5t-151 -47.5z" />
    <glyph glyph-name="afii10106" unicode="&#x459;" horiz-adv-x="1815" 
d="M975 973h-539l-121 -678q-16 -96 -47.5 -153.5t-83 -88t-120 -41t-158.5 -10.5l18 104q66 0 110 7.5t71.5 28t44 56t26.5 95.5l139 788h818l-74 -422h221q186 0 292.5 -74.5t106.5 -224.5q0 -96 -37.5 -164.5t-103 -111.5t-156 -63.5t-194.5 -20.5h-385zM963 104h237
q168 0 256 62.5t88 179.5q0 109 -70.5 159t-205.5 50h-228z" />
    <glyph glyph-name="afii10107" unicode="&#x45a;" horiz-adv-x="1769" 
d="M856 555h-590l-98 -555h-139l190 1081h141l-73 -413h590l73 413h140l-76 -415h221q186 0 292.5 -78t106.5 -228q0 -96 -37.5 -164.5t-103.5 -111.5t-156 -63.5t-194 -20.5h-383zM1153 104q170 0 258 62.5t88 179.5q0 109 -71.5 159t-206.5 50h-226l-80 -451h238z" />
    <glyph glyph-name="afii10108" unicode="&#x45b;" horiz-adv-x="1171" 
d="M92 1341h174l31 175h141l-30 -175h221l-21 -108h-219l-57 -326q35 37 82 71t100 61.5t109.5 44t109.5 16.5q88 0 149.5 -24.5t95.5 -69.5t43 -107.5t-3 -138.5l-133 -760h-142l129 743q23 115 -20 175.5t-172 60.5q-90 0 -183.5 -51t-185.5 -135l-139 -793h-141l217 1233
h-176z" />
    <glyph glyph-name="afii10109" unicode="&#x45c;" horiz-adv-x="1063" 
d="M532 1194l232 319h186l-325 -319h-93zM361 1079l-98 -544l592 544h168l-422 -383l272 -696h-143l-235 600l-258 -233l-66 -367h-141l190 1079h141z" />
    <glyph glyph-name="afii10110" unicode="&#x45e;" horiz-adv-x="1059" 
d="M43 -414q-57 0 -104.5 10.5t-81.5 26.5l49 117q26 -10 64 -21.5t75 -11.5q72 0 119 42t84 110l76 135l-211 1085h147l164 -911h4l485 911h150l-701 -1261q-32 -62 -65 -105t-70 -71.5t-82 -42t-102 -13.5zM603 1188q-149 0 -214.5 91t-53.5 245h90q2 -121 41 -172.5
t145 -51.5q82 0 142.5 50.5t89.5 173.5h90q-27 -160 -112 -248t-218 -88z" />
    <glyph glyph-name="afii10193" unicode="&#x45f;" horiz-adv-x="1186" 
d="M219 1081h141l-172 -972h586l172 972h139l-190 -1081h-358l-72 -410h-141l71 410h-366z" />
    <glyph glyph-name="afii10050" unicode="&#x490;" horiz-adv-x="1137" 
d="M1098 1772h141l-68 -379h-720l-246 -1393h-144l267 1516h725z" />
    <glyph glyph-name="afii10098" unicode="&#x491;" horiz-adv-x="922" 
d="M985 1423l-80 -450h-563l-172 -973h-141l190 1081h565l60 342h141z" />
    <glyph glyph-name="Wgrave" unicode="&#x1e80;" horiz-adv-x="1874" 
d="M342 0l-127 1516h143l66 -920q8 -104 14 -203.5t11 -177.5h4q28 78 70 176t85 203l385 922h156l65 -930q9 -105 14 -195t7 -176h4q37 92 73 177t79 188l393 936h141l-657 -1516h-138l-94 1315h-4l-553 -1315h-137zM1010 1616l-279 319h187l184 -319h-92z" />
    <glyph glyph-name="wgrave" unicode="&#x1e81;" horiz-adv-x="1509" 
d="M244 0l-129 1079h141l51 -534q8 -90 18.5 -177t16.5 -190h4q25 58 44.5 103t37.5 87t36.5 84t41.5 93l242 534h131l53 -544l33 -357h4q22 53 41.5 97t38 84t36 81t39.5 90l248 549h139l-512 -1079h-131l-90 887h-4l-401 -887h-129zM772 1194l-278 319h186l184 -319h-92z
" />
    <glyph glyph-name="Wacute" unicode="&#x1e82;" horiz-adv-x="1874" 
d="M1026 1616l231 319h187l-326 -319h-92zM342 0l-127 1516h143l66 -920q8 -104 14 -203.5t11 -177.5h4q28 78 70 176t85 203l385 922h156l65 -930q9 -105 14 -195t7 -176h4q37 92 73 177t79 188l393 936h141l-657 -1516h-138l-94 1315h-4l-553 -1315h-137z" />
    <glyph glyph-name="wacute" unicode="&#x1e83;" horiz-adv-x="1509" 
d="M244 0l-129 1079h141l51 -534q8 -90 18.5 -177t16.5 -190h4q25 58 44.5 103t37.5 87t36.5 84t41.5 93l242 534h131l53 -544l33 -357h4q22 53 41.5 97t38 84t36 81t39.5 90l248 549h139l-512 -1079h-131l-90 887h-4l-401 -887h-129zM760 1194l231 319h187l-326 -319h-92z
" />
    <glyph glyph-name="Wdieresis" unicode="&#x1e84;" horiz-adv-x="1874" 
d="M1178 1616l28 168h160l-29 -168h-159zM836 1616l28 168h158l-29 -168h-157zM342 0l-127 1516h143l66 -920q8 -104 14 -203.5t11 -177.5h4q28 78 70 176t85 203l385 922h156l65 -930q9 -105 14 -195t7 -176h4q37 92 73 177t79 188l393 936h141l-657 -1516h-138l-94 1315
h-4l-553 -1315h-137z" />
    <glyph glyph-name="wdieresis" unicode="&#x1e85;" horiz-adv-x="1509" 
d="M244 0l-129 1079h141l51 -534q8 -90 18.5 -177t16.5 -190h4q25 58 44.5 103t37.5 87t36.5 84t41.5 93l242 534h131l53 -544l33 -357h4q22 53 41.5 97t38 84t36 81t39.5 90l248 549h139l-512 -1079h-131l-90 887h-4l-401 -887h-129zM922 1194l28 168h160l-29 -168h-159z
M580 1194l28 168h158l-29 -168h-157z" />
    <glyph glyph-name="Ygrave" unicode="&#x1ef2;" horiz-adv-x="1245" 
d="M416 0l116 668l-348 848h150l291 -723l540 723h162l-649 -848l-117 -668h-145zM733 1616l-278 319h186l184 -319h-92z" />
    <glyph glyph-name="ygrave" unicode="&#x1ef3;" horiz-adv-x="1059" 
d="M43 -414q-57 0 -104.5 10.5t-81.5 26.5l49 117q26 -10 64 -21.5t75 -11.5q72 0 119 42t84 110l76 135l-211 1085h147l164 -911h4l485 911h150l-701 -1261q-32 -62 -65 -105t-70 -71.5t-82 -42t-102 -13.5zM567 1194l-278 319h186l184 -319h-92z" />
    <glyph glyph-name="space.en" unicode="&#x2002;" horiz-adv-x="1024" 
 />
    <glyph glyph-name="space.em" unicode="&#x2003;" horiz-adv-x="2048" 
 />
    <glyph glyph-name="space.tab" unicode="&#x2007;" horiz-adv-x="666" 
 />
    <glyph glyph-name="space.thin" unicode="&#x2009;" horiz-adv-x="410" 
 />
    <glyph glyph-name="endash.tab" unicode="&#x2012;" 
d="M119 578l22 129h1033l-23 -129h-1032z" />
    <glyph glyph-name="endash" unicode="&#x2013;" horiz-adv-x="1307" 
d="M106 578l23 129h1032l-22 -129h-1033z" />
    <glyph glyph-name="emdash" unicode="&#x2014;" horiz-adv-x="1876" 
d="M106 578l23 129h1600l-23 -129h-1600z" />
    <glyph glyph-name="emdash.em_salt" unicode="&#x2015;" horiz-adv-x="2048" 
d="M-6 707h2048l-23 -129h-2048z" />
    <glyph glyph-name="quoteleft" unicode="&#x2018;" horiz-adv-x="549" 
d="M250 1116l33 176l131 224h65l-86 -207h66l-33 -193h-176z" />
    <glyph glyph-name="quoteright" unicode="&#x2019;" horiz-adv-x="549" 
d="M266 1116l86 207h-65l32 193h177l-31 -179l-133 -221h-66z" />
    <glyph glyph-name="quotesinglbase" unicode="&#x201a;" horiz-adv-x="549" 
d="M33 -207l86 207h-66l35 193h174l-31 -179l-133 -221h-65z" />
    <glyph glyph-name="quotedblleft" unicode="&#x201c;" horiz-adv-x="909" 
d="M610 1116l31 176l133 224h66l-86 -207h65l-35 -193h-174zM250 1116l33 176l131 224h65l-86 -207h66l-33 -193h-176z" />
    <glyph glyph-name="quotedblright" unicode="&#x201d;" horiz-adv-x="909" 
d="M625 1116l88 207h-66l33 193h176l-33 -179l-133 -221h-65zM266 1116l86 207h-65l32 193h177l-31 -179l-133 -221h-66z" />
    <glyph glyph-name="quotedblbase" unicode="&#x201e;" horiz-adv-x="909" 
d="M393 -207l86 207h-65l35 193h174l-31 -179l-133 -221h-66zM33 -207l86 207h-66l35 193h174l-31 -179l-133 -221h-65z" />
    <glyph glyph-name="dagger" unicode="&#x2020;" horiz-adv-x="1135" 
d="M285 -410l252 1276l-420 -20l24 137l412 -22l70 555h155l-123 -555l420 22l-24 -137l-412 20l-199 -1276h-155z" />
    <glyph glyph-name="daggerdbl" unicode="&#x2021;" horiz-adv-x="1135" 
d="M285 -410l112 490l-403 -23l22 136l398 -23l49 387l86 381l-406 -23l25 136l395 -23l60 488h157l-112 -488l403 23l-24 -136l-396 23l-49 -381l-86 -387l404 23l-23 -136l-397 23l-60 -490h-155z" />
    <glyph glyph-name="bullet" unicode="&#x2022;" horiz-adv-x="948" 
d="M436 477q-104 0 -171.5 67.5t-67.5 172.5q0 53 18 97t50 77t76 50t95 17q107 0 175.5 -67.5t68.5 -173.5q0 -51 -18.5 -95t-50 -76t-77 -50.5t-98.5 -18.5z" />
    <glyph glyph-name="ellipsis" unicode="&#x2026;" horiz-adv-x="1647" 
d="M1153 0l33 193h178l-35 -193h-176zM604 0l33 193h178l-35 -193h-176zM55 0l33 193h178l-35 -193h-176z" />
    <glyph glyph-name="perthousand" unicode="&#x2030;" horiz-adv-x="2798" 
d="M334 0l1155 1516h139l-1153 -1516h-141zM2226 90q58 0 108 37t86 98.5t56.5 142.5t20.5 171q0 106 -39 172.5t-131 66.5q-60 0 -109 -36.5t-85 -98t-56.5 -143.5t-20.5 -170q0 -105 41 -172.5t129 -67.5zM2218 -20q-76 0 -131 26.5t-92 72.5t-54.5 109.5t-17.5 139.5
q0 137 36 241.5t94 175t132 107.5t150 37q149 0 221 -97.5t72 -254.5q0 -127 -34 -230.5t-90.5 -176.5t-130 -111.5t-155.5 -38.5zM1391 90q59 0 108 37t85 98.5t56.5 142.5t20.5 171q0 106 -39 172.5t-131 66.5q-57 0 -106.5 -36.5t-86 -98t-57 -143.5t-20.5 -170
q0 -105 42 -172.5t128 -67.5zM1384 -20q-75 0 -130.5 26.5t-92.5 72.5t-54 109.5t-17 139.5q0 137 35.5 241.5t94 175t132 107.5t149.5 37q150 0 220.5 -97.5t70.5 -254.5q0 -127 -33 -230.5t-89 -176.5t-130 -111.5t-156 -38.5zM473 737q57 0 107.5 37t86 98.5t56 143.5
t20.5 172q0 104 -38.5 170.5t-131.5 66.5q-59 0 -108 -36.5t-85 -98t-56.5 -143.5t-20.5 -170q0 -105 42 -172.5t128 -67.5zM467 627q-76 0 -131 26.5t-92 72.5t-55.5 109.5t-18.5 139.5q0 137 36 241.5t94 176t132 108.5t150 37q149 0 220.5 -98.5t71.5 -253.5
q0 -129 -33.5 -232.5t-90 -176t-130 -111.5t-153.5 -39z" />
    <glyph glyph-name="prime" unicode="&#x2032;" horiz-adv-x="477" 
d="M182 1001l107 402l39 113h141l-213 -515h-74z" />
    <glyph glyph-name="primedbl" unicode="&#x2033;" horiz-adv-x="829" 
d="M543 1001l104 402l41 113h141l-213 -515h-73zM193 1001l104 402l39 113h143l-215 -515h-71z" />
    <glyph glyph-name="guilsinglleft" unicode="&#x2039;" horiz-adv-x="664" 
d="M262 0l-209 541l402 538h145l-393 -538l203 -541h-148z" />
    <glyph glyph-name="guilsinglright" unicode="&#x203a;" horiz-adv-x="664" 
d="M-14 0l395 541l-203 538h146l208 -538l-399 -541h-147z" />
    <glyph glyph-name="fraction" unicode="&#x2044;" horiz-adv-x="954" 
d="M-168 0l1151 1516h139l-1151 -1516h-139z" />
    <glyph glyph-name="zero.sups" unicode="&#x2070;" horiz-adv-x="967" 
d="M475 553q-158 0 -234.5 100.5t-76.5 264.5q0 120 29.5 232t86 197t137.5 135t183 50q78 0 135.5 -27.5t96 -77t57 -118t18.5 -150.5q0 -121 -29.5 -231.5t-86 -193.5t-136.5 -132t-180 -49zM481 657q76 0 132.5 42t94 112t57 161t19.5 187q0 125 -48 196.5t-142 71.5
q-76 0 -133.5 -43t-96 -113.5t-59 -162.5t-20.5 -188q0 -127 50 -195t146 -68z" />
    <glyph glyph-name="four.sups" unicode="&#x2074;" horiz-adv-x="897" 
d="M555 797h-432l12 80l537 639h129l-107 -613h154l-19 -106h-153l-41 -228h-119zM578 901l77 457l-381 -457h304z" />
    <glyph glyph-name="five.sups" unicode="&#x2075;" horiz-adv-x="872" 
d="M418 553q-123 0 -198 56.5t-114 138.5l91 57q30 -66 83.5 -108t143.5 -42q117 0 183.5 72t66.5 188q0 84 -46 131.5t-124 47.5q-62 0 -109 -25t-94 -78l-94 39l117 486h522l-27 -109h-409l-74 -291q35 35 85 56.5t122 21.5q112 0 182 -73.5t70 -192.5q0 -86 -30 -157
t-80 -120t-118.5 -74.5t-148.5 -23.5z" />
    <glyph glyph-name="six.sups" unicode="&#x2076;" horiz-adv-x="909" 
d="M457 553q-133 0 -213 92t-80 266q0 127 32.5 240t91 198t141.5 134t185 49q95 0 161.5 -27.5t111.5 -72.5l-70 -82q-43 36 -94 58t-117 22q-61 0 -113.5 -29t-92.5 -78t-67.5 -116.5t-39.5 -145.5q53 53 124.5 84t149.5 31q70 0 120 -19.5t83 -53.5t48.5 -81t15.5 -100
q0 -80 -29 -147.5t-79 -117t-118.5 -77t-150.5 -27.5zM543 1075q-68 0 -136.5 -30.5t-125.5 -90.5v-41q0 -69 16 -118.5t43 -80t61.5 -45t71.5 -14.5q47 0 91 17.5t77 50.5t52.5 80t19.5 106q0 72 -40 119t-130 47z" />
    <glyph glyph-name="seven.sups" unicode="&#x2077;" horiz-adv-x="829" 
d="M700 1405h-467l19 111h600l-16 -95l-541 -852h-127z" />
    <glyph glyph-name="eight.sups" unicode="&#x2078;" horiz-adv-x="903" 
d="M442 553q-84 0 -145 19.5t-102 53t-61.5 76.5t-20.5 91q0 108 67.5 170.5t200.5 117.5q-59 41 -100 88.5t-39 116.5q0 55 24.5 100.5t68.5 78t104.5 50t129.5 17.5q74 0 128.5 -19.5t90 -50t52 -70.5t16.5 -83q0 -92 -55.5 -144.5t-177.5 -101.5q39 -23 72.5 -47.5
t60 -54t42 -63.5t15.5 -77q0 -63 -27.5 -112.5t-77 -84t-118 -53t-148.5 -18.5zM449 649q47 0 91 10.5t77.5 31t53 51t19.5 73.5q0 37 -18.5 66.5t-49 55.5t-69.5 48.5t-82 46.5q-59 -26 -104 -51t-75 -51.5t-44.5 -57t-14.5 -71.5q0 -64 55.5 -108t160.5 -44zM530 1110
q113 45 160 87t47 103q0 50 -41 92t-139 42q-86 0 -141.5 -41t-55.5 -107q0 -55 50.5 -96t119.5 -80z" />
    <glyph glyph-name="nine.sups" unicode="&#x2079;" horiz-adv-x="909" 
d="M401 553q-96 0 -162.5 27.5t-111.5 72.5l70 82q43 -37 94 -57.5t117 -20.5q61 0 112 28t91 77t68 116.5t42 145.5q-55 -51 -126 -83t-149 -32q-69 0 -119.5 19.5t-82 53.5t-47 81t-15.5 100q0 80 29 147.5t79 117t118.5 77t148.5 27.5q135 0 214 -91t79 -265
q0 -127 -32 -241t-91 -199t-142 -134t-184 -49zM471 1010q68 0 136.5 29.5t123.5 88.5q2 11 2 22v21q0 68 -15.5 117t-42 81t-61 46.5t-73.5 14.5q-47 0 -91 -17.5t-77 -50.5t-52.5 -80t-19.5 -106q0 -72 40 -119t130 -47z" />
    <glyph glyph-name="zero.sinf" unicode="&#x2080;" horiz-adv-x="967" 
d="M305 -426q-158 0 -234.5 100.5t-76.5 264.5q0 120 29.5 232t86 197t137.5 135t183 50q78 0 135.5 -27.5t96 -77t57 -118t18.5 -150.5q0 -121 -29.5 -231.5t-86 -193.5t-136 -132t-180.5 -49zM311 -322q76 0 132.5 42t94 112t57 161t19.5 187q0 125 -48 197t-142 72
q-76 0 -133.5 -43.5t-96 -114t-59 -162.5t-20.5 -188q0 -127 50 -195t146 -68z" />
    <glyph glyph-name="one.sinf" unicode="&#x2081;" horiz-adv-x="715" 
d="M-20 -301h174l125 709q-39 -17 -85.5 -26t-91.5 -9l17 104q63 2 110 15.5t82 44.5h113l-145 -838h155l-18 -109h-455z" />
    <glyph glyph-name="two.sinf" unicode="&#x2082;" horiz-adv-x="913" 
d="M-55 -369q18 113 71.5 186.5t122 125t143 87.5t136 73.5t101.5 85t40 120.5q0 58 -37 97.5t-110 39.5q-68 0 -126.5 -30.5t-117.5 -116.5l-88 61q72 109 162 153t184 44q129 0 194.5 -68.5t65.5 -171.5q0 -88 -38 -146t-96 -102t-129 -79t-136.5 -74t-119.5 -88t-77 -123
h490l-17 -113h-624z" />
    <glyph glyph-name="three.sinf" unicode="&#x2083;" horiz-adv-x="913" 
d="M268 -426q-239 0 -321 199l98 57q37 -86 96.5 -115.5t137.5 -29.5q98 0 160.5 51t62.5 143q2 76 -50.5 121t-172.5 45h-74l16 98h82q123 0 190.5 38t67.5 134q0 54 -37 92.5t-127 38.5q-123 0 -227 -102l-68 74q74 74 153 106.5t165 32.5q72 0 123 -19.5t82.5 -50
t47 -70.5t15.5 -83q0 -92 -52 -153.5t-149 -90.5q74 -24 109 -76.5t35 -119.5q0 -72 -26.5 -131.5t-75 -101.5t-115 -64.5t-146.5 -22.5z" />
    <glyph glyph-name="four.sinf" unicode="&#x2084;" horiz-adv-x="897" 
d="M385 -182h-432l12 80l537 639h129l-107 -613h154l-19 -106h-153l-41 -228h-119zM408 -78l77 457l-381 -457h304z" />
    <glyph glyph-name="five.sinf" unicode="&#x2085;" horiz-adv-x="872" 
d="M248 -426q-123 0 -198 56.5t-113 138.5l90 57q30 -66 83.5 -108t143.5 -42q117 0 183.5 72t66.5 189q0 83 -46 130.5t-124 47.5q-62 0 -109 -24.5t-94 -78.5l-94 39l117 486h522l-27 -109h-409l-74 -291q35 35 85 56.5t122 21.5q112 0 182 -73.5t70 -192.5
q0 -86 -30 -157t-80 -120t-118.5 -74.5t-148.5 -23.5z" />
    <glyph glyph-name="six.sinf" unicode="&#x2086;" horiz-adv-x="909" 
d="M287 -426q-133 0 -213 92t-80 266q0 127 32.5 240t91 198t141.5 134t185 49q95 0 161.5 -27.5t111.5 -72.5l-70 -82q-43 37 -94 58.5t-117 21.5q-61 0 -113.5 -29t-92.5 -78t-67.5 -116.5t-39.5 -145.5q53 53 124.5 84t149.5 31q70 0 120 -19.5t83 -53.5t48.5 -81
t15.5 -100q0 -80 -29 -147.5t-79 -117t-118.5 -77t-150.5 -27.5zM373 96q-68 0 -136.5 -29.5t-125.5 -89.5v-43q0 -69 16 -118t43 -80t61.5 -45.5t71.5 -14.5q47 0 91 17.5t77 50.5t52.5 80t19.5 106q0 72 -40 119t-130 47z" />
    <glyph glyph-name="seven.sinf" unicode="&#x2087;" horiz-adv-x="829" 
d="M530 426h-467l19 111h600l-16 -95l-541 -852h-127z" />
    <glyph glyph-name="eight.sinf" unicode="&#x2088;" horiz-adv-x="903" 
d="M272 -426q-84 0 -145 19.5t-102 53.5t-61.5 77t-20.5 90q0 108 67.5 170.5t200.5 117.5q-59 41 -100 88.5t-39 116.5q0 55 24.5 100.5t68.5 78t104.5 50t129.5 17.5q74 0 128.5 -19.5t90 -50t52 -70.5t16.5 -83q0 -92 -55.5 -144.5t-177.5 -101.5q39 -23 72.5 -47.5
t60 -54t42 -63.5t15.5 -77q0 -63 -27.5 -112t-77 -84t-118 -53.5t-148.5 -18.5zM279 -330q47 0 91 10.5t77.5 31t53 51t19.5 73.5q0 37 -18.5 66.5t-49 55.5t-69.5 48.5t-82 46.5q-59 -26 -104 -51t-75 -51.5t-44.5 -57t-14.5 -71.5q0 -64 55.5 -108t160.5 -44zM360 131
q113 45 160 87t47 104q0 49 -41 91t-139 42q-86 0 -141.5 -41t-55.5 -107q0 -55 50.5 -96t119.5 -80z" />
    <glyph glyph-name="nine.sinf" unicode="&#x2089;" horiz-adv-x="909" 
d="M231 -426q-96 0 -162.5 27.5t-111.5 72.5l70 82q43 -37 94 -57.5t117 -20.5q61 0 112 29t91 78t68 115.5t42 144.5q-55 -51 -126 -83t-149 -32q-69 0 -119.5 19.5t-82 53.5t-47 81t-15.5 100q0 80 29 147.5t79 117t118.5 77t148.5 27.5q135 0 214 -91t79 -265
q0 -127 -32 -241t-91 -199t-142 -134t-184 -49zM301 31q68 0 136.5 29.5t123.5 89.5q2 10 2 21v22q0 67 -15.5 116t-42 81t-61 46.5t-73.5 14.5q-47 0 -91 -17.5t-77 -50.5t-52.5 -80t-19.5 -106q0 -72 40 -119t130 -47z" />
    <glyph glyph-name="Euro" unicode="&#x20ac;" horiz-adv-x="1448" 
d="M760 -29q-105 0 -195 34t-155.5 103.5t-103.5 177t-40 257.5h-260l21 112h241q4 52 8.5 100t14.5 95h-230l21 115h235q37 135 98.5 241.5t141.5 182t174 115.5t199 40q121 0 202.5 -32.5t133 -92t77 -140.5t33.5 -175l-139 -17q-6 80 -24.5 140.5t-54.5 102.5t-93 63.5
t-145 21.5q-82 0 -153 -32.5t-129 -91t-102 -142.5t-75 -184h473l-21 -115h-479q-18 -92 -24 -195h469l-21 -112h-450q4 -230 96 -337.5t264 -107.5q131 0 220 93.5t165 269.5l121 -51q-39 -95 -89 -175.5t-114.5 -139t-141.5 -91.5t-169 -33z" />
    <glyph glyph-name="litre" unicode="&#x2113;" horiz-adv-x="1104" 
d="M905 137q-20 -20 -48 -44.5t-64.5 -45t-81.5 -35t-101 -14.5q-133 0 -186 79t-57 212q0 2 -1 42t-1 88v130l-150 -154l-53 92l203 195v453q0 165 64.5 262.5t201.5 97.5q63 0 105 -21.5t67.5 -56.5t37 -79t11.5 -87q0 -143 -69.5 -260t-186.5 -235l-90 -97v-323
q0 -105 30.5 -160t112.5 -55q72 0 120 32.5t79 61.5zM752 1245q0 76 -31 112t-78 36q-78 0 -107.5 -63.5t-29.5 -190.5v-348q2 2 12 14t23.5 25.5t23.5 25.5t13 14q84 97 129 185t45 190z" />
    <glyph glyph-name="afii61352" unicode="&#x2116;" horiz-adv-x="2249" 
d="M1479 537l440 69l184 -37l-438 -67zM1827 850q55 0 104.5 26.5t86 73.5t58 115t21.5 152q0 47 -11 89t-35.5 74.5t-62.5 51t-93 18.5q-56 0 -105 -26.5t-86 -75t-58.5 -115t-21.5 -148.5q0 -47 11.5 -90t36 -75.5t62.5 -51t93 -18.5zM1823 756q-144 0 -227.5 87
t-83.5 234q0 121 36.5 209t93 144.5t124 84t131.5 27.5q145 0 230 -87t85 -236q0 -121 -37 -208t-94 -143.5t-126 -84t-132 -27.5zM61 0l267 1516h155l594 -1260h4l222 1260h137l-266 -1516h-130l-614 1298h-4l-227 -1298h-138z" />
    <glyph glyph-name="copyrightsound" unicode="&#x2117;" horiz-adv-x="1767" 
d="M885 -29q-164 0 -306.5 61.5t-248 168t-166 250t-60.5 307.5t60.5 307t167 249.5t249 168t306.5 61.5q162 0 304 -61.5t248.5 -168t167 -249.5t60.5 -307t-60.5 -307.5t-167 -250t-248.5 -168t-306 -61.5zM887 55q145 0 271 55.5t219 150.5t146.5 223t53.5 274
q0 145 -53.5 273t-147.5 223.5t-220 150.5t-271 55q-146 0 -272 -55t-219 -150.5t-146 -223.5t-53 -273q0 -146 53 -274t146 -223t220 -150.5t273 -55.5zM629 326v868h295q147 0 225 -61.5t78 -178.5q0 -129 -85 -188t-227 -59h-186v-381h-100zM729 797h191q98 0 152 33.5
t54 121.5q0 82 -55 116t-153 34h-189v-305z" />
    <glyph glyph-name="trademark" unicode="&#x2122;" horiz-adv-x="958" 
d="M587 1516h79l127 -330q33 89 65.5 169t64.5 161h83v-433h-67v290q-13 -29 -27.5 -66.5t-30 -76.5t-31 -77.5t-29.5 -69.5h-57l-115 290v-290h-62v433zM326 1448h-132v68h340v-68h-135v-365h-73v365z" />
    <glyph glyph-name="estimated" unicode="&#x212e;" horiz-adv-x="1427" 
d="M356 651v-450q146 -146 357 -146q92 0 163.5 22.5t129 61.5t104.5 93.5t88 119.5l76 -47q-47 -74 -101.5 -134t-121 -103t-150.5 -68t-188 -25q-146 0 -262.5 54.5t-199.5 146.5t-128 215t-45 262q0 142 44 264.5t127 215t201.5 145.5t268.5 53q149 0 268 -54t201 -146.5
t126 -216t46 -263.5h-1004zM1075 1106q-67 63 -160.5 104t-197.5 41q-105 0 -197 -36.5t-164 -108.5v-373h719v373z" />
    <glyph glyph-name="partialdiff" unicode="&#x2202;" horiz-adv-x="1169" 
d="M684 1542q100 -86 170 -186.5t111 -212t59 -236.5t18 -262q0 -149 -46 -272t-122.5 -211t-178 -136.5t-210.5 -48.5q-102 0 -182 36t-135 99.5t-85 149.5t-30 187q0 141 47 254.5t122 194.5t171 124t195 43q104 0 184 -47t127 -133q-22 164 -96 313.5t-201 261.5zM489 84
q76 0 149 38t130 106.5t92 162.5t35 207q0 80 -19.5 146.5t-56.5 115.5t-89 76t-120 27q-80 0 -154.5 -38t-133 -105.5t-93 -162t-34.5 -208.5q0 -80 20.5 -146.5t58 -115t92 -76t123.5 -27.5z" />
    <glyph glyph-name="Delta" unicode="&#x2206;" horiz-adv-x="1350" 
d="M735 1522h158l258 -1522h-1210zM152 121h837l-201 1229h-4z" />
    <glyph glyph-name="product" unicode="&#x220f;" horiz-adv-x="1487" 
d="M195 1516h1097v-1926h-145v1803h-809v-1803h-143v1926z" />
    <glyph glyph-name="summation" unicode="&#x2211;" horiz-adv-x="1210" 
d="M268 -289h828v-121h-983v107l489 885l-463 813v121h934v-123h-776l457 -805z" />
    <glyph glyph-name="minus" unicode="&#x2212;" horiz-adv-x="1303" 
d="M119 612v123h1034v-123h-1034z" />
    <glyph glyph-name="radical" unicode="&#x221a;" horiz-adv-x="1163" 
d="M305 -6l-194 1085h145l147 -911h5l702 1348h152l-816 -1522h-141z" />
    <glyph glyph-name="infinity" unicode="&#x221e;" horiz-adv-x="1561" 
d="M414 385q-166 0 -252 88t-86 262q0 172 86 262t252 90q118 0 207.5 -63t158.5 -180q70 117 158 180t209 63q166 0 252 -90t86 -262q0 -174 -86 -262t-252 -88q-121 0 -209 66.5t-158 183.5q-69 -117 -158.5 -183.5t-207.5 -66.5zM418 500q53 0 96 19.5t79 51t66.5 74.5
t59.5 90q-29 45 -59.5 88t-66.5 77t-79 53.5t-96 19.5q-107 0 -163 -60.5t-56 -177.5t56 -176t163 -59zM1143 500q106 0 162.5 59t56.5 176t-56.5 177.5t-162.5 60.5q-53 0 -96 -19.5t-79 -51.5t-67 -75t-59 -88q28 -47 59 -90t67 -76.5t79 -53t96 -19.5z" />
    <glyph glyph-name="integral" unicode="&#x222b;" horiz-adv-x="694" 
d="M4 -414q-41 0 -75.5 3t-55.5 10l21 100q16 -4 34.5 -7t36.5 -3q45 0 76 23.5t43 97.5l258 1450q10 63 35.5 111t70 81t113 49.5t164.5 16.5q16 0 39.5 -1t28.5 -4l-21 -104q-4 0 -14 1t-21 1q-119 0 -179 -36t-79 -142l-258 -1450q-18 -107 -72.5 -152t-144.5 -45z" />
    <glyph glyph-name="approxequal" unicode="&#x2248;" horiz-adv-x="1223" 
d="M852 315q-33 2 -76 13.5t-92 29t-99 36t-95.5 35.5t-83 28.5t-60.5 13.5q-47 2 -78.5 -18.5t-36.5 -79.5l-98 12q12 117 72.5 166t150.5 43q50 -2 122.5 -25.5t146 -51.5t138 -51.5t99.5 -25.5q47 -4 78 16.5t37 80.5l96 -11q-10 -116 -69.5 -166.5t-151.5 -44.5z
M864 729q-49 2 -120.5 25.5t-145.5 51.5t-139.5 51.5t-100.5 25.5q-47 4 -77.5 -16.5t-36.5 -80.5l-97 13q11 116 70 165.5t152 43.5q32 -2 76 -13.5t92.5 -29t98.5 -36t95 -35.5t83 -28.5t60 -13.5q48 -2 79.5 18.5t35.5 79.5l98 -10q-12 -117 -72.5 -167t-150.5 -44z" />
    <glyph glyph-name="notequal" unicode="&#x2260;" horiz-adv-x="1303" 
d="M455 371h-322v121h375l168 346h-543v120h596l193 400h133l-191 -400h303v-120h-354l-172 -346h526v-121h-579l-176 -371h-136z" />
    <glyph glyph-name="lessequal" unicode="&#x2264;" horiz-adv-x="1303" 
d="M104 680v102l1084 398v-133l-897 -316l897 -313v-133zM104 221h1084v-119h-1084v119z" />
    <glyph glyph-name="greaterequal" unicode="&#x2265;" horiz-adv-x="1303" 
d="M117 418l897 313l-897 316v133l1083 -398v-102l-1083 -395v133zM117 221h1083v-119h-1083v119z" />
    <glyph glyph-name="lozenge" unicode="&#x25ca;" 
d="M121 758l481 758h125l483 -758l-481 -758h-127zM1061 758l-395 612l-396 -612l396 -613z" />
    <glyph glyph-name="u2022.check" unicode="&#x2713;" horiz-adv-x="1163" 
d="M305 -6l-194 1085h145l147 -911h5l702 1348h152l-816 -1522h-141z" />
    <glyph glyph-name="apple" unicode="&#xf8ff;" horiz-adv-x="1556" 
d="M383 365l-59 -5v127l65 -4l14 222l-385 -27v156l385 -25l-14 225l-65 -4v125l59 -4l-4 59h127l-4 -65l223 -12l-27 383h156l-25 -383l224 12l-4 65h125l-5 -59l62 4v-125l-68 2l-12 -223l383 25v-156l-383 27l12 -222l68 4v-127l-62 5l5 -62h-125l4 68l-224 14l25 -385
h-156l27 385l-223 -14l4 -68h-127zM725 809v242l-229 -13l-11 -229h240zM1057 1038l-228 13v-242h240zM829 705v-238l228 10l12 228h-240zM498 479l227 -12v238h-240z" />
    <glyph glyph-name="NUL" horiz-adv-x="0" 
 />
    <glyph glyph-name="uni00A0" horiz-adv-x="463" 
 />
    <glyph glyph-name="zero.salt_slash" horiz-adv-x="1317" 
d="M557 -29q-121 0 -208 43t-144.5 122t-85 187.5t-27.5 239.5q0 197 45 375t131 312t211 214t285 80q119 0 207 -43t144 -119.5t84 -184t28 -236.5q0 -197 -45 -376t-131 -315.5t-211 -217.5t-283 -81zM236 561q0 -104 18 -186l782 852q-39 92 -108.5 140t-171.5 48
q-125 0 -221.5 -70.5t-163 -189.5t-101 -273.5t-34.5 -320.5zM563 98q125 0 222.5 73t163 192.5t99 276.5t33.5 323q0 88 -16 165l-780 -847q77 -183 278 -183z" />
    <glyph glyph-name="endash.en_salt" horiz-adv-x="1024" 
d="M-6 707h1024l-23 -129h-1024z" />
    <glyph glyph-name="registered.salt_big" horiz-adv-x="1767" 
d="M885 -29q-164 0 -306.5 61.5t-248 168t-166 250t-60.5 307.5t60.5 307t167 249.5t249 168t306.5 61.5q162 0 304 -61.5t248.5 -168t167 -249.5t60.5 -307t-60.5 -307.5t-167 -250t-248.5 -168t-306 -61.5zM887 55q145 0 271 55.5t219 150.5t146.5 223t53.5 274
q0 145 -53.5 273t-147.5 223.5t-220 150.5t-271 55q-146 0 -272 -55t-219 -150.5t-146 -223.5t-53 -273q0 -146 53 -274t146 -223t220 -150.5t273 -55.5zM602 340v866h295q147 0 225 -61.5t78 -177.5q0 -105 -53 -160t-141 -74l211 -393h-111l-205 379h-196v-379h-103z
M705 805h188q98 0 153.5 34.5t55.5 123.5q0 81 -55.5 115t-155.5 34h-186v-307z" />
    <glyph glyph-name="A.sc" horiz-adv-x="1161" 
d="M592 1217h145l232 -1217h-142l-63 358h-502l-192 -358h-140zM741 471l-104 584h-4l-311 -584h419z" />
    <glyph glyph-name="B.sc" horiz-adv-x="1178" 
d="M246 1212h420q198 0 301.5 -63.5t103.5 -198.5q0 -67 -21.5 -124.5t-58.5 -99.5t-87 -66.5t-107 -30.5v-4q102 -23 158.5 -87.5t56.5 -168.5q0 -99 -35 -168.5t-98.5 -113.5t-154.5 -65.5t-202 -21.5h-489zM518 113q170 0 262 56t92 196q0 104 -76.5 152t-230.5 48h-295
l-82 -452h330zM573 678q82 0 147.5 10t112 38t71 75t24.5 121q0 92 -66.5 135t-206.5 43h-290l-76 -422h284z" />
    <glyph glyph-name="C.sc" horiz-adv-x="1204" 
d="M518 -23q-110 0 -195 37t-143.5 104.5t-88.5 161t-30 207.5q0 160 46.5 296.5t130.5 236.5t200.5 157.5t257.5 57.5q107 0 182.5 -27.5t125 -78t76 -120t34.5 -153.5l-135 -27q-16 140 -78.5 214.5t-212.5 74.5q-115 0 -205 -50t-151.5 -136t-94 -200t-32.5 -243
q0 -180 84 -287.5t246 -107.5q129 0 225 78t162 225l120 -47q-77 -180 -209.5 -276.5t-314.5 -96.5z" />
    <glyph glyph-name="D.sc" horiz-adv-x="1223" 
d="M246 1212h319q269 0 408 -125.5t139 -361.5q0 -363 -188.5 -544t-556.5 -181h-334zM393 117q295 0 435.5 153.5t140.5 444.5q0 188 -102.5 283.5t-301.5 95.5h-198l-172 -977h198z" />
    <glyph glyph-name="E.sc" horiz-adv-x="1040" 
d="M246 1212h760l-21 -118h-618l-72 -398h457l-19 -116h-457l-81 -461h655l-23 -119h-794z" />
    <glyph glyph-name="F.sc" horiz-adv-x="971" 
d="M246 1212h745l-20 -118h-604l-72 -410h440l-20 -115h-443l-100 -569h-139z" />
    <glyph glyph-name="G.sc" horiz-adv-x="1247" 
d="M506 -23q-115 0 -198 40t-137 111t-81 166t-27 204q0 168 49.5 304t134.5 232t198.5 148.5t244.5 52.5q205 0 307.5 -100.5t118.5 -276.5l-131 -29q-10 74 -30.5 128.5t-56.5 90t-89 53t-129 17.5q-98 0 -185 -42t-151.5 -122t-101.5 -194.5t-37 -257.5q0 -185 84 -297.5
t258 -112.5q67 0 129.5 25.5t114 74t87 118t50.5 155.5h-305l20 113h434l-100 -578h-119l31 184h-2q-53 -86 -148.5 -146.5t-232.5 -60.5z" />
    <glyph glyph-name="H.sc" horiz-adv-x="1264" 
d="M246 1212h139l-88 -512h653l90 512h142l-213 -1212h-142l101 578h-656l-100 -578h-139z" />
    <glyph glyph-name="I.sc" horiz-adv-x="502" 
d="M262 1212h144l-213 -1212h-144z" />
    <glyph glyph-name="J.sc" horiz-adv-x="860" 
d="M250 -23q-113 0 -190.5 32t-137.5 81l82 100q64 -53 128.5 -75.5t117.5 -22.5q49 0 88 9.5t69.5 35t52 72.5t34.5 121l155 882h142l-160 -909q-31 -174 -121 -250t-260 -76z" />
    <glyph glyph-name="K.sc" horiz-adv-x="1155" 
d="M246 1212h139l-109 -614l228 203l461 411h163l-518 -458l369 -754h-148l-325 655l-258 -225l-76 -430h-139z" />
    <glyph glyph-name="L.sc" horiz-adv-x="971" 
d="M33 0l213 1212h139l-190 -1093h602l-21 -119h-743z" />
    <glyph glyph-name="M.sc" horiz-adv-x="1501" 
d="M33 0l213 1212h174l225 -1042h4l586 1042h186l-213 -1212h-139l178 1014h-2q-20 -41 -50 -99.5t-65 -119.5l-452 -795h-125l-172 795q-12 67 -20.5 115t-18.5 106h-2l-180 -1016h-127z" />
    <glyph glyph-name="N.sc" horiz-adv-x="1276" 
d="M246 1212h151l496 -983h2l170 983h133l-213 -1212h-125l-514 1022h-2l-180 -1022h-131z" />
    <glyph glyph-name="O.sc" horiz-adv-x="1282" 
d="M522 -23q-106 0 -191 38t-145.5 108t-92.5 166t-32 211q0 166 50.5 301t138.5 231t205.5 149.5t253.5 53.5q106 0 191 -38t144.5 -107.5t91 -165t31.5 -211.5q0 -164 -49 -300.5t-136 -232.5t-205 -149.5t-255 -53.5zM528 96q113 0 206 46t157.5 129t100.5 196t36 248
q0 184 -85 292.5t-236 108.5q-113 0 -206 -46t-159 -129t-102.5 -195.5t-36.5 -247.5q0 -183 86 -292.5t239 -109.5z" />
    <glyph glyph-name="P.sc" horiz-adv-x="1106" 
d="M33 0l213 1212h389q203 0 315.5 -70.5t112.5 -223.5q0 -121 -39 -197t-107.5 -119t-161.5 -59.5t-200 -16.5h-291l-92 -526h-139zM285 639h270q84 0 151.5 10t115.5 40t74 81t26 133q0 101 -76 147t-223 46h-258z" />
    </font>
</defs>
</svg>
